<svg width="236" height="35" viewBox="0 0 236 35" fill="none" xmlns="http://www.w3.org/2000/svg">
<g id="Size=Large, Colour=Reversed">
<path id="Vector" d="M17.8481 0.279501C16.5229 0.695701 15.7887 2.10038 16.2082 3.41141L17.8796 8.63471L15.974 12.2799L11.002 11.9366L3.29577 9.4359C1.9741 9.00583 0.554531 9.7203 0.124464 11.0313C-0.305602 12.3424 0.414672 13.7505 1.73284 14.1806L5.56847 15.4257L3.90765 16.8581C2.85871 17.7634 2.74682 19.338 3.6594 20.3785C4.57198 21.419 6.15938 21.53 7.20832 20.6247L11.3761 17.0315L15.5369 17.3194L16.2747 19.6259L10.0859 21.0618C8.73278 21.3774 7.89363 22.7196 8.20831 24.0584C8.52299 25.4006 9.87613 26.233 11.2328 25.9174L18.2432 24.2908L20.9844 29.4204C21.6383 30.6378 23.1592 31.1026 24.3865 30.454C25.1837 30.0343 25.6592 29.2505 25.7187 28.4215C25.7501 27.9707 25.6592 27.5059 25.4319 27.0793L21.8865 20.4513L20.2012 15.1829L22.4285 10.9238L33.3724 6.7965C34.3479 6.4566 34.9808 5.57911 35.0472 4.61838C35.0717 4.28889 35.0263 3.949 34.9109 3.61604C34.4493 2.31888 33.0123 1.63215 31.7011 2.08997L22.2257 5.70397L21.0124 1.90615C20.5928 0.591651 19.1802 -0.133231 17.8551 0.282969" fill="#F26649"/>
<path id="Vector_2" d="M51.089 14.1358H48.8757C48.6275 14.1358 48.4282 14.0768 48.2743 13.9623C48.1205 13.8479 48.0051 13.6987 47.9282 13.5149L46.9981 10.9067H41.5121L40.5821 13.5149C40.5191 13.671 40.4073 13.8132 40.2499 13.9415C40.0926 14.0699 39.8933 14.1358 39.652 14.1358H37.4213L42.8023 0.47052H45.7184L51.0925 14.1358H51.089ZM42.2044 8.94713H46.3058L44.8163 4.76778C44.7289 4.54928 44.6345 4.28915 44.5366 3.99435C44.4387 3.69954 44.3408 3.38045 44.2464 3.04402C44.159 3.39086 44.0646 3.70994 43.9702 4.00822C43.8758 4.3065 43.7848 4.56662 43.6939 4.78513L42.2044 8.94713Z" fill="white"/>
<path id="Vector_3" d="M54.7814 14.2846C54.3373 14.2846 53.9457 14.2187 53.603 14.0904C53.2604 13.962 52.9737 13.7782 52.7394 13.5389C52.5051 13.2996 52.3268 13.0117 52.208 12.6718C52.0891 12.3319 52.0296 11.9504 52.0296 11.5238V6.28661H51.1101C50.9702 6.28661 50.8513 6.24152 50.7534 6.15481C50.6555 6.0681 50.6066 5.93631 50.6066 5.75942V4.7432L52.173 4.4588L52.7045 1.94425C52.7744 1.66332 52.9667 1.52112 53.2849 1.52112H54.652V4.47961H57.1764V6.28661H54.652V11.3538C54.652 11.6244 54.7184 11.8359 54.8478 11.9955C54.9772 12.1516 55.1625 12.2313 55.4037 12.2313C55.5296 12.2313 55.638 12.2175 55.7254 12.1897C55.8128 12.162 55.8897 12.1307 55.9527 12.0961C56.0156 12.0614 56.075 12.0302 56.1275 12.0024C56.1799 11.9747 56.2359 11.9608 56.2953 11.9608C56.3722 11.9608 56.4352 11.9781 56.4841 12.0128C56.5331 12.0475 56.5855 12.1065 56.6345 12.1862L57.4212 13.4279C57.0611 13.7123 56.652 13.9239 56.1974 14.0695C55.7429 14.2152 55.2709 14.2846 54.7849 14.2846" fill="white"/>
<path id="Vector_4" d="M61.2079 0.0959473H58.5891V14.1358H61.2079V0.0959473Z" fill="white"/>
<path id="Vector_5" d="M69.8651 14.1357C69.6169 14.1357 69.4316 14.101 69.3022 14.0316C69.1728 13.9623 69.0644 13.8166 68.984 13.5981L68.7742 12.9842C68.526 13.1992 68.2882 13.3831 68.0574 13.5461C67.8267 13.7056 67.5854 13.8409 67.3372 13.9519C67.0889 14.0629 66.8197 14.1461 66.54 14.2016C66.2568 14.2571 65.9456 14.2848 65.6029 14.2848C65.1729 14.2848 64.7813 14.2293 64.4246 14.1149C64.0715 14.0004 63.7638 13.8339 63.5085 13.612C63.2533 13.39 63.054 13.1125 62.9141 12.7796C62.7743 12.4466 62.7043 12.0651 62.7043 11.6316C62.7043 11.2743 62.7953 10.9171 62.9806 10.5633C63.1624 10.2095 63.4806 9.88352 63.9246 9.59218C64.3722 9.30084 64.9666 9.05458 65.7113 8.86383C66.4561 8.6696 67.3861 8.55861 68.5085 8.53434V8.0349C68.5085 7.42447 68.3791 6.97705 68.1204 6.69265C67.8616 6.40825 67.4875 6.26258 67.0015 6.26258C66.6414 6.26258 66.3407 6.3042 66.0994 6.39091C65.8582 6.47415 65.6484 6.56779 65.4666 6.6649C65.2847 6.76202 65.1169 6.85219 64.9596 6.9389C64.8022 7.02214 64.6169 7.06723 64.4071 7.06723C64.2253 7.06723 64.0715 7.02214 63.9456 6.93197C63.8232 6.84179 63.7183 6.73427 63.6379 6.60594L63.1729 5.77701C63.7498 5.2637 64.3862 4.87871 65.0819 4.62206C65.7777 4.3654 66.5295 4.24054 67.3407 4.24054C67.9211 4.24054 68.4421 4.33418 68.9036 4.52147C69.3616 4.70876 69.7497 4.97236 70.0714 5.30879C70.3896 5.64521 70.6378 6.04407 70.8057 6.50883C70.977 6.97359 71.0609 7.48343 71.0609 8.0349V14.1357H69.8651ZM66.4176 12.5333C66.8477 12.5333 67.2253 12.457 67.547 12.3009C67.8686 12.1483 68.1903 11.909 68.505 11.5899V10.0847C67.8651 10.109 67.3337 10.1645 66.9106 10.2442C66.4875 10.3275 66.1484 10.428 65.9001 10.5494C65.6519 10.6708 65.4736 10.813 65.3687 10.9726C65.2638 11.1321 65.2113 11.3055 65.2113 11.4963C65.2113 11.8743 65.3162 12.1414 65.5295 12.2975C65.7428 12.4536 66.0365 12.5333 66.4176 12.5333Z" fill="white"/>
<path id="Vector_6" d="M79.1973 6.42204C79.1273 6.52956 79.0574 6.60587 78.984 6.65095C78.9106 6.69951 78.8127 6.72379 78.6833 6.72379C78.5539 6.72379 78.428 6.69257 78.2952 6.63014C78.1623 6.56771 78.012 6.49835 77.8476 6.42898C77.6833 6.35615 77.4945 6.29025 77.2847 6.22782C77.0714 6.16539 76.8267 6.13417 76.5469 6.13417C76.1239 6.13417 75.7952 6.22088 75.5609 6.3943C75.3267 6.56771 75.2078 6.79316 75.2078 7.07756C75.2078 7.27179 75.2742 7.4348 75.4071 7.56659C75.54 7.69839 75.7148 7.81285 75.9351 7.90996C76.1518 8.00707 76.4001 8.09725 76.6798 8.18396C76.9595 8.2672 77.2427 8.36084 77.5399 8.46142C77.8336 8.56201 78.1204 8.67646 78.4001 8.81173C78.6798 8.94352 78.928 9.10653 79.1448 9.30423C79.3616 9.50192 79.5399 9.74124 79.6728 10.0187C79.8057 10.2996 79.8721 10.6361 79.8721 11.0315C79.8721 11.5032 79.7847 11.9367 79.6099 12.3356C79.435 12.7344 79.1798 13.0778 78.8441 13.3656C78.5085 13.6535 78.0924 13.879 77.5924 14.0454C77.0924 14.2085 76.5155 14.2917 75.8651 14.2917C75.5295 14.2917 75.1973 14.2605 74.8686 14.2015C74.54 14.1426 74.2253 14.0558 73.9281 13.9483C73.6309 13.8373 73.3512 13.7125 73.0924 13.5668C72.8337 13.4211 72.6099 13.2651 72.4176 13.0951L73.026 12.124C73.0959 12.0095 73.1833 11.9228 73.2882 11.8604C73.3931 11.798 73.526 11.7667 73.6903 11.7667C73.8547 11.7667 73.9945 11.8049 74.1274 11.8847C74.2602 11.9644 74.4071 12.0477 74.5749 12.1379C74.7428 12.228 74.9351 12.3147 75.1588 12.391C75.3826 12.4708 75.6623 12.509 75.998 12.509C76.2497 12.509 76.47 12.4812 76.6518 12.4257C76.8336 12.3702 76.984 12.2905 77.0994 12.1933C77.2148 12.0962 77.2987 11.9852 77.3511 11.8639C77.4036 11.7425 77.4316 11.6141 77.4316 11.4823C77.4316 11.2708 77.3651 11.0939 77.2288 10.9586C77.0924 10.8234 76.9141 10.7054 76.6973 10.6049C76.4805 10.5043 76.2288 10.4141 75.942 10.3309C75.6588 10.2476 75.3686 10.1574 75.0749 10.0569C74.7812 9.95628 74.491 9.83835 74.2113 9.69962C73.9281 9.56088 73.6798 9.38747 73.4631 9.1759C73.2463 8.96433 73.0679 8.70768 72.9316 8.39899C72.7952 8.09031 72.7288 7.7192 72.7288 7.27872C72.7288 6.8764 72.8092 6.49488 72.9666 6.13417C73.1239 5.77347 73.3617 5.45438 73.6798 5.17691C73.9945 4.89945 74.3896 4.68094 74.8616 4.51793C75.3337 4.35492 75.8791 4.27515 76.498 4.27515C77.1938 4.27515 77.8266 4.3896 78.3966 4.61504C78.9665 4.84048 79.435 5.13529 79.8022 5.49947L79.2043 6.42204H79.1973Z" fill="white"/>
<path id="Vector_7" d="M90.4383 4.27515C91.1726 4.27515 91.8404 4.39307 92.4418 4.62545C93.0432 4.85783 93.5572 5.18732 93.9907 5.61739C94.4208 6.04746 94.753 6.57118 94.9872 7.18508C95.2215 7.79897 95.3404 8.49264 95.3404 9.26608C95.3404 10.0395 95.225 10.7332 94.9872 11.3505C94.753 11.9679 94.4208 12.4951 93.9907 12.9286C93.5607 13.3622 93.0432 13.6951 92.4418 13.9275C91.8404 14.1599 91.1726 14.2744 90.4383 14.2744C89.7041 14.2744 89.0257 14.1599 88.4208 13.9275C87.816 13.6951 87.2985 13.3622 86.8684 12.9286C86.4383 12.4951 86.1027 11.9679 85.8684 11.3505C85.6307 10.7332 85.5118 10.036 85.5118 9.26608C85.5118 8.49611 85.6307 7.79897 85.8684 7.18508C86.1062 6.57118 86.4383 6.04746 86.8684 5.61739C87.2985 5.18732 87.816 4.85783 88.4208 4.62545C89.0257 4.39307 89.6971 4.27515 90.4383 4.27515ZM90.4383 12.3251C91.1866 12.3251 91.739 12.0685 92.0991 11.5586C92.4593 11.0453 92.6411 10.2858 92.6411 9.27648C92.6411 8.2672 92.4593 7.51457 92.0991 7.00126C91.739 6.49141 91.1866 6.23475 90.4383 6.23475C89.6901 6.23475 89.1096 6.49141 88.7495 7.00126C88.3894 7.51457 88.2076 8.27067 88.2076 9.27648C88.2076 10.2823 88.3894 11.0488 88.7495 11.5586C89.1096 12.072 89.6726 12.3251 90.4383 12.3251Z" fill="white"/>
<path id="Vector_8" d="M97.4419 14.1355V6.29011L96.6831 6.15832C96.4873 6.12016 96.3265 6.0508 96.2041 5.95022C96.0817 5.84963 96.0188 5.70743 96.0188 5.51667V4.47964H97.4419V3.838C97.4419 3.28654 97.5293 2.78363 97.7041 2.33621C97.8789 1.8888 98.1272 1.50728 98.4489 1.1986C98.7705 0.88645 99.1656 0.647136 99.6342 0.477187C100.103 0.307239 100.631 0.223999 101.218 0.223999C101.445 0.223999 101.662 0.237872 101.868 0.265619C102.075 0.293366 102.281 0.334986 102.491 0.393947L102.435 1.67376C102.421 1.86799 102.337 1.99632 102.183 2.05528C102.029 2.11424 101.854 2.14546 101.666 2.14546C101.4 2.14546 101.162 2.1732 100.949 2.22869C100.736 2.28419 100.557 2.3813 100.414 2.51657C100.267 2.65183 100.159 2.83219 100.082 3.06456C100.005 3.29347 99.9663 3.57788 99.9663 3.91777V4.48311H102.396V6.29011H100.05V14.1355H97.4384H97.4419Z" fill="white"/>
<path id="Vector_9" d="M110.952 11.8362H116.277V14.1358H108.102V0.47052H110.952V11.8362Z" fill="white"/>
<path id="Vector_10" d="M120.662 1.66689C120.662 1.88539 120.616 2.09002 120.529 2.27731C120.442 2.4646 120.323 2.63108 120.172 2.77675C120.022 2.92242 119.851 3.03341 119.651 3.11665C119.452 3.19989 119.239 3.23804 119.012 3.23804C118.795 3.23804 118.592 3.19642 118.4 3.11665C118.207 3.03688 118.036 2.92242 117.893 2.77675C117.746 2.63108 117.634 2.4646 117.547 2.27731C117.463 2.09002 117.417 1.88539 117.417 1.66689C117.417 1.44838 117.459 1.24028 117.547 1.04952C117.63 0.858765 117.746 0.688817 117.893 0.546615C118.04 0.400945 118.207 0.289959 118.4 0.206719C118.592 0.126947 118.798 0.0853271 119.012 0.0853271C119.239 0.0853271 119.452 0.126947 119.651 0.206719C119.851 0.289959 120.026 0.400945 120.172 0.546615C120.319 0.692285 120.438 0.858765 120.529 1.04952C120.62 1.24028 120.662 1.44491 120.662 1.66689ZM120.347 14.1355H117.728V4.42768H120.347V14.1355Z" fill="white"/>
<path id="Vector_11" d="M121.536 4.42731H123.71C123.899 4.42731 124.057 4.4724 124.186 4.5591C124.312 4.64581 124.399 4.76027 124.452 4.899L126.095 9.70264C126.203 10.0287 126.298 10.3478 126.378 10.6599C126.462 10.9686 126.536 11.2842 126.598 11.5964C126.668 11.2842 126.745 10.9686 126.829 10.6599C126.913 10.3478 127.015 10.0287 127.13 9.70264L128.829 4.899C128.875 4.76027 128.959 4.64928 129.084 4.5591C129.21 4.4724 129.361 4.42731 129.532 4.42731H131.602L127.756 14.1352H125.382L121.539 4.42731H121.536Z" fill="white"/>
<path id="Vector_12" d="M135.718 1.66689C135.718 1.88539 135.672 2.09002 135.585 2.27731C135.494 2.4646 135.378 2.63108 135.228 2.77675C135.081 2.92242 134.906 3.03341 134.707 3.11665C134.508 3.19989 134.295 3.23804 134.067 3.23804C133.851 3.23804 133.648 3.19642 133.455 3.11665C133.263 3.03688 133.092 2.92242 132.948 2.77675C132.802 2.63108 132.686 2.4646 132.602 2.27731C132.518 2.09002 132.473 1.88539 132.473 1.66689C132.473 1.44838 132.515 1.24028 132.602 1.04952C132.686 0.858765 132.805 0.688817 132.948 0.546615C133.095 0.400945 133.263 0.289959 133.455 0.206719C133.648 0.126947 133.854 0.0853271 134.067 0.0853271C134.295 0.0853271 134.508 0.126947 134.707 0.206719C134.906 0.289959 135.081 0.400945 135.228 0.546615C135.378 0.692285 135.494 0.858765 135.585 1.04952C135.672 1.24028 135.718 1.44491 135.718 1.66689ZM135.403 14.1355H132.784V4.42768H135.403V14.1355Z" fill="white"/>
<path id="Vector_13" d="M137.648 14.1356V4.42775H139.26C139.588 4.42775 139.809 4.57689 139.913 4.87864L140.074 5.55496C140.27 5.36767 140.473 5.19425 140.686 5.03818C140.899 4.8821 141.123 4.74684 141.361 4.63238C141.599 4.51793 141.854 4.43122 142.13 4.36879C142.406 4.30636 142.704 4.27515 143.029 4.27515C143.56 4.27515 144.032 4.36532 144.445 4.54914C144.857 4.7295 145.204 4.98615 145.483 5.31218C145.763 5.6382 145.976 6.02665 146.12 6.48101C146.263 6.93189 146.333 7.42786 146.333 7.96892V14.1356H143.721V7.96892C143.721 7.42786 143.595 7.01166 143.34 6.71338C143.088 6.41511 142.714 6.26597 142.221 6.26597C141.847 6.26597 141.501 6.34574 141.183 6.50528C140.864 6.66483 140.557 6.88333 140.267 7.1608V14.1391H137.648V14.1356Z" fill="white"/>
<path id="Vector_14" d="M152.057 4.25763C152.473 4.25763 152.868 4.29925 153.239 4.38596C153.609 4.47267 153.948 4.59059 154.26 4.75013H157.137V5.70046C157.137 5.84959 157.095 5.97099 157.008 6.05769C156.924 6.1444 156.78 6.2103 156.585 6.25539L155.787 6.41493C155.896 6.72361 155.948 7.05311 155.948 7.40341C155.948 7.88551 155.85 8.32252 155.651 8.7075C155.452 9.09249 155.179 9.42198 154.829 9.69598C154.483 9.96997 154.071 10.1781 153.595 10.3272C153.12 10.4764 152.609 10.5492 152.057 10.5492C151.885 10.5492 151.718 10.5422 151.553 10.5284C151.389 10.5145 151.228 10.4972 151.067 10.4729C150.808 10.629 150.679 10.8058 150.679 11.0001C150.679 11.1839 150.77 11.3157 150.948 11.3955C151.13 11.4787 151.368 11.5342 151.662 11.5689C151.955 11.6036 152.291 11.6244 152.669 11.6348C153.046 11.6452 153.427 11.666 153.815 11.6972C154.204 11.7284 154.588 11.7839 154.966 11.8637C155.343 11.9435 155.676 12.0718 155.973 12.2487C156.266 12.4256 156.504 12.6649 156.686 12.9597C156.864 13.2545 156.955 13.636 156.955 14.1008C156.955 14.5343 156.847 14.954 156.634 15.3632C156.417 15.7725 156.106 16.1367 155.7 16.4558C155.291 16.7748 154.791 17.035 154.197 17.2292C153.602 17.4234 152.924 17.5205 152.165 17.5205C151.406 17.5205 150.76 17.4512 150.204 17.309C149.648 17.1668 149.19 16.9795 148.826 16.7436C148.462 16.5078 148.19 16.2373 148.015 15.9286C147.836 15.6199 147.749 15.3008 147.749 14.9678C147.749 14.5343 147.882 14.1667 148.148 13.8649C148.413 13.5632 148.777 13.3204 149.239 13.14C148.99 13.0013 148.795 12.8209 148.651 12.599C148.504 12.377 148.434 12.0857 148.434 11.7284C148.434 11.4405 148.539 11.1353 148.753 10.8197C148.966 10.5041 149.288 10.237 149.725 10.0255C149.225 9.75494 148.829 9.3977 148.543 8.95722C148.253 8.51327 148.109 7.99996 148.109 7.40688C148.109 6.92478 148.211 6.48777 148.41 6.09931C148.609 5.71086 148.885 5.3779 149.242 5.10737C149.595 4.83337 150.015 4.62527 150.494 4.4796C150.976 4.33393 151.497 4.26457 152.06 4.26457M154.539 14.5378C154.539 14.3678 154.487 14.2291 154.378 14.125C154.27 14.0175 154.127 13.9343 153.945 13.8718C153.763 13.8094 153.55 13.7643 153.305 13.7366C153.057 13.7088 152.794 13.6846 152.518 13.6707C152.239 13.6533 151.952 13.6429 151.651 13.6291C151.35 13.6152 151.057 13.5944 150.774 13.5632C150.553 13.695 150.371 13.851 150.232 14.0279C150.092 14.2083 150.022 14.4094 150.022 14.6349C150.022 14.791 150.06 14.9366 150.13 15.0684C150.204 15.2002 150.326 15.3147 150.497 15.4083C150.669 15.502 150.892 15.5748 151.172 15.6303C151.452 15.6823 151.798 15.7101 152.218 15.7101C152.637 15.7101 153.011 15.6823 153.308 15.6268C153.606 15.5713 153.847 15.4916 154.029 15.3875C154.211 15.2835 154.343 15.1586 154.424 15.0164C154.504 14.8707 154.543 14.7147 154.543 14.5447M152.064 8.93294C152.602 8.93294 152.997 8.79768 153.256 8.52715C153.511 8.25662 153.641 7.90978 153.641 7.48318C153.641 7.05657 153.511 6.68893 153.256 6.43227C153.001 6.17562 152.602 6.05076 152.064 6.05076C151.525 6.05076 151.13 6.17909 150.878 6.43227C150.627 6.68546 150.501 7.03576 150.501 7.48318C150.501 7.90285 150.63 8.24968 150.885 8.52368C151.141 8.79768 151.536 8.93294 152.067 8.93294" fill="white"/>
<path id="Vector_15" d="M174.784 14.1358H172.571C172.322 14.1358 172.123 14.0768 171.969 13.9623C171.812 13.8479 171.7 13.6987 171.623 13.5149L170.693 10.9067H165.207L164.277 13.5149C164.214 13.671 164.102 13.8132 163.945 13.9415C163.787 14.0699 163.588 14.1358 163.347 14.1358H161.116L166.497 0.47052H169.41L174.784 14.1358ZM165.899 8.94713H170.001L168.511 4.76778C168.424 4.54928 168.329 4.28915 168.231 3.99435C168.134 3.69954 168.036 3.38045 167.941 3.04402C167.854 3.39086 167.759 3.70994 167.665 4.00822C167.571 4.3065 167.48 4.56662 167.389 4.78513L165.899 8.94713Z" fill="white"/>
<path id="Vector_16" d="M178.011 4.42761V10.5978C178.011 11.1388 178.137 11.555 178.385 11.8533C178.633 12.1516 179.007 12.3007 179.5 12.3007C179.868 12.3007 180.214 12.221 180.535 12.0614C180.857 11.9019 181.165 11.6834 181.455 11.4059V4.42761H184.074V14.1355H182.459C182.123 14.1355 181.91 13.9829 181.812 13.6846L181.64 13.0083C181.249 13.3898 180.819 13.7019 180.354 13.9343C179.889 14.1702 179.336 14.2881 178.696 14.2881C178.165 14.2881 177.689 14.1979 177.277 14.0141C176.864 13.8337 176.515 13.5771 176.238 13.251C175.959 12.925 175.749 12.5366 175.602 12.0822C175.455 11.6313 175.382 11.1354 175.382 10.5943V4.42761H178.004H178.011Z" fill="white"/>
<path id="Vector_17" d="M192.326 6.42204C192.256 6.52956 192.186 6.60587 192.112 6.65095C192.039 6.69951 191.941 6.72379 191.815 6.72379C191.689 6.72379 191.56 6.69257 191.427 6.63014C191.294 6.56771 191.147 6.49835 190.979 6.42898C190.815 6.35615 190.626 6.29025 190.413 6.22782C190.2 6.16539 189.955 6.13417 189.679 6.13417C189.256 6.13417 188.927 6.22088 188.693 6.3943C188.458 6.56771 188.34 6.79316 188.34 7.07756C188.34 7.27179 188.406 7.4348 188.539 7.56659C188.672 7.69839 188.847 7.81285 189.067 7.90996C189.287 8.00707 189.535 8.09725 189.812 8.18396C190.091 8.2672 190.378 8.36084 190.672 8.46142C190.965 8.56201 191.252 8.67646 191.532 8.81173C191.808 8.94352 192.06 9.10653 192.277 9.30423C192.497 9.50192 192.672 9.74124 192.805 10.0187C192.937 10.2996 193.004 10.6361 193.004 11.0315C193.004 11.5032 192.916 11.9367 192.742 12.3356C192.567 12.7344 192.312 13.0778 191.979 13.3656C191.644 13.6535 191.228 13.879 190.728 14.0454C190.228 14.2085 189.651 14.2917 189 14.2917C188.665 14.2917 188.333 14.2605 188.004 14.2015C187.675 14.1426 187.361 14.0558 187.063 13.9483C186.766 13.8373 186.486 13.7125 186.228 13.5668C185.969 13.4211 185.742 13.2651 185.553 13.0951L186.161 12.124C186.231 12.0095 186.319 11.9228 186.424 11.8604C186.528 11.798 186.661 11.7667 186.826 11.7667C186.99 11.7667 187.13 11.8049 187.263 11.8847C187.396 11.9644 187.542 12.0477 187.71 12.1379C187.878 12.228 188.07 12.3147 188.294 12.391C188.518 12.4708 188.798 12.509 189.133 12.509C189.385 12.509 189.605 12.4812 189.787 12.4257C189.969 12.3702 190.119 12.2905 190.235 12.1933C190.35 12.0962 190.43 11.9852 190.486 11.8639C190.539 11.7425 190.567 11.6141 190.567 11.4823C190.567 11.2708 190.497 11.0939 190.364 10.9586C190.228 10.8234 190.049 10.7054 189.833 10.6049C189.616 10.5043 189.364 10.4141 189.077 10.3309C188.794 10.2476 188.504 10.1574 188.21 10.0569C187.917 9.95628 187.626 9.83835 187.347 9.69962C187.067 9.56088 186.815 9.38747 186.598 9.1759C186.382 8.96433 186.203 8.70768 186.067 8.39899C185.931 8.09031 185.864 7.7192 185.864 7.27872C185.864 6.8764 185.945 6.49488 186.102 6.13417C186.259 5.77347 186.497 5.45438 186.815 5.17691C187.13 4.89945 187.525 4.68094 187.997 4.51793C188.469 4.35492 189.014 4.27515 189.633 4.27515C190.329 4.27515 190.962 4.3896 191.532 4.61504C192.102 4.84048 192.57 5.13529 192.937 5.49947L192.34 6.42204H192.326Z" fill="white"/>
<path id="Vector_18" d="M198.021 14.2846C197.577 14.2846 197.186 14.2187 196.843 14.0904C196.5 13.962 196.214 13.7782 195.979 13.5389C195.745 13.2996 195.567 13.0117 195.448 12.6718C195.329 12.3319 195.266 11.9504 195.266 11.5238V6.28661H194.347C194.207 6.28661 194.088 6.24152 193.99 6.15481C193.892 6.0681 193.843 5.93631 193.843 5.75942V4.7432L195.409 4.4588L195.941 1.94425C196.011 1.66332 196.203 1.52112 196.521 1.52112H197.888V4.47961H200.413V6.28661H197.888V11.3538C197.888 11.6244 197.955 11.8359 198.084 11.9955C198.214 12.1516 198.399 12.2313 198.64 12.2313C198.766 12.2313 198.874 12.2175 198.962 12.1897C199.049 12.162 199.126 12.1307 199.189 12.0961C199.252 12.0614 199.311 12.0302 199.364 12.0024C199.416 11.9747 199.472 11.9608 199.532 11.9608C199.609 11.9608 199.672 11.9781 199.721 12.0128C199.773 12.0475 199.822 12.1065 199.871 12.1862L200.658 13.4279C200.298 13.7123 199.888 13.9239 199.434 14.0695C198.979 14.2152 198.507 14.2846 198.021 14.2846Z" fill="white"/>
<path id="Vector_19" d="M201.808 14.1355V4.4276H203.353C203.619 4.4276 203.801 4.47615 203.906 4.5698C204.007 4.66344 204.081 4.82645 204.123 5.05883L204.256 6.02997C204.567 5.4785 204.923 5.04149 205.332 4.7224C205.742 4.40332 206.217 4.24377 206.759 4.24377C207.203 4.24377 207.563 4.34782 207.843 4.55592L207.672 6.47738C207.64 6.60224 207.591 6.68895 207.525 6.73751C207.458 6.78606 207.367 6.80687 207.255 6.80687C207.154 6.80687 207.007 6.793 206.818 6.76525C206.63 6.73751 206.451 6.72363 206.287 6.72363C205.804 6.72363 205.423 6.85543 205.144 7.11555C204.864 7.37568 204.623 7.73985 204.427 8.20461V14.1459H201.808V14.1355Z" fill="white"/>
<path id="Vector_20" d="M215.329 14.1357C215.081 14.1357 214.895 14.101 214.762 14.0316C214.633 13.9623 214.528 13.8166 214.444 13.5981L214.235 12.9842C213.986 13.1992 213.749 13.3831 213.518 13.5461C213.287 13.7056 213.046 13.8409 212.797 13.9519C212.546 14.0629 212.28 14.1461 212 14.2016C211.721 14.2571 211.406 14.2848 211.067 14.2848C210.637 14.2848 210.245 14.2293 209.888 14.1149C209.535 14.0004 209.228 13.8339 208.972 13.612C208.717 13.39 208.518 13.1125 208.378 12.7796C208.238 12.4466 208.168 12.0651 208.168 11.6316C208.168 11.2743 208.259 10.9171 208.444 10.5633C208.626 10.2095 208.941 9.88352 209.388 9.59218C209.836 9.30084 210.43 9.05458 211.175 8.86383C211.92 8.6696 212.85 8.55861 213.969 8.53434V8.0349C213.969 7.42447 213.839 6.97705 213.581 6.69265C213.322 6.40825 212.948 6.26258 212.462 6.26258C212.102 6.26258 211.801 6.3042 211.56 6.39091C211.318 6.47415 211.109 6.56779 210.927 6.6649C210.745 6.76202 210.577 6.85219 210.42 6.9389C210.263 7.02214 210.077 7.06723 209.867 7.06723C209.682 7.06723 209.532 7.02214 209.406 6.93197C209.284 6.84179 209.179 6.73427 209.098 6.60594L208.633 5.77701C209.21 5.2637 209.843 4.87871 210.542 4.62206C211.242 4.3654 211.993 4.24054 212.801 4.24054C213.385 4.24054 213.902 4.33418 214.364 4.52147C214.822 4.70876 215.214 4.97236 215.532 5.30879C215.85 5.64521 216.095 6.04407 216.266 6.50883C216.437 6.97359 216.521 7.48343 216.521 8.0349V14.1357H215.325H215.329ZM211.885 12.5333C212.315 12.5333 212.693 12.457 213.014 12.3009C213.336 12.1483 213.658 11.909 213.972 11.5899V10.0847C213.332 10.109 212.801 10.1645 212.378 10.2442C211.955 10.3275 211.616 10.428 211.367 10.5494C211.116 10.6708 210.941 10.813 210.836 10.9726C210.731 11.1321 210.679 11.3055 210.679 11.4963C210.679 11.8743 210.784 12.1414 210.997 12.2975C211.21 12.4536 211.504 12.5333 211.885 12.5333Z" fill="white"/>
<path id="Vector_21" d="M221.21 0.0959473H218.591V14.1358H221.21V0.0959473Z" fill="white"/>
<path id="Vector_22" d="M226.406 1.66689C226.406 1.88539 226.36 2.09002 226.273 2.27731C226.185 2.4646 226.067 2.63108 225.916 2.77675C225.769 2.92242 225.595 3.03341 225.395 3.11665C225.196 3.19989 224.983 3.23804 224.755 3.23804C224.539 3.23804 224.336 3.19642 224.143 3.11665C223.951 3.03688 223.783 2.92242 223.636 2.77675C223.49 2.63108 223.374 2.4646 223.29 2.27731C223.206 2.09002 223.161 1.88539 223.161 1.66689C223.161 1.44838 223.203 1.24028 223.29 1.04952C223.374 0.858765 223.493 0.688817 223.636 0.546615C223.783 0.400945 223.951 0.289959 224.143 0.206719C224.336 0.126947 224.542 0.0853271 224.755 0.0853271C224.983 0.0853271 225.196 0.126947 225.395 0.206719C225.595 0.289959 225.769 0.400945 225.916 0.546615C226.067 0.692285 226.185 0.858765 226.273 1.04952C226.364 1.24028 226.406 1.44491 226.406 1.66689ZM226.091 14.1355H223.472V4.42768H226.091V14.1355Z" fill="white"/>
<path id="Vector_23" d="M234.808 14.1357C234.559 14.1357 234.374 14.101 234.241 14.0316C234.112 13.9623 234.007 13.8166 233.923 13.5981L233.713 12.9842C233.465 13.1992 233.227 13.3831 232.997 13.5461C232.766 13.7056 232.524 13.8409 232.276 13.9519C232.024 14.0629 231.759 14.1461 231.479 14.2016C231.199 14.2571 230.885 14.2848 230.545 14.2848C230.115 14.2848 229.724 14.2293 229.367 14.1149C229.014 14.0004 228.706 13.8339 228.451 13.612C228.196 13.39 227.997 13.1125 227.857 12.7796C227.717 12.4466 227.647 12.0651 227.647 11.6316C227.647 11.2743 227.738 10.9171 227.923 10.5633C228.105 10.2095 228.42 9.88352 228.867 9.59218C229.315 9.30084 229.909 9.05458 230.654 8.86383C231.399 8.6696 232.329 8.55861 233.448 8.53434V8.0349C233.448 7.42447 233.318 6.97705 233.059 6.69265C232.801 6.40825 232.427 6.26258 231.941 6.26258C231.58 6.26258 231.28 6.3042 231.038 6.39091C230.797 6.47415 230.587 6.56779 230.406 6.6649C230.224 6.76202 230.056 6.85219 229.899 6.9389C229.741 7.02214 229.556 7.06723 229.346 7.06723C229.161 7.06723 229.011 7.02214 228.885 6.93197C228.762 6.84179 228.657 6.73427 228.577 6.60594L228.112 5.77701C228.689 5.2637 229.325 4.87871 230.021 4.62206C230.717 4.36887 231.472 4.24054 232.28 4.24054C232.864 4.24054 233.381 4.33418 233.843 4.52147C234.301 4.70876 234.689 4.97236 235.01 5.30879C235.329 5.64521 235.577 6.04407 235.745 6.50883C235.916 6.97359 236 7.48343 236 8.0349V14.1357H234.804H234.808ZM231.364 12.5333C231.794 12.5333 232.171 12.457 232.493 12.3009C232.815 12.1483 233.136 11.909 233.451 11.5899V10.0847C232.811 10.109 232.28 10.1645 231.857 10.2442C231.434 10.3275 231.094 10.428 230.846 10.5494C230.594 10.6708 230.42 10.813 230.315 10.9726C230.21 11.1321 230.157 11.3055 230.157 11.4963C230.157 11.8743 230.262 12.1414 230.476 12.2975C230.689 12.4536 230.983 12.5333 231.364 12.5333Z" fill="white"/>
<path id="Vector_24" d="M43.9702 30.5962C43.7814 30.5962 43.6625 30.5095 43.6206 30.3326L43.4877 29.136C43.2289 29.3858 42.9702 29.6147 42.715 29.8124C42.4597 30.0135 42.1905 30.1835 41.9143 30.3222C41.6346 30.4609 41.3374 30.565 41.0122 30.6378C40.6905 30.7107 40.3339 30.7453 39.9493 30.7453C39.6276 30.7453 39.3129 30.6968 39.0087 30.6031C38.7045 30.5095 38.4353 30.3638 38.201 30.1696C37.9668 29.9754 37.7779 29.7257 37.6381 29.4204C37.4947 29.1152 37.4248 28.751 37.4248 28.3244C37.4248 27.9291 37.5402 27.5614 37.7675 27.2215C37.9947 26.8816 38.3514 26.5868 38.8339 26.3371C39.3199 26.0874 39.9423 25.8862 40.7045 25.7336C41.4667 25.5845 42.3828 25.4943 43.4527 25.47V24.4919C43.4527 23.6249 43.2639 22.9589 42.8863 22.4907C42.5087 22.0225 41.9527 21.7901 41.2115 21.7901C40.7569 21.7901 40.3688 21.8525 40.0472 21.9774C39.729 22.1023 39.4563 22.241 39.236 22.3936C39.0157 22.5427 38.8339 22.6815 38.694 22.8063C38.5542 22.9312 38.4388 22.9936 38.3409 22.9936C38.215 22.9936 38.1206 22.9381 38.0542 22.8237L37.8933 22.5497C38.3863 22.0606 38.9073 21.6895 39.4493 21.4363C39.9947 21.1866 40.6101 21.0583 41.2989 21.0583C41.8059 21.0583 42.2499 21.1381 42.6276 21.2976C43.0087 21.4571 43.3234 21.6861 43.5716 21.9843C43.8234 22.2826 44.0087 22.6433 44.138 23.0665C44.2639 23.4896 44.3268 23.9613 44.3268 24.485V30.5858H43.9667L43.9702 30.5962ZM40.173 30.0968C40.5402 30.0968 40.8758 30.0586 41.1835 29.9788C41.4912 29.8991 41.7744 29.7915 42.0367 29.6493C42.2989 29.5071 42.5436 29.3407 42.7709 29.1464C42.9982 28.9522 43.222 28.7406 43.4457 28.5152V26.077C42.5471 26.1012 41.7744 26.1706 41.1241 26.2781C40.4737 26.3891 39.9388 26.5383 39.5192 26.7255C39.0996 26.9128 38.7884 27.1383 38.5891 27.3984C38.3898 27.6585 38.2919 27.9568 38.2919 28.2898C38.2919 28.6019 38.3444 28.8759 38.4493 29.1048C38.5542 29.3337 38.6905 29.521 38.8619 29.6702C39.0332 29.8193 39.2325 29.9268 39.4598 29.9962C39.687 30.0655 39.9248 30.1002 40.173 30.1002" fill="#F26649"/>
<path id="Vector_25" d="M48.3443 16.8961H47.4422V30.596H48.3443V16.8961Z" fill="#F26649"/>
<path id="Vector_26" d="M57.7149 30.5962C57.5261 30.5962 57.4072 30.5095 57.3652 30.3326L57.2324 29.136C56.9736 29.3858 56.7149 29.6147 56.4597 29.8124C56.2044 30.0135 55.9352 30.1835 55.659 30.3222C55.3792 30.4609 55.0786 30.565 54.7569 30.6378C54.4352 30.7107 54.0786 30.7453 53.6939 30.7453C53.3723 30.7453 53.0576 30.6968 52.7534 30.6031C52.4492 30.5095 52.18 30.3638 51.9457 30.1696C51.7114 29.9754 51.5226 29.7257 51.3828 29.4204C51.2394 29.1152 51.1695 28.751 51.1695 28.3244C51.1695 27.9291 51.2849 27.5614 51.5121 27.2215C51.7394 26.8816 52.0961 26.5868 52.5786 26.3371C53.0611 26.0874 53.687 25.8862 54.4492 25.7336C55.2114 25.5845 56.1275 25.4943 57.1974 25.47V24.4919C57.1974 23.6249 57.0086 22.9589 56.631 22.4907C56.2534 22.0225 55.6974 21.7901 54.9562 21.7901C54.5016 21.7901 54.1135 21.8525 53.7918 21.9774C53.4737 22.1023 53.2009 22.241 52.9807 22.3936C52.7604 22.5427 52.5786 22.6815 52.4387 22.8063C52.2989 22.9312 52.1835 22.9936 52.0856 22.9936C51.9597 22.9936 51.8653 22.9381 51.8024 22.8237L51.6415 22.5497C52.1345 22.0606 52.6555 21.6895 53.1974 21.4363C53.7429 21.1866 54.3583 21.0583 55.0471 21.0583C55.5541 21.0583 55.9981 21.1381 56.3757 21.2976C56.7569 21.4571 57.0715 21.6861 57.3198 21.9843C57.5715 22.2826 57.7568 22.6433 57.8862 23.0665C58.0121 23.4896 58.075 23.9613 58.075 24.485V30.5858H57.7149V30.5962ZM53.9177 30.0968C54.2849 30.0968 54.6205 30.0586 54.9282 29.9788C55.2359 29.8991 55.5191 29.7915 55.7813 29.6493C56.0436 29.5071 56.2883 29.3407 56.5156 29.1464C56.7429 28.9522 56.9666 28.7406 57.1904 28.5152V26.077C56.2918 26.1012 55.5191 26.1706 54.8688 26.2781C54.2184 26.3891 53.6835 26.5383 53.2639 26.7255C52.8443 26.9128 52.5331 27.1383 52.3338 27.3984C52.1345 27.6585 52.0331 27.9568 52.0331 28.2898C52.0331 28.6019 52.0856 28.8759 52.1905 29.1048C52.2954 29.3337 52.4317 29.521 52.603 29.6702C52.7744 29.8193 52.9737 29.9268 53.2009 29.9962C53.4282 30.0655 53.666 30.1002 53.9142 30.1002" fill="#F26649"/>
<path id="Vector_27" d="M60.3826 29.8714C60.3826 29.7535 60.4036 29.639 60.4491 29.5315C60.4945 29.424 60.554 29.3338 60.6344 29.254C60.7148 29.1743 60.8057 29.1118 60.9106 29.0667C61.0155 29.0182 61.1309 28.9974 61.2567 28.9974C61.3756 28.9974 61.491 29.0217 61.5994 29.0667C61.7078 29.1153 61.7987 29.1777 61.8791 29.254C61.9595 29.3338 62.0225 29.4274 62.0679 29.5315C62.1134 29.639 62.1379 29.75 62.1379 29.8714C62.1379 29.9963 62.1134 30.1107 62.0679 30.2148C62.019 30.3188 61.956 30.409 61.8791 30.4888C61.7987 30.5685 61.7078 30.6275 61.5994 30.6726C61.491 30.7177 61.3791 30.7385 61.2567 30.7385C61.0085 30.7385 60.8022 30.6552 60.6344 30.4888C60.4665 30.3223 60.3826 30.1176 60.3826 29.8714Z" fill="#F26649"/>
<path id="Vector_28" d="M68.2707 21.0758C68.9491 21.0758 69.554 21.1903 70.0889 21.4192C70.6239 21.6481 71.0749 21.9741 71.4421 22.3938C71.8092 22.8134 72.0889 23.3198 72.2812 23.9164C72.4735 24.5129 72.5714 25.1719 72.5714 25.9072C72.5714 26.6425 72.4735 27.3049 72.2812 27.8945C72.0889 28.4842 71.8092 28.9905 71.4421 29.4102C71.0749 29.8299 70.6239 30.1524 70.0889 30.3813C69.554 30.6068 68.9491 30.7212 68.2707 30.7212C67.5924 30.7212 66.9875 30.6068 66.4526 30.3813C65.9176 30.1559 65.4666 29.8333 65.0959 29.4102C64.7253 28.9905 64.4456 28.4842 64.2498 27.8945C64.0575 27.3049 63.9596 26.6425 63.9596 25.9072C63.9596 25.1719 64.0575 24.5095 64.2498 23.9164C64.4421 23.3233 64.7253 22.8169 65.0959 22.3938C65.4666 21.9741 65.9176 21.6481 66.4526 21.4192C66.9875 21.1903 67.5924 21.0758 68.2707 21.0758ZM68.2707 30.0102C68.8337 30.0102 69.3267 29.9131 69.7463 29.7224C70.1658 29.5316 70.519 29.2541 70.7987 28.8969C71.0784 28.5397 71.2917 28.1061 71.4316 27.6032C71.5714 27.0968 71.6413 26.5315 71.6413 25.9037C71.6413 25.276 71.5714 24.7176 71.4316 24.2077C71.2917 23.6979 71.0819 23.2643 70.7987 22.9036C70.519 22.5429 70.1658 22.2654 69.7463 22.0712C69.3267 21.877 68.8337 21.7799 68.2707 21.7799C67.7078 21.7799 67.2148 21.877 66.7952 22.0712C66.3757 22.2654 66.0225 22.5429 65.7428 22.9036C65.4596 23.2643 65.2498 23.6979 65.1064 24.2077C64.9631 24.7176 64.8932 25.2829 64.8932 25.9037C64.8932 26.5246 64.9631 27.0968 65.1064 27.6032C65.2498 28.1096 65.4596 28.5397 65.7428 28.8969C66.026 29.2541 66.3757 29.5281 66.7952 29.7224C67.2148 29.9166 67.7078 30.0102 68.2707 30.0102Z" fill="#F26649"/>
<path id="Vector_29" d="M74.9455 30.5964V21.2284H75.421C75.5294 21.2284 75.6063 21.2492 75.6553 21.2943C75.7042 21.3394 75.7287 21.4122 75.7357 21.5197L75.8126 23.4967C76.1168 22.7371 76.5224 22.144 77.0294 21.714C77.5364 21.2839 78.1588 21.0688 78.9 21.0688C79.1832 21.0688 79.449 21.0966 79.6867 21.159C79.928 21.218 80.1552 21.3047 80.372 21.4191L80.2496 22.04C80.2322 22.1406 80.1657 22.1891 80.0608 22.1891C80.0224 22.1891 79.9699 22.1752 79.9 22.151C79.8301 22.1267 79.7427 22.0989 79.6378 22.0643C79.5329 22.033 79.4035 22.0053 79.2531 21.981C79.1028 21.9567 78.928 21.9429 78.7322 21.9429C78.0154 21.9429 77.428 22.1614 76.97 22.6019C76.5119 23.0423 76.1378 23.6736 75.8546 24.5025V30.5964H74.9525H74.9455Z" fill="#F26649"/>
<path id="Vector_30" d="M85.5957 21.0652C86.0083 21.0652 86.3894 21.1172 86.7391 21.2178C87.0887 21.3184 87.4069 21.4606 87.6831 21.641H90.1027V21.9496C90.1027 22.1057 90.0153 22.1924 89.837 22.2028L88.4034 22.3069C88.5817 22.5462 88.7181 22.8133 88.8125 23.1115C88.9069 23.4098 88.9559 23.7289 88.9559 24.0688C88.9559 24.5197 88.8719 24.9324 88.7076 25.2966C88.5433 25.6642 88.3125 25.9764 88.0188 26.2365C87.7251 26.4966 87.372 26.6978 86.9594 26.8435C86.5468 26.9891 86.0922 27.0585 85.5922 27.0585C85.0468 27.0585 84.5538 26.9787 84.1097 26.8123C83.844 26.9614 83.6342 27.1417 83.4839 27.3498C83.3335 27.5579 83.2566 27.7591 83.2566 27.9533C83.2566 28.2239 83.351 28.432 83.5433 28.5742C83.7321 28.7198 83.9839 28.8239 84.2986 28.8898C84.6132 28.9557 84.9699 28.9973 85.372 29.0181C85.7741 29.0355 86.1831 29.0563 86.5957 29.0805C87.0083 29.1048 87.4174 29.143 87.8195 29.1985C88.2216 29.254 88.5782 29.3545 88.8929 29.4967C89.2076 29.6389 89.4593 29.8366 89.6482 30.0898C89.837 30.343 89.9314 30.6794 89.9314 31.1026C89.9314 31.491 89.8335 31.8656 89.6377 32.2229C89.4419 32.5801 89.1586 32.8957 88.788 33.1732C88.4174 33.4472 87.9698 33.6691 87.4454 33.8356C86.9209 34.0021 86.3335 34.0853 85.6797 34.0853C85.0258 34.0853 84.4314 34.0194 83.9349 33.8842C83.4349 33.7489 83.0153 33.5686 82.6762 33.3397C82.337 33.1107 82.0818 32.8472 81.9105 32.5419C81.7391 32.2402 81.6552 31.9211 81.6552 31.5812C81.6552 31.0852 81.8195 30.6586 82.1482 30.3014C82.4769 29.9442 82.9279 29.6667 83.5049 29.4725C83.1867 29.3649 82.9384 29.2123 82.7496 29.0112C82.5643 28.81 82.4699 28.5325 82.4699 28.1718C82.4699 28.04 82.4944 27.9013 82.5468 27.7556C82.5958 27.61 82.6727 27.4678 82.7741 27.3256C82.8755 27.1834 82.9979 27.0516 83.1412 26.9267C83.2846 26.8018 83.4489 26.6874 83.6377 26.5868C83.1867 26.3302 82.837 25.9868 82.5888 25.5602C82.337 25.1336 82.2147 24.6341 82.2147 24.0619C82.2147 23.611 82.2951 23.2017 82.4559 22.8341C82.6167 22.4664 82.844 22.1508 83.1412 21.8872C83.4349 21.6236 83.7916 21.419 84.2076 21.2733C84.6272 21.1277 85.0888 21.0583 85.5922 21.0583M89.0957 31.2205C89.0957 30.9257 89.0188 30.6898 88.8614 30.5095C88.7076 30.3291 88.4978 30.1904 88.2391 30.0898C87.9803 29.9892 87.6796 29.9199 87.3405 29.8783C87.0013 29.8366 86.6482 29.8089 86.2776 29.7881C85.9069 29.7707 85.5363 29.7499 85.1622 29.7326C84.7881 29.7152 84.4419 29.6771 84.1167 29.6181C83.8755 29.7118 83.6517 29.8193 83.4489 29.9442C83.2426 30.0655 83.0678 30.2043 82.9209 30.3569C82.7741 30.5095 82.6622 30.6794 82.5783 30.8667C82.4979 31.0506 82.4559 31.2552 82.4559 31.4737C82.4559 31.7512 82.5258 32.0078 82.6692 32.2402C82.8125 32.476 83.0223 32.6807 83.2951 32.8541C83.5713 33.0275 83.9069 33.1628 84.3055 33.2634C84.7041 33.3639 85.1622 33.4125 85.6832 33.4125C86.1657 33.4125 86.6132 33.3605 87.0258 33.2529C87.4384 33.1454 87.802 32.9963 88.1097 32.8021C88.4174 32.6078 88.6587 32.3755 88.83 32.1049C89.0048 31.8344 89.0922 31.5396 89.0922 31.2205M85.5887 26.4446C85.9943 26.4446 86.3545 26.3856 86.6692 26.2712C86.9873 26.1567 87.2531 25.9937 87.4664 25.7856C87.6831 25.5775 87.844 25.3313 87.9559 25.0434C88.0677 24.7555 88.1237 24.433 88.1237 24.0827C88.1237 23.7324 88.0677 23.4098 87.9524 23.1185C87.837 22.8271 87.6726 22.5774 87.4559 22.3693C87.2391 22.1612 86.9734 22.0017 86.6587 21.8872C86.344 21.7728 85.9873 21.7173 85.5922 21.7173C85.1971 21.7173 84.837 21.7728 84.5188 21.8872C84.2006 22.0017 83.9349 22.1612 83.7181 22.3693C83.5014 22.5774 83.3335 22.8271 83.2181 23.1185C83.1062 23.4098 83.0468 23.7324 83.0468 24.0827C83.0468 24.433 83.1028 24.7555 83.2181 25.0434C83.3335 25.3313 83.4979 25.581 83.7181 25.7856C83.9349 25.9937 84.2041 26.1533 84.5188 26.2712C84.8335 26.3856 85.1936 26.4446 85.5922 26.4446" fill="#F26649"/>
<path id="Vector_31" d="M91.5187 29.8714C91.5187 29.7535 91.5397 29.639 91.5852 29.5315C91.6306 29.424 91.6901 29.3338 91.7705 29.254C91.8509 29.1743 91.9418 29.1118 92.0467 29.0667C92.1516 29.0182 92.267 28.9974 92.3929 28.9974C92.5117 28.9974 92.6271 29.0217 92.7355 29.0667C92.8439 29.1153 92.9383 29.1777 93.0152 29.254C93.0956 29.3338 93.1586 29.4274 93.204 29.5315C93.253 29.639 93.274 29.75 93.274 29.8714C93.274 29.9963 93.2495 30.1107 93.204 30.2148C93.1551 30.3188 93.0922 30.409 93.0152 30.4888C92.9348 30.5685 92.8439 30.6275 92.7355 30.6726C92.6271 30.7177 92.5152 30.7385 92.3929 30.7385C92.1446 30.7385 91.9383 30.6552 91.7705 30.4888C91.6027 30.3223 91.5187 30.1176 91.5187 29.8714Z" fill="#F26649"/>
<path id="Vector_32" d="M101.837 30.5962C101.648 30.5962 101.529 30.5095 101.484 30.3326L101.351 29.136C101.092 29.3858 100.833 29.6147 100.578 29.8124C100.323 30.0135 100.054 30.1835 99.7775 30.3222C99.4978 30.4609 99.2006 30.565 98.8754 30.6378C98.5537 30.7107 98.1971 30.7453 97.8125 30.7453C97.4908 30.7453 97.1761 30.6968 96.8719 30.6031C96.5677 30.5095 96.2985 30.3638 96.0642 30.1696C95.83 29.9754 95.6412 29.7257 95.5013 29.4204C95.358 29.1152 95.288 28.751 95.288 28.3244C95.288 27.9291 95.4034 27.5614 95.6307 27.2215C95.858 26.8816 96.2146 26.5868 96.6971 26.3371C97.1831 26.0874 97.8055 25.8862 98.5677 25.7336C99.33 25.5845 100.246 25.4943 101.316 25.47V24.4919C101.316 23.6249 101.127 22.9589 100.75 22.4907C100.372 22.0225 99.816 21.7901 99.0747 21.7901C98.6202 21.7901 98.2321 21.8525 97.9104 21.9774C97.5922 22.1023 97.3195 22.241 97.0992 22.3936C96.8789 22.5427 96.6971 22.6815 96.5572 22.8063C96.4174 22.9312 96.302 22.9936 96.2041 22.9936C96.0782 22.9936 95.9838 22.9381 95.9209 22.8237L95.7601 22.5497C96.2531 22.0606 96.774 21.6895 97.316 21.4363C97.8614 21.1866 98.4768 21.0583 99.1656 21.0583C99.6726 21.0583 100.113 21.1381 100.494 21.2976C100.875 21.4571 101.19 21.6861 101.438 21.9843C101.69 22.2826 101.875 22.6433 102.005 23.0665C102.131 23.4896 102.194 23.9613 102.194 24.485V30.5858H101.833L101.837 30.5962ZM98.0397 30.0968C98.4069 30.0968 98.7425 30.0586 99.0502 29.9788C99.3579 29.8991 99.6411 29.7915 99.9034 29.6493C100.166 29.5071 100.41 29.3407 100.638 29.1464C100.865 28.9522 101.089 28.7406 101.312 28.5152V26.077C100.414 26.1012 99.6411 26.1706 98.9908 26.2781C98.3404 26.3891 97.8055 26.5383 97.3859 26.7255C96.9663 26.9128 96.6551 27.1383 96.4558 27.3984C96.2565 27.6585 96.1586 27.9568 96.1586 28.2898C96.1586 28.6019 96.2111 28.8759 96.316 29.1048C96.4209 29.3337 96.5572 29.521 96.7286 29.6702C96.8999 29.8193 97.0992 29.9268 97.3265 29.9962C97.5537 30.0655 97.7915 30.1002 98.0397 30.1002" fill="#F26649"/>
<path id="Vector_33" d="M105.711 21.2283V27.2181C105.711 28.0956 105.914 28.7858 106.319 29.2852C106.725 29.7846 107.344 30.0344 108.176 30.0344C108.791 30.0344 109.368 29.8783 109.9 29.5661C110.431 29.254 110.914 28.8239 111.337 28.2725V21.2283H112.239V30.5997H111.742C111.568 30.5997 111.477 30.5165 111.47 30.3535L111.382 28.9592C110.945 29.5002 110.438 29.9303 109.865 30.2598C109.291 30.5858 108.651 30.7488 107.949 30.7488C107.421 30.7488 106.963 30.6656 106.571 30.5026C106.179 30.3396 105.851 30.1037 105.592 29.7951C105.333 29.4864 105.138 29.1187 105.005 28.6852C104.872 28.2516 104.805 27.7626 104.805 27.2181V21.2283H105.707H105.711Z" fill="#F26649"/>
</g>
</svg>
