<svg width="236" height="35" viewBox="0 0 236 35" fill="none" xmlns="http://www.w3.org/2000/svg">
<g id="Size=Large, Colour=Default">
<path id="Vector" d="M17.8481 0.236807C16.5229 0.653007 15.7887 2.05768 16.2082 3.36871L17.8796 8.59202L15.974 12.2372L11.002 11.8939L3.29577 9.3932C1.9741 8.96313 0.554531 9.67761 0.124464 10.9886C-0.305602 12.2997 0.414672 13.7078 1.73284 14.1379L5.56847 15.383L3.90765 16.8154C2.85871 17.7207 2.74682 19.2953 3.6594 20.3358C4.57198 21.3763 6.15938 21.4873 7.20832 20.582L11.3761 16.9889L15.5369 17.2767L16.2747 19.5832L10.0859 21.0191C8.73278 21.3347 7.89363 22.6769 8.20831 24.0157C8.52299 25.3579 9.87613 26.1903 11.2328 25.8747L18.2432 24.2481L20.9844 29.3777C21.6383 30.5951 23.1592 31.0599 24.3865 30.4113C25.1837 29.9916 25.6592 29.2078 25.7187 28.3789C25.7501 27.928 25.6592 27.4632 25.4319 27.0366L21.8865 20.4086L20.2012 15.1402L22.4285 10.8811L33.3724 6.7538C34.3479 6.41391 34.9808 5.53642 35.0472 4.57569C35.0717 4.2462 35.0263 3.9063 34.9109 3.57334C34.4493 2.27619 33.0123 1.58946 31.7011 2.04728L22.2257 5.66128L21.0124 1.86345C20.5928 0.548957 19.1802 -0.175925 17.8551 0.240275" fill="#F26649"/>
<path id="Vector_2" d="M51.089 14.0931H48.8757C48.6275 14.0931 48.4282 14.0341 48.2743 13.9197C48.1205 13.8052 48.0051 13.6561 47.9282 13.4723L46.9981 10.8641H41.5121L40.5821 13.4723C40.5191 13.6283 40.4073 13.7705 40.2499 13.8989C40.0926 14.0272 39.8933 14.0931 39.652 14.0931H37.4213L42.8023 0.427856H45.7184L51.0925 14.0931H51.089ZM42.2044 8.90446H46.3058L44.8163 4.72512C44.7289 4.50662 44.6345 4.24649 44.5366 3.95168C44.4387 3.65687 44.3408 3.33779 44.2464 3.00136C44.159 3.34819 44.0646 3.66728 43.9702 3.96556C43.8758 4.26383 43.7848 4.52396 43.6939 4.74246L42.2044 8.90446Z" fill="#212121"/>
<path id="Vector_3" d="M54.7814 14.2419C54.3373 14.2419 53.9457 14.176 53.603 14.0477C53.2604 13.9193 52.9737 13.7355 52.7394 13.4962C52.5051 13.2569 52.3268 12.969 52.208 12.6291C52.0891 12.2892 52.0296 11.9077 52.0296 11.4811V6.24391H51.1101C50.9702 6.24391 50.8513 6.19882 50.7534 6.11212C50.6555 6.02541 50.6066 5.89361 50.6066 5.71673V4.70051L52.173 4.4161L52.7045 1.90156C52.7744 1.62063 52.9667 1.47842 53.2849 1.47842H54.652V4.43691H57.1764V6.24391H54.652V11.3111C54.652 11.5817 54.7184 11.7932 54.8478 11.9528C54.9772 12.1089 55.1625 12.1886 55.4037 12.1886C55.5296 12.1886 55.638 12.1748 55.7254 12.147C55.8128 12.1193 55.8897 12.0881 55.9527 12.0534C56.0156 12.0187 56.075 11.9875 56.1275 11.9597C56.1799 11.932 56.2359 11.9181 56.2953 11.9181C56.3722 11.9181 56.4352 11.9354 56.4841 11.9701C56.5331 12.0048 56.5855 12.0638 56.6345 12.1435L57.4212 13.3852C57.0611 13.6696 56.652 13.8812 56.1974 14.0269C55.7429 14.1725 55.2709 14.2419 54.7849 14.2419" fill="#212121"/>
<path id="Vector_4" d="M61.2079 0.0532532H58.5891V14.0931H61.2079V0.0532532Z" fill="#212121"/>
<path id="Vector_5" d="M69.8651 14.0931C69.6169 14.0931 69.4316 14.0584 69.3022 13.989C69.1728 13.9196 69.0644 13.774 68.984 13.5555L68.7742 12.9416C68.526 13.1566 68.2882 13.3404 68.0574 13.5034C67.8267 13.663 67.5854 13.7983 67.3372 13.9092C67.0889 14.0202 66.8197 14.1035 66.54 14.159C66.2568 14.2145 65.9456 14.2422 65.6029 14.2422C65.1729 14.2422 64.7813 14.1867 64.4246 14.0722C64.0715 13.9578 63.7638 13.7913 63.5085 13.5693C63.2533 13.3474 63.054 13.0699 62.9141 12.7369C62.7743 12.404 62.7043 12.0225 62.7043 11.5889C62.7043 11.2317 62.7953 10.8744 62.9806 10.5207C63.1624 10.1669 63.4806 9.84088 63.9246 9.54954C64.3722 9.2582 64.9666 9.01195 65.7113 8.82119C66.4561 8.62697 67.3861 8.51598 68.5085 8.4917V7.99226C68.5085 7.38184 68.3791 6.93442 68.1204 6.65002C67.8616 6.36561 67.4875 6.21994 67.0015 6.21994C66.6414 6.21994 66.3407 6.26156 66.0994 6.34827C65.8582 6.43151 65.6484 6.52516 65.4666 6.62227C65.2847 6.71938 65.1169 6.80956 64.9596 6.89627C64.8022 6.97951 64.6169 7.0246 64.4071 7.0246C64.2253 7.0246 64.0715 6.97951 63.9456 6.88933C63.8232 6.79916 63.7183 6.69164 63.6379 6.56331L63.1729 5.73438C63.7498 5.22106 64.3862 4.83608 65.0819 4.57942C65.7777 4.32277 66.5295 4.19791 67.3407 4.19791C67.9211 4.19791 68.4421 4.29155 68.9036 4.47884C69.3616 4.66613 69.7497 4.92972 70.0714 5.26615C70.3896 5.60258 70.6378 6.00144 70.8057 6.4662C70.977 6.93095 71.0609 7.4408 71.0609 7.99226V14.0931H69.8651ZM66.4176 12.4907C66.8477 12.4907 67.2253 12.4144 67.547 12.2583C67.8686 12.1057 68.1903 11.8664 68.505 11.5473V10.042C67.8651 10.0663 67.3337 10.1218 66.9106 10.2016C66.4875 10.2848 66.1484 10.3854 65.9001 10.5068C65.6519 10.6282 65.4736 10.7704 65.3687 10.9299C65.2638 11.0895 65.2113 11.2629 65.2113 11.4537C65.2113 11.8317 65.3162 12.0988 65.5295 12.2548C65.7428 12.4109 66.0365 12.4907 66.4176 12.4907Z" fill="#212121"/>
<path id="Vector_6" d="M79.1973 6.37935C79.1273 6.48687 79.0574 6.56317 78.984 6.60826C78.9106 6.65682 78.8127 6.6811 78.6833 6.6811C78.5539 6.6811 78.428 6.64988 78.2952 6.58745C78.1623 6.52502 78.012 6.45565 77.8476 6.38629C77.6833 6.31345 77.4945 6.24755 77.2847 6.18512C77.0714 6.12269 76.8267 6.09148 76.5469 6.09148C76.1239 6.09148 75.7952 6.17819 75.5609 6.3516C75.3267 6.52502 75.2078 6.75046 75.2078 7.03487C75.2078 7.22909 75.2742 7.3921 75.4071 7.5239C75.54 7.6557 75.7148 7.77015 75.9351 7.86726C76.1518 7.96438 76.4001 8.05456 76.6798 8.14126C76.9595 8.2245 77.2427 8.31815 77.5399 8.41873C77.8336 8.51931 78.1204 8.63377 78.4001 8.76903C78.6798 8.90083 78.928 9.06384 79.1448 9.26153C79.3616 9.45923 79.5399 9.69854 79.6728 9.97601C79.8057 10.2569 79.8721 10.5934 79.8721 10.9888C79.8721 11.4605 79.7847 11.894 79.6099 12.2929C79.435 12.6917 79.1798 13.0351 78.8441 13.323C78.5085 13.6108 78.0924 13.8363 77.5924 14.0027C77.0924 14.1658 76.5155 14.249 75.8651 14.249C75.5295 14.249 75.1973 14.2178 74.8686 14.1588C74.54 14.0999 74.2253 14.0132 73.9281 13.9056C73.6309 13.7946 73.3512 13.6698 73.0924 13.5241C72.8337 13.3784 72.6099 13.2224 72.4176 13.0524L73.026 12.0813C73.0959 11.9668 73.1833 11.8801 73.2882 11.8177C73.3931 11.7553 73.526 11.7241 73.6903 11.7241C73.8547 11.7241 73.9945 11.7622 74.1274 11.842C74.2602 11.9217 74.4071 12.005 74.5749 12.0952C74.7428 12.1853 74.9351 12.272 75.1588 12.3484C75.3826 12.4281 75.6623 12.4663 75.998 12.4663C76.2497 12.4663 76.47 12.4385 76.6518 12.383C76.8336 12.3275 76.984 12.2478 77.0994 12.1507C77.2148 12.0535 77.2987 11.9426 77.3511 11.8212C77.4036 11.6998 77.4316 11.5714 77.4316 11.4396C77.4316 11.2281 77.3651 11.0512 77.2288 10.9159C77.0924 10.7807 76.9141 10.6627 76.6973 10.5622C76.4805 10.4616 76.2288 10.3714 75.942 10.2882C75.6588 10.2049 75.3686 10.1147 75.0749 10.0142C74.7812 9.91358 74.491 9.79566 74.2113 9.65692C73.9281 9.51819 73.6798 9.34477 73.4631 9.13321C73.2463 8.92164 73.0679 8.66498 72.9316 8.3563C72.7952 8.04762 72.7288 7.67651 72.7288 7.23603C72.7288 6.8337 72.8092 6.45219 72.9666 6.09148C73.1239 5.73077 73.3617 5.41169 73.6798 5.13422C73.9945 4.85675 74.3896 4.63825 74.8616 4.47524C75.3337 4.31222 75.8791 4.23245 76.498 4.23245C77.1938 4.23245 77.8266 4.34691 78.3966 4.57235C78.9665 4.79779 79.435 5.0926 79.8022 5.45677L79.2043 6.37935H79.1973Z" fill="#212121"/>
<path id="Vector_7" d="M90.4383 4.23245C91.1726 4.23245 91.8404 4.35038 92.4418 4.58275C93.0432 4.81513 93.5572 5.14462 93.9907 5.5747C94.4208 6.00477 94.753 6.52849 94.9872 7.14238C95.2215 7.75628 95.3404 8.44994 95.3404 9.22338C95.3404 9.99682 95.225 10.6905 94.9872 11.3079C94.753 11.9252 94.4208 12.4524 93.9907 12.8859C93.5607 13.3195 93.0432 13.6524 92.4418 13.8848C91.8404 14.1172 91.1726 14.2317 90.4383 14.2317C89.7041 14.2317 89.0257 14.1172 88.4208 13.8848C87.816 13.6524 87.2985 13.3195 86.8684 12.8859C86.4383 12.4524 86.1027 11.9252 85.8684 11.3079C85.6307 10.6905 85.5118 9.99335 85.5118 9.22338C85.5118 8.45341 85.6307 7.75628 85.8684 7.14238C86.1062 6.52849 86.4383 6.00477 86.8684 5.5747C87.2985 5.14462 87.816 4.81513 88.4208 4.58275C89.0257 4.35038 89.6971 4.23245 90.4383 4.23245ZM90.4383 12.2825C91.1866 12.2825 91.739 12.0258 92.0991 11.516C92.4593 11.0026 92.6411 10.2431 92.6411 9.23379C92.6411 8.2245 92.4593 7.47188 92.0991 6.95856C91.739 6.44872 91.1866 6.19206 90.4383 6.19206C89.6901 6.19206 89.1096 6.44872 88.7495 6.95856C88.3894 7.47188 88.2076 8.22797 88.2076 9.23379C88.2076 10.2396 88.3894 11.0061 88.7495 11.516C89.1096 12.0293 89.6726 12.2825 90.4383 12.2825Z" fill="#212121"/>
<path id="Vector_8" d="M97.4419 14.0928V6.24748L96.6831 6.11568C96.4873 6.07753 96.3265 6.00816 96.2041 5.90758C96.0817 5.807 96.0188 5.6648 96.0188 5.47404V4.43701H97.4419V3.79537C97.4419 3.2439 97.5293 2.741 97.7041 2.29358C97.8789 1.84617 98.1272 1.46465 98.4489 1.15597C98.7705 0.843817 99.1656 0.604503 99.6342 0.434554C100.103 0.264606 100.631 0.181366 101.218 0.181366C101.445 0.181366 101.662 0.195239 101.868 0.222986C102.075 0.250733 102.281 0.292353 102.491 0.351314L102.435 1.63113C102.421 1.82536 102.337 1.95368 102.183 2.01265C102.029 2.07161 101.854 2.10282 101.666 2.10282C101.4 2.10282 101.162 2.13057 100.949 2.18606C100.736 2.24156 100.557 2.33867 100.414 2.47393C100.267 2.6092 100.159 2.78955 100.082 3.02193C100.005 3.25084 99.9663 3.53524 99.9663 3.87514V4.44048H102.396V6.24748H100.05V14.0928H97.4384H97.4419Z" fill="#212121"/>
<path id="Vector_9" d="M110.952 11.7936H116.277V14.0931H108.102V0.427856H110.952V11.7936Z" fill="#212121"/>
<path id="Vector_10" d="M120.662 1.62422C120.662 1.84273 120.616 2.04736 120.529 2.23465C120.442 2.42194 120.323 2.58842 120.172 2.73409C120.022 2.87976 119.851 2.99075 119.651 3.07399C119.452 3.15723 119.239 3.19538 119.012 3.19538C118.795 3.19538 118.592 3.15376 118.4 3.07399C118.207 2.99421 118.036 2.87976 117.893 2.73409C117.746 2.58842 117.634 2.42194 117.547 2.23465C117.463 2.04736 117.417 1.84273 117.417 1.62422C117.417 1.40572 117.459 1.19762 117.547 1.00686C117.63 0.816102 117.746 0.646154 117.893 0.503952C118.04 0.358282 118.207 0.247295 118.4 0.164055C118.592 0.0842836 118.798 0.0426636 119.012 0.0426636C119.239 0.0426636 119.452 0.0842836 119.651 0.164055C119.851 0.247295 120.026 0.358282 120.172 0.503952C120.319 0.649622 120.438 0.816102 120.529 1.00686C120.62 1.19762 120.662 1.40225 120.662 1.62422ZM120.347 14.0929H117.728V4.38502H120.347V14.0929Z" fill="#212121"/>
<path id="Vector_11" d="M121.536 4.38467H123.71C123.899 4.38467 124.057 4.42976 124.186 4.51647C124.312 4.60318 124.399 4.71763 124.452 4.85637L126.095 9.66001C126.203 9.98603 126.298 10.3051 126.378 10.6173C126.462 10.9259 126.536 11.2416 126.598 11.5537C126.668 11.2416 126.745 10.9259 126.829 10.6173C126.913 10.3051 127.015 9.98603 127.13 9.66001L128.829 4.85637C128.875 4.71763 128.959 4.60665 129.084 4.51647C129.21 4.42976 129.361 4.38467 129.532 4.38467H131.602L127.756 14.0925H125.382L121.539 4.38467H121.536Z" fill="#212121"/>
<path id="Vector_12" d="M135.718 1.62422C135.718 1.84273 135.672 2.04736 135.585 2.23465C135.494 2.42194 135.378 2.58842 135.228 2.73409C135.081 2.87976 134.906 2.99075 134.707 3.07399C134.508 3.15723 134.295 3.19538 134.067 3.19538C133.851 3.19538 133.648 3.15376 133.455 3.07399C133.263 2.99421 133.092 2.87976 132.948 2.73409C132.802 2.58842 132.686 2.42194 132.602 2.23465C132.518 2.04736 132.473 1.84273 132.473 1.62422C132.473 1.40572 132.515 1.19762 132.602 1.00686C132.686 0.816102 132.805 0.646154 132.948 0.503952C133.095 0.358282 133.263 0.247295 133.455 0.164055C133.648 0.0842836 133.854 0.0426636 134.067 0.0426636C134.295 0.0426636 134.508 0.0842836 134.707 0.164055C134.906 0.247295 135.081 0.358282 135.228 0.503952C135.378 0.649622 135.494 0.816102 135.585 1.00686C135.672 1.19762 135.718 1.40225 135.718 1.62422ZM135.403 14.0929H132.784V4.38502H135.403V14.0929Z" fill="#212121"/>
<path id="Vector_13" d="M137.648 14.0929V4.38506H139.26C139.588 4.38506 139.809 4.5342 139.913 4.83594L140.074 5.51227C140.27 5.32498 140.473 5.15156 140.686 4.99549C140.899 4.83941 141.123 4.70415 141.361 4.58969C141.599 4.47524 141.854 4.38853 142.13 4.3261C142.406 4.26367 142.704 4.23245 143.029 4.23245C143.56 4.23245 144.032 4.32263 144.445 4.50645C144.857 4.6868 145.204 4.94346 145.483 5.26948C145.763 5.59551 145.976 5.98396 146.12 6.43831C146.263 6.8892 146.333 7.38517 146.333 7.92623V14.0929H143.721V7.92623C143.721 7.38517 143.595 6.96897 143.34 6.67069C143.088 6.37241 142.714 6.22328 142.221 6.22328C141.847 6.22328 141.501 6.30305 141.183 6.46259C140.864 6.62213 140.557 6.84064 140.267 7.1181V14.0964H137.648V14.0929Z" fill="#212121"/>
<path id="Vector_14" d="M152.057 4.21497C152.473 4.21497 152.868 4.25659 153.239 4.34329C153.609 4.43 153.948 4.54793 154.26 4.70747H157.137V5.65779C157.137 5.80693 157.095 5.92832 157.008 6.01503C156.924 6.10174 156.78 6.16764 156.585 6.21273L155.787 6.37227C155.896 6.68095 155.948 7.01044 155.948 7.36074C155.948 7.84284 155.85 8.27985 155.651 8.66484C155.452 9.04982 155.179 9.37931 154.829 9.65331C154.483 9.92731 154.071 10.1354 153.595 10.2845C153.12 10.4337 152.609 10.5065 152.057 10.5065C151.885 10.5065 151.718 10.4996 151.553 10.4857C151.389 10.4718 151.228 10.4545 151.067 10.4302C150.808 10.5863 150.679 10.7632 150.679 10.9574C150.679 11.1412 150.77 11.273 150.948 11.3528C151.13 11.436 151.368 11.4915 151.662 11.5262C151.955 11.5609 152.291 11.5817 152.669 11.5921C153.046 11.6025 153.427 11.6233 153.815 11.6545C154.204 11.6858 154.588 11.7412 154.966 11.821C155.343 11.9008 155.676 12.0291 155.973 12.206C156.266 12.3829 156.504 12.6222 156.686 12.917C156.864 13.2118 156.955 13.5933 156.955 14.0581C156.955 14.4916 156.847 14.9113 156.634 15.3206C156.417 15.7298 156.106 16.094 155.7 16.4131C155.291 16.7322 154.791 16.9923 154.197 17.1865C153.602 17.3808 152.924 17.4779 152.165 17.4779C151.406 17.4779 150.76 17.4085 150.204 17.2663C149.648 17.1241 149.19 16.9368 148.826 16.701C148.462 16.4651 148.19 16.1946 148.015 15.8859C147.836 15.5772 147.749 15.2581 147.749 14.9252C147.749 14.4916 147.882 14.124 148.148 13.8222C148.413 13.5205 148.777 13.2777 149.239 13.0974C148.99 12.9586 148.795 12.7783 148.651 12.5563C148.504 12.3343 148.434 12.043 148.434 11.6858C148.434 11.3979 148.539 11.0927 148.753 10.7771C148.966 10.4614 149.288 10.1944 149.725 9.9828C149.225 9.71227 148.829 9.35504 148.543 8.91456C148.253 8.47061 148.109 7.9573 148.109 7.36421C148.109 6.88211 148.211 6.4451 148.41 6.05665C148.609 5.6682 148.885 5.33524 149.242 5.06471C149.595 4.79071 150.015 4.58261 150.494 4.43694C150.976 4.29127 151.497 4.2219 152.06 4.2219M154.539 14.4951C154.539 14.3252 154.487 14.1864 154.378 14.0824C154.27 13.9749 154.127 13.8916 153.945 13.8292C153.763 13.7668 153.55 13.7217 153.305 13.6939C153.057 13.6662 152.794 13.6419 152.518 13.628C152.239 13.6107 151.952 13.6003 151.651 13.5864C151.35 13.5725 151.057 13.5517 150.774 13.5205C150.553 13.6523 150.371 13.8084 150.232 13.9853C150.092 14.1656 150.022 14.3668 150.022 14.5922C150.022 14.7483 150.06 14.894 150.13 15.0258C150.204 15.1576 150.326 15.272 150.497 15.3657C150.669 15.4593 150.892 15.5321 151.172 15.5876C151.452 15.6397 151.798 15.6674 152.218 15.6674C152.637 15.6674 153.011 15.6397 153.308 15.5842C153.606 15.5287 153.847 15.4489 154.029 15.3448C154.211 15.2408 154.343 15.1159 154.424 14.9737C154.504 14.8281 154.543 14.672 154.543 14.502M152.064 8.89028C152.602 8.89028 152.997 8.75501 153.256 8.48448C153.511 8.21395 153.641 7.86712 153.641 7.44052C153.641 7.01391 153.511 6.64627 153.256 6.38961C153.001 6.13295 152.602 6.00809 152.064 6.00809C151.525 6.00809 151.13 6.13642 150.878 6.38961C150.627 6.6428 150.501 6.9931 150.501 7.44052C150.501 7.86018 150.63 8.20702 150.885 8.48102C151.141 8.75501 151.536 8.89028 152.067 8.89028" fill="#212121"/>
<path id="Vector_15" d="M174.784 14.0931H172.571C172.322 14.0931 172.123 14.0341 171.969 13.9197C171.812 13.8052 171.7 13.6561 171.623 13.4723L170.693 10.8641H165.207L164.277 13.4723C164.214 13.6283 164.102 13.7705 163.945 13.8989C163.787 14.0272 163.588 14.0931 163.347 14.0931H161.116L166.497 0.427856H169.41L174.784 14.0931ZM165.899 8.90446H170.001L168.511 4.72512C168.424 4.50662 168.329 4.24649 168.231 3.95168C168.134 3.65687 168.036 3.33779 167.941 3.00136C167.854 3.34819 167.759 3.66728 167.665 3.96556C167.571 4.26383 167.48 4.52396 167.389 4.74246L165.899 8.90446Z" fill="#212121"/>
<path id="Vector_16" d="M178.011 4.38498V10.5551C178.011 11.0962 178.137 11.5124 178.385 11.8107C178.633 12.109 179.007 12.2581 179.5 12.2581C179.868 12.2581 180.214 12.1783 180.535 12.0188C180.857 11.8592 181.165 11.6407 181.455 11.3633V4.38498H184.074V14.0928H182.459C182.123 14.0928 181.91 13.9402 181.812 13.642L181.64 12.9656C181.249 13.3471 180.819 13.6593 180.354 13.8917C179.889 14.1275 179.336 14.2454 178.696 14.2454C178.165 14.2454 177.689 14.1553 177.277 13.9714C176.864 13.7911 176.515 13.5344 176.238 13.2084C175.959 12.8824 175.749 12.4939 175.602 12.0396C175.455 11.5887 175.382 11.0927 175.382 10.5517V4.38498H178.004H178.011Z" fill="#212121"/>
<path id="Vector_17" d="M192.326 6.37935C192.256 6.48687 192.186 6.56317 192.112 6.60826C192.039 6.65682 191.941 6.6811 191.815 6.6811C191.689 6.6811 191.56 6.64988 191.427 6.58745C191.294 6.52502 191.147 6.45565 190.979 6.38629C190.815 6.31345 190.626 6.24755 190.413 6.18512C190.2 6.12269 189.955 6.09148 189.679 6.09148C189.256 6.09148 188.927 6.17819 188.693 6.3516C188.458 6.52502 188.34 6.75046 188.34 7.03487C188.34 7.22909 188.406 7.3921 188.539 7.5239C188.672 7.6557 188.847 7.77015 189.067 7.86726C189.287 7.96438 189.535 8.05456 189.812 8.14126C190.091 8.2245 190.378 8.31815 190.672 8.41873C190.965 8.51931 191.252 8.63377 191.532 8.76903C191.808 8.90083 192.06 9.06384 192.277 9.26153C192.497 9.45923 192.672 9.69854 192.805 9.97601C192.937 10.2569 193.004 10.5934 193.004 10.9888C193.004 11.4605 192.916 11.894 192.742 12.2929C192.567 12.6917 192.312 13.0351 191.979 13.323C191.644 13.6108 191.228 13.8363 190.728 14.0027C190.228 14.1658 189.651 14.249 189 14.249C188.665 14.249 188.333 14.2178 188.004 14.1588C187.675 14.0999 187.361 14.0132 187.063 13.9056C186.766 13.7946 186.486 13.6698 186.228 13.5241C185.969 13.3784 185.742 13.2224 185.553 13.0524L186.161 12.0813C186.231 11.9668 186.319 11.8801 186.424 11.8177C186.528 11.7553 186.661 11.7241 186.826 11.7241C186.99 11.7241 187.13 11.7622 187.263 11.842C187.396 11.9217 187.542 12.005 187.71 12.0952C187.878 12.1853 188.07 12.272 188.294 12.3484C188.518 12.4281 188.798 12.4663 189.133 12.4663C189.385 12.4663 189.605 12.4385 189.787 12.383C189.969 12.3275 190.119 12.2478 190.235 12.1507C190.35 12.0535 190.43 11.9426 190.486 11.8212C190.539 11.6998 190.567 11.5714 190.567 11.4396C190.567 11.2281 190.497 11.0512 190.364 10.9159C190.228 10.7807 190.049 10.6627 189.833 10.5622C189.616 10.4616 189.364 10.3714 189.077 10.2882C188.794 10.2049 188.504 10.1147 188.21 10.0142C187.917 9.91358 187.626 9.79566 187.347 9.65692C187.067 9.51819 186.815 9.34477 186.598 9.13321C186.382 8.92164 186.203 8.66498 186.067 8.3563C185.931 8.04762 185.864 7.67651 185.864 7.23603C185.864 6.8337 185.945 6.45219 186.102 6.09148C186.259 5.73077 186.497 5.41169 186.815 5.13422C187.13 4.85675 187.525 4.63825 187.997 4.47524C188.469 4.31222 189.014 4.23245 189.633 4.23245C190.329 4.23245 190.962 4.34691 191.532 4.57235C192.102 4.79779 192.57 5.0926 192.937 5.45677L192.34 6.37935H192.326Z" fill="#212121"/>
<path id="Vector_18" d="M198.021 14.2419C197.577 14.2419 197.186 14.176 196.843 14.0477C196.5 13.9193 196.214 13.7355 195.979 13.4962C195.745 13.2569 195.567 12.969 195.448 12.6291C195.329 12.2892 195.266 11.9077 195.266 11.4811V6.24391H194.347C194.207 6.24391 194.088 6.19882 193.99 6.11212C193.892 6.02541 193.843 5.89361 193.843 5.71673V4.70051L195.409 4.4161L195.941 1.90156C196.011 1.62063 196.203 1.47842 196.521 1.47842H197.888V4.43691H200.413V6.24391H197.888V11.3111C197.888 11.5817 197.955 11.7932 198.084 11.9528C198.214 12.1089 198.399 12.1886 198.64 12.1886C198.766 12.1886 198.874 12.1748 198.962 12.147C199.049 12.1193 199.126 12.0881 199.189 12.0534C199.252 12.0187 199.311 11.9875 199.364 11.9597C199.416 11.932 199.472 11.9181 199.532 11.9181C199.609 11.9181 199.672 11.9354 199.721 11.9701C199.773 12.0048 199.822 12.0638 199.871 12.1435L200.658 13.3852C200.298 13.6696 199.888 13.8812 199.434 14.0269C198.979 14.1725 198.507 14.2419 198.021 14.2419Z" fill="#212121"/>
<path id="Vector_19" d="M201.808 14.0928V4.38496H203.353C203.619 4.38496 203.801 4.43352 203.906 4.52716C204.007 4.62081 204.081 4.78382 204.123 5.0162L204.256 5.98733C204.567 5.43587 204.923 4.99886 205.332 4.67977C205.742 4.36068 206.217 4.20114 206.759 4.20114C207.203 4.20114 207.563 4.30519 207.843 4.51329L207.672 6.43475C207.64 6.55961 207.591 6.64632 207.525 6.69487C207.458 6.74343 207.367 6.76424 207.255 6.76424C207.154 6.76424 207.007 6.75037 206.818 6.72262C206.63 6.69487 206.451 6.681 206.287 6.681C205.804 6.681 205.423 6.8128 205.144 7.07292C204.864 7.33305 204.623 7.69722 204.427 8.16198V14.1032H201.808V14.0928Z" fill="#212121"/>
<path id="Vector_20" d="M215.329 14.0931C215.081 14.0931 214.895 14.0584 214.762 13.989C214.633 13.9196 214.528 13.774 214.444 13.5555L214.235 12.9416C213.986 13.1566 213.749 13.3404 213.518 13.5034C213.287 13.663 213.046 13.7983 212.797 13.9092C212.546 14.0202 212.28 14.1035 212 14.159C211.721 14.2145 211.406 14.2422 211.067 14.2422C210.637 14.2422 210.245 14.1867 209.888 14.0722C209.535 13.9578 209.228 13.7913 208.972 13.5693C208.717 13.3474 208.518 13.0699 208.378 12.7369C208.238 12.404 208.168 12.0225 208.168 11.5889C208.168 11.2317 208.259 10.8744 208.444 10.5207C208.626 10.1669 208.941 9.84088 209.388 9.54954C209.836 9.2582 210.43 9.01195 211.175 8.82119C211.92 8.62697 212.85 8.51598 213.969 8.4917V7.99226C213.969 7.38184 213.839 6.93442 213.581 6.65002C213.322 6.36561 212.948 6.21994 212.462 6.21994C212.102 6.21994 211.801 6.26156 211.56 6.34827C211.318 6.43151 211.109 6.52516 210.927 6.62227C210.745 6.71938 210.577 6.80956 210.42 6.89627C210.263 6.97951 210.077 7.0246 209.867 7.0246C209.682 7.0246 209.532 6.97951 209.406 6.88933C209.284 6.79916 209.179 6.69164 209.098 6.56331L208.633 5.73438C209.21 5.22106 209.843 4.83608 210.542 4.57942C211.242 4.32277 211.993 4.19791 212.801 4.19791C213.385 4.19791 213.902 4.29155 214.364 4.47884C214.822 4.66613 215.214 4.92972 215.532 5.26615C215.85 5.60258 216.095 6.00144 216.266 6.4662C216.437 6.93095 216.521 7.4408 216.521 7.99226V14.0931H215.325H215.329ZM211.885 12.4907C212.315 12.4907 212.693 12.4144 213.014 12.2583C213.336 12.1057 213.658 11.8664 213.972 11.5473V10.042C213.332 10.0663 212.801 10.1218 212.378 10.2016C211.955 10.2848 211.616 10.3854 211.367 10.5068C211.116 10.6282 210.941 10.7704 210.836 10.9299C210.731 11.0895 210.679 11.2629 210.679 11.4537C210.679 11.8317 210.784 12.0988 210.997 12.2548C211.21 12.4109 211.504 12.4907 211.885 12.4907Z" fill="#212121"/>
<path id="Vector_21" d="M221.21 0.0532532H218.591V14.0931H221.21V0.0532532Z" fill="#212121"/>
<path id="Vector_22" d="M226.406 1.62422C226.406 1.84273 226.36 2.04736 226.273 2.23465C226.185 2.42194 226.067 2.58842 225.916 2.73409C225.769 2.87976 225.595 2.99075 225.395 3.07399C225.196 3.15723 224.983 3.19538 224.755 3.19538C224.539 3.19538 224.336 3.15376 224.143 3.07399C223.951 2.99421 223.783 2.87976 223.636 2.73409C223.49 2.58842 223.374 2.42194 223.29 2.23465C223.206 2.04736 223.161 1.84273 223.161 1.62422C223.161 1.40572 223.203 1.19762 223.29 1.00686C223.374 0.816102 223.493 0.646154 223.636 0.503952C223.783 0.358282 223.951 0.247295 224.143 0.164055C224.336 0.0842836 224.542 0.0426636 224.755 0.0426636C224.983 0.0426636 225.196 0.0842836 225.395 0.164055C225.595 0.247295 225.769 0.358282 225.916 0.503952C226.067 0.649622 226.185 0.816102 226.273 1.00686C226.364 1.19762 226.406 1.40225 226.406 1.62422ZM226.091 14.0929H223.472V4.38502H226.091V14.0929Z" fill="#212121"/>
<path id="Vector_23" d="M234.808 14.0931C234.559 14.0931 234.374 14.0584 234.241 13.989C234.112 13.9196 234.007 13.774 233.923 13.5555L233.713 12.9416C233.465 13.1566 233.227 13.3404 232.997 13.5034C232.766 13.663 232.524 13.7983 232.276 13.9092C232.024 14.0202 231.759 14.1035 231.479 14.159C231.199 14.2145 230.885 14.2422 230.545 14.2422C230.115 14.2422 229.724 14.1867 229.367 14.0722C229.014 13.9578 228.706 13.7913 228.451 13.5693C228.196 13.3474 227.997 13.0699 227.857 12.7369C227.717 12.404 227.647 12.0225 227.647 11.5889C227.647 11.2317 227.738 10.8744 227.923 10.5207C228.105 10.1669 228.42 9.84088 228.867 9.54954C229.315 9.2582 229.909 9.01195 230.654 8.82119C231.399 8.62697 232.329 8.51598 233.448 8.4917V7.99226C233.448 7.38184 233.318 6.93442 233.059 6.65002C232.801 6.36561 232.427 6.21994 231.941 6.21994C231.58 6.21994 231.28 6.26156 231.038 6.34827C230.797 6.43151 230.587 6.52516 230.406 6.62227C230.224 6.71938 230.056 6.80956 229.899 6.89627C229.741 6.97951 229.556 7.0246 229.346 7.0246C229.161 7.0246 229.011 6.97951 228.885 6.88933C228.762 6.79916 228.657 6.69164 228.577 6.56331L228.112 5.73438C228.689 5.22106 229.325 4.83608 230.021 4.57942C230.717 4.32623 231.472 4.19791 232.28 4.19791C232.864 4.19791 233.381 4.29155 233.843 4.47884C234.301 4.66613 234.689 4.92972 235.01 5.26615C235.329 5.60258 235.577 6.00144 235.745 6.4662C235.916 6.93095 236 7.4408 236 7.99226V14.0931H234.804H234.808ZM231.364 12.4907C231.794 12.4907 232.171 12.4144 232.493 12.2583C232.815 12.1057 233.136 11.8664 233.451 11.5473V10.042C232.811 10.0663 232.28 10.1218 231.857 10.2016C231.434 10.2848 231.094 10.3854 230.846 10.5068C230.594 10.6282 230.42 10.7704 230.315 10.9299C230.21 11.0895 230.157 11.2629 230.157 11.4537C230.157 11.8317 230.262 12.0988 230.476 12.2548C230.689 12.4109 230.983 12.4907 231.364 12.4907Z" fill="#212121"/>
<path id="Vector_24" d="M43.9702 30.5535C43.7814 30.5535 43.6625 30.4668 43.6206 30.2899L43.4877 29.0933C43.2289 29.3431 42.9702 29.572 42.715 29.7697C42.4597 29.9708 42.1905 30.1408 41.9143 30.2795C41.6346 30.4182 41.3374 30.5223 41.0122 30.5951C40.6905 30.668 40.3339 30.7026 39.9493 30.7026C39.6276 30.7026 39.3129 30.6541 39.0087 30.5604C38.7045 30.4668 38.4353 30.3211 38.201 30.1269C37.9668 29.9327 37.7779 29.683 37.6381 29.3777C37.4947 29.0725 37.4248 28.7084 37.4248 28.2818C37.4248 27.8864 37.5402 27.5187 37.7675 27.1788C37.9947 26.8389 38.3514 26.5441 38.8339 26.2944C39.3199 26.0447 39.9423 25.8435 40.7045 25.6909C41.4667 25.5418 42.3828 25.4516 43.4527 25.4273V24.4492C43.4527 23.5822 43.2639 22.9162 42.8863 22.448C42.5087 21.9798 41.9527 21.7474 41.2115 21.7474C40.7569 21.7474 40.3688 21.8098 40.0472 21.9347C39.729 22.0596 39.4563 22.1983 39.236 22.3509C39.0157 22.5 38.8339 22.6388 38.694 22.7636C38.5542 22.8885 38.4388 22.9509 38.3409 22.9509C38.215 22.9509 38.1206 22.8954 38.0542 22.781L37.8933 22.507C38.3863 22.0179 38.9073 21.6468 39.4493 21.3936C39.9947 21.1439 40.6101 21.0156 41.2989 21.0156C41.8059 21.0156 42.2499 21.0954 42.6276 21.2549C43.0087 21.4145 43.3234 21.6434 43.5716 21.9416C43.8234 22.2399 44.0087 22.6006 44.138 23.0238C44.2639 23.4469 44.3268 23.9186 44.3268 24.4423V30.5431H43.9667L43.9702 30.5535ZM40.173 30.0541C40.5402 30.0541 40.8758 30.0159 41.1835 29.9361C41.4912 29.8564 41.7744 29.7489 42.0367 29.6067C42.2989 29.4645 42.5436 29.298 42.7709 29.1037C42.9982 28.9095 43.222 28.698 43.4457 28.4725V26.0343C42.5471 26.0586 41.7744 26.1279 41.1241 26.2354C40.4737 26.3464 39.9388 26.4956 39.5192 26.6828C39.0996 26.8701 38.7884 27.0956 38.5891 27.3557C38.3898 27.6158 38.2919 27.9141 38.2919 28.2471C38.2919 28.5592 38.3444 28.8332 38.4493 29.0621C38.5542 29.291 38.6905 29.4783 38.8619 29.6275C39.0332 29.7766 39.2325 29.8841 39.4598 29.9535C39.687 30.0229 39.9248 30.0575 40.173 30.0575" fill="#F26649"/>
<path id="Vector_25" d="M48.3443 16.8535H47.4422V30.5534H48.3443V16.8535Z" fill="#F26649"/>
<path id="Vector_26" d="M57.7149 30.5535C57.5261 30.5535 57.4072 30.4668 57.3652 30.2899L57.2324 29.0933C56.9736 29.3431 56.7149 29.572 56.4597 29.7697C56.2044 29.9708 55.9352 30.1408 55.659 30.2795C55.3792 30.4182 55.0786 30.5223 54.7569 30.5951C54.4352 30.668 54.0786 30.7026 53.6939 30.7026C53.3723 30.7026 53.0576 30.6541 52.7534 30.5604C52.4492 30.4668 52.18 30.3211 51.9457 30.1269C51.7114 29.9327 51.5226 29.683 51.3828 29.3777C51.2394 29.0725 51.1695 28.7084 51.1695 28.2818C51.1695 27.8864 51.2849 27.5187 51.5121 27.1788C51.7394 26.8389 52.0961 26.5441 52.5786 26.2944C53.0611 26.0447 53.687 25.8435 54.4492 25.6909C55.2114 25.5418 56.1275 25.4516 57.1974 25.4273V24.4492C57.1974 23.5822 57.0086 22.9162 56.631 22.448C56.2534 21.9798 55.6974 21.7474 54.9562 21.7474C54.5016 21.7474 54.1135 21.8098 53.7918 21.9347C53.4737 22.0596 53.2009 22.1983 52.9807 22.3509C52.7604 22.5 52.5786 22.6388 52.4387 22.7636C52.2989 22.8885 52.1835 22.9509 52.0856 22.9509C51.9597 22.9509 51.8653 22.8954 51.8024 22.781L51.6415 22.507C52.1345 22.0179 52.6555 21.6468 53.1974 21.3936C53.7429 21.1439 54.3583 21.0156 55.0471 21.0156C55.5541 21.0156 55.9981 21.0954 56.3757 21.2549C56.7569 21.4145 57.0715 21.6434 57.3198 21.9416C57.5715 22.2399 57.7568 22.6006 57.8862 23.0238C58.0121 23.4469 58.075 23.9186 58.075 24.4423V30.5431H57.7149V30.5535ZM53.9177 30.0541C54.2849 30.0541 54.6205 30.0159 54.9282 29.9361C55.2359 29.8564 55.5191 29.7489 55.7813 29.6067C56.0436 29.4645 56.2883 29.298 56.5156 29.1037C56.7429 28.9095 56.9666 28.698 57.1904 28.4725V26.0343C56.2918 26.0586 55.5191 26.1279 54.8688 26.2354C54.2184 26.3464 53.6835 26.4956 53.2639 26.6828C52.8443 26.8701 52.5331 27.0956 52.3338 27.3557C52.1345 27.6158 52.0331 27.9141 52.0331 28.2471C52.0331 28.5592 52.0856 28.8332 52.1905 29.0621C52.2954 29.291 52.4317 29.4783 52.603 29.6275C52.7744 29.7766 52.9737 29.8841 53.2009 29.9535C53.4282 30.0229 53.666 30.0575 53.9142 30.0575" fill="#F26649"/>
<path id="Vector_27" d="M60.3826 29.8287C60.3826 29.7108 60.4036 29.5964 60.4491 29.4888C60.4945 29.3813 60.554 29.2911 60.6344 29.2114C60.7148 29.1316 60.8057 29.0692 60.9106 29.0241C61.0155 28.9755 61.1309 28.9547 61.2567 28.9547C61.3756 28.9547 61.491 28.979 61.5994 29.0241C61.7078 29.0726 61.7987 29.1351 61.8791 29.2114C61.9595 29.2911 62.0225 29.3848 62.0679 29.4888C62.1134 29.5964 62.1379 29.7073 62.1379 29.8287C62.1379 29.9536 62.1134 30.068 62.0679 30.1721C62.019 30.2761 61.956 30.3663 61.8791 30.4461C61.7987 30.5259 61.7078 30.5848 61.5994 30.6299C61.491 30.675 61.3791 30.6958 61.2567 30.6958C61.0085 30.6958 60.8022 30.6126 60.6344 30.4461C60.4665 30.2796 60.3826 30.075 60.3826 29.8287Z" fill="#F26649"/>
<path id="Vector_28" d="M68.2707 21.0331C68.9491 21.0331 69.554 21.1476 70.0889 21.3765C70.6239 21.6054 71.0749 21.9314 71.4421 22.3511C71.8092 22.7707 72.0889 23.2771 72.2812 23.8737C72.4735 24.4702 72.5714 25.1292 72.5714 25.8645C72.5714 26.5998 72.4735 27.2622 72.2812 27.8519C72.0889 28.4415 71.8092 28.9478 71.4421 29.3675C71.0749 29.7872 70.6239 30.1097 70.0889 30.3386C69.554 30.5641 68.9491 30.6785 68.2707 30.6785C67.5924 30.6785 66.9875 30.5641 66.4526 30.3386C65.9176 30.1132 65.4666 29.7907 65.0959 29.3675C64.7253 28.9478 64.4456 28.4415 64.2498 27.8519C64.0575 27.2622 63.9596 26.5998 63.9596 25.8645C63.9596 25.1292 64.0575 24.4668 64.2498 23.8737C64.4421 23.2806 64.7253 22.7742 65.0959 22.3511C65.4666 21.9314 65.9176 21.6054 66.4526 21.3765C66.9875 21.1476 67.5924 21.0331 68.2707 21.0331ZM68.2707 29.9675C68.8337 29.9675 69.3267 29.8704 69.7463 29.6797C70.1658 29.4889 70.519 29.2114 70.7987 28.8542C71.0784 28.497 71.2917 28.0634 71.4316 27.5605C71.5714 27.0541 71.6413 26.4888 71.6413 25.861C71.6413 25.2333 71.5714 24.6749 71.4316 24.165C71.2917 23.6552 71.0819 23.2216 70.7987 22.8609C70.519 22.5002 70.1658 22.2227 69.7463 22.0285C69.3267 21.8343 68.8337 21.7372 68.2707 21.7372C67.7078 21.7372 67.2148 21.8343 66.7952 22.0285C66.3757 22.2227 66.0225 22.5002 65.7428 22.8609C65.4596 23.2216 65.2498 23.6552 65.1064 24.165C64.9631 24.6749 64.8932 25.2402 64.8932 25.861C64.8932 26.4819 64.9631 27.0541 65.1064 27.5605C65.2498 28.0669 65.4596 28.497 65.7428 28.8542C66.026 29.2114 66.3757 29.4854 66.7952 29.6797C67.2148 29.8739 67.7078 29.9675 68.2707 29.9675Z" fill="#F26649"/>
<path id="Vector_29" d="M74.9455 30.5537V21.1858H75.421C75.5294 21.1858 75.6063 21.2066 75.6553 21.2517C75.7042 21.2967 75.7287 21.3696 75.7357 21.4771L75.8126 23.454C76.1168 22.6945 76.5224 22.1014 77.0294 21.6713C77.5364 21.2413 78.1588 21.0262 78.9 21.0262C79.1832 21.0262 79.449 21.054 79.6867 21.1164C79.928 21.1754 80.1552 21.2621 80.372 21.3765L80.2496 21.9973C80.2322 22.0979 80.1657 22.1465 80.0608 22.1465C80.0224 22.1465 79.9699 22.1326 79.9 22.1083C79.8301 22.0841 79.7427 22.0563 79.6378 22.0216C79.5329 21.9904 79.4035 21.9627 79.2531 21.9384C79.1028 21.9141 78.928 21.9002 78.7322 21.9002C78.0154 21.9002 77.428 22.1187 76.97 22.5592C76.5119 22.9997 76.1378 23.6309 75.8546 24.4599V30.5537H74.9525H74.9455Z" fill="#F26649"/>
<path id="Vector_30" d="M85.5957 21.0225C86.0083 21.0225 86.3894 21.0746 86.7391 21.1751C87.0887 21.2757 87.4069 21.4179 87.6831 21.5983H90.1027V21.907C90.1027 22.063 90.0153 22.1497 89.837 22.1601L88.4034 22.2642C88.5817 22.5035 88.7181 22.7706 88.8125 23.0688C88.9069 23.3671 88.9559 23.6862 88.9559 24.0261C88.9559 24.477 88.8719 24.8897 88.7076 25.2539C88.5433 25.6215 88.3125 25.9337 88.0188 26.1938C87.7251 26.4539 87.372 26.6551 86.9594 26.8008C86.5468 26.9464 86.0922 27.0158 85.5922 27.0158C85.0468 27.0158 84.5538 26.936 84.1097 26.7696C83.844 26.9187 83.6342 27.099 83.4839 27.3071C83.3335 27.5152 83.2566 27.7164 83.2566 27.9106C83.2566 28.1812 83.351 28.3893 83.5433 28.5315C83.7321 28.6771 83.9839 28.7812 84.2986 28.8471C84.6132 28.913 84.9699 28.9546 85.372 28.9754C85.7741 28.9928 86.1831 29.0136 86.5957 29.0378C87.0083 29.0621 87.4174 29.1003 87.8195 29.1558C88.2216 29.2113 88.5782 29.3118 88.8929 29.454C89.2076 29.5962 89.4593 29.7939 89.6482 30.0471C89.837 30.3003 89.9314 30.6367 89.9314 31.0599C89.9314 31.4483 89.8335 31.8229 89.6377 32.1802C89.4419 32.5374 89.1586 32.853 88.788 33.1305C88.4174 33.4045 87.9698 33.6265 87.4454 33.7929C86.9209 33.9594 86.3335 34.0427 85.6797 34.0427C85.0258 34.0427 84.4314 33.9768 83.9349 33.8415C83.4349 33.7062 83.0153 33.5259 82.6762 33.297C82.337 33.068 82.0818 32.8045 81.9105 32.4992C81.7391 32.1975 81.6552 31.8784 81.6552 31.5385C81.6552 31.0425 81.8195 30.6159 82.1482 30.2587C82.4769 29.9015 82.9279 29.624 83.5049 29.4298C83.1867 29.3223 82.9384 29.1696 82.7496 28.9685C82.5643 28.7673 82.4699 28.4899 82.4699 28.1291C82.4699 27.9973 82.4944 27.8586 82.5468 27.7129C82.5958 27.5673 82.6727 27.4251 82.7741 27.2829C82.8755 27.1407 82.9979 27.0089 83.1412 26.884C83.2846 26.7592 83.4489 26.6447 83.6377 26.5441C83.1867 26.2875 82.837 25.9441 82.5888 25.5175C82.337 25.0909 82.2147 24.5914 82.2147 24.0192C82.2147 23.5683 82.2951 23.159 82.4559 22.7914C82.6167 22.4237 82.844 22.1081 83.1412 21.8445C83.4349 21.5809 83.7916 21.3763 84.2076 21.2306C84.6272 21.085 85.0888 21.0156 85.5922 21.0156M89.0957 31.1778C89.0957 30.883 89.0188 30.6472 88.8614 30.4668C88.7076 30.2864 88.4978 30.1477 88.2391 30.0471C87.9803 29.9466 87.6796 29.8772 87.3405 29.8356C87.0013 29.7939 86.6482 29.7662 86.2776 29.7454C85.9069 29.728 85.5363 29.7072 85.1622 29.6899C84.7881 29.6726 84.4419 29.6344 84.1167 29.5754C83.8755 29.6691 83.6517 29.7766 83.4489 29.9015C83.2426 30.0229 83.0678 30.1616 82.9209 30.3142C82.7741 30.4668 82.6622 30.6367 82.5783 30.824C82.4979 31.0079 82.4559 31.2125 82.4559 31.431C82.4559 31.7085 82.5258 31.9651 82.6692 32.1975C82.8125 32.4333 83.0223 32.638 83.2951 32.8114C83.5713 32.9848 83.9069 33.1201 84.3055 33.2207C84.7041 33.3212 85.1622 33.3698 85.6832 33.3698C86.1657 33.3698 86.6132 33.3178 87.0258 33.2103C87.4384 33.1027 87.802 32.9536 88.1097 32.7594C88.4174 32.5651 88.6587 32.3328 88.83 32.0622C89.0048 31.7917 89.0922 31.4969 89.0922 31.1778M85.5887 26.4019C85.9943 26.4019 86.3545 26.343 86.6692 26.2285C86.9873 26.114 87.2531 25.951 87.4664 25.7429C87.6831 25.5348 87.844 25.2886 87.9559 25.0007C88.0677 24.7128 88.1237 24.3903 88.1237 24.04C88.1237 23.6897 88.0677 23.3671 87.9524 23.0758C87.837 22.7844 87.6726 22.5347 87.4559 22.3266C87.2391 22.1185 86.9734 21.959 86.6587 21.8445C86.344 21.7301 85.9873 21.6746 85.5922 21.6746C85.1971 21.6746 84.837 21.7301 84.5188 21.8445C84.2006 21.959 83.9349 22.1185 83.7181 22.3266C83.5014 22.5347 83.3335 22.7844 83.2181 23.0758C83.1062 23.3671 83.0468 23.6897 83.0468 24.04C83.0468 24.3903 83.1028 24.7128 83.2181 25.0007C83.3335 25.2886 83.4979 25.5383 83.7181 25.7429C83.9349 25.951 84.2041 26.1106 84.5188 26.2285C84.8335 26.343 85.1936 26.4019 85.5922 26.4019" fill="#F26649"/>
<path id="Vector_31" d="M91.5187 29.8287C91.5187 29.7108 91.5397 29.5964 91.5852 29.4888C91.6306 29.3813 91.6901 29.2911 91.7705 29.2114C91.8509 29.1316 91.9418 29.0692 92.0467 29.0241C92.1516 28.9755 92.267 28.9547 92.3929 28.9547C92.5117 28.9547 92.6271 28.979 92.7355 29.0241C92.8439 29.0726 92.9383 29.1351 93.0152 29.2114C93.0956 29.2911 93.1586 29.3848 93.204 29.4888C93.253 29.5964 93.274 29.7073 93.274 29.8287C93.274 29.9536 93.2495 30.068 93.204 30.1721C93.1551 30.2761 93.0922 30.3663 93.0152 30.4461C92.9348 30.5259 92.8439 30.5848 92.7355 30.6299C92.6271 30.675 92.5152 30.6958 92.3929 30.6958C92.1446 30.6958 91.9383 30.6126 91.7705 30.4461C91.6027 30.2796 91.5187 30.075 91.5187 29.8287Z" fill="#F26649"/>
<path id="Vector_32" d="M101.837 30.5535C101.648 30.5535 101.529 30.4668 101.484 30.2899L101.351 29.0933C101.092 29.3431 100.833 29.572 100.578 29.7697C100.323 29.9708 100.054 30.1408 99.7775 30.2795C99.4978 30.4182 99.2006 30.5223 98.8754 30.5951C98.5537 30.668 98.1971 30.7026 97.8125 30.7026C97.4908 30.7026 97.1761 30.6541 96.8719 30.5604C96.5677 30.4668 96.2985 30.3211 96.0642 30.1269C95.83 29.9327 95.6412 29.683 95.5013 29.3777C95.358 29.0725 95.288 28.7084 95.288 28.2818C95.288 27.8864 95.4034 27.5187 95.6307 27.1788C95.858 26.8389 96.2146 26.5441 96.6971 26.2944C97.1831 26.0447 97.8055 25.8435 98.5677 25.6909C99.33 25.5418 100.246 25.4516 101.316 25.4273V24.4492C101.316 23.5822 101.127 22.9162 100.75 22.448C100.372 21.9798 99.816 21.7474 99.0747 21.7474C98.6202 21.7474 98.2321 21.8098 97.9104 21.9347C97.5922 22.0596 97.3195 22.1983 97.0992 22.3509C96.8789 22.5 96.6971 22.6388 96.5572 22.7636C96.4174 22.8885 96.302 22.9509 96.2041 22.9509C96.0782 22.9509 95.9838 22.8954 95.9209 22.781L95.7601 22.507C96.2531 22.0179 96.774 21.6468 97.316 21.3936C97.8614 21.1439 98.4768 21.0156 99.1656 21.0156C99.6726 21.0156 100.113 21.0954 100.494 21.2549C100.875 21.4145 101.19 21.6434 101.438 21.9416C101.69 22.2399 101.875 22.6006 102.005 23.0238C102.131 23.4469 102.194 23.9186 102.194 24.4423V30.5431H101.833L101.837 30.5535ZM98.0397 30.0541C98.4069 30.0541 98.7425 30.0159 99.0502 29.9361C99.3579 29.8564 99.6411 29.7489 99.9034 29.6067C100.166 29.4645 100.41 29.298 100.638 29.1037C100.865 28.9095 101.089 28.698 101.312 28.4725V26.0343C100.414 26.0586 99.6411 26.1279 98.9908 26.2354C98.3404 26.3464 97.8055 26.4956 97.3859 26.6828C96.9663 26.8701 96.6551 27.0956 96.4558 27.3557C96.2565 27.6158 96.1586 27.9141 96.1586 28.2471C96.1586 28.5592 96.2111 28.8332 96.316 29.0621C96.4209 29.291 96.5572 29.4783 96.7286 29.6275C96.8999 29.7766 97.0992 29.8841 97.3265 29.9535C97.5537 30.0229 97.7915 30.0575 98.0397 30.0575" fill="#F26649"/>
<path id="Vector_33" d="M105.711 21.1856V27.1755C105.711 28.0529 105.914 28.7431 106.319 29.2426C106.725 29.742 107.344 29.9917 108.176 29.9917C108.791 29.9917 109.368 29.8357 109.9 29.5235C110.431 29.2114 110.914 28.7813 111.337 28.2298V21.1856H112.239V30.5571H111.742C111.568 30.5571 111.477 30.4738 111.47 30.3108L111.382 28.9166C110.945 29.4576 110.438 29.8877 109.865 30.2172C109.291 30.5432 108.651 30.7062 107.949 30.7062C107.421 30.7062 106.963 30.623 106.571 30.46C106.179 30.2969 105.851 30.0611 105.592 29.7524C105.333 29.4437 105.138 29.0761 105.005 28.6426C104.872 28.209 104.805 27.72 104.805 27.1755V21.1856H105.707H105.711Z" fill="#F26649"/>
</g>
</svg>
