<svg width="138" height="21" viewBox="0 0 138 21" fill="none" xmlns="http://www.w3.org/2000/svg">
<g id="Size=Small, Colour=Default">
<path id="Vector" d="M10.4366 0.114458C9.66171 0.359804 9.23235 1.18785 9.4777 1.96068L10.455 5.03977L9.34072 7.18859L6.43337 6.98618L1.92718 5.51206C1.15435 5.25854 0.324259 5.67972 0.07278 6.45256C-0.178699 7.2254 0.242477 8.05548 1.01327 8.30901L3.25614 9.043L2.28498 9.8874C1.67162 10.421 1.60619 11.3492 2.13982 11.9626C2.67344 12.576 3.60167 12.6414 4.21503 12.1078L6.65213 9.98962L9.08515 10.1593L9.51655 11.5189L5.8977 12.3654C5.10646 12.5514 4.61577 13.3427 4.79977 14.1319C4.98378 14.9231 5.77502 15.4138 6.56831 15.2278L10.6676 14.2689L12.2706 17.2927C12.6529 18.0104 13.5423 18.2844 14.2599 17.902C14.7261 17.6546 15.0041 17.1926 15.0389 16.7039C15.0573 16.4381 15.0041 16.1642 14.8712 15.9127L12.798 12.0055L11.8126 8.89988L13.115 6.38918L19.5144 3.95616C20.0848 3.7558 20.4549 3.23853 20.4937 2.67219C20.508 2.47796 20.4815 2.27759 20.414 2.08131C20.1441 1.31665 19.3038 0.911832 18.5371 1.18171L12.9964 3.31213L12.2869 1.07335C12.0416 0.298467 11.2156 -0.128843 10.4407 0.116503" fill="#F26649"/>
<path id="Vector_2" d="M29.8741 8.2826H28.5799C28.4347 8.2826 28.3182 8.24784 28.2282 8.18037C28.1383 8.1129 28.0708 8.02499 28.0258 7.91663L27.482 6.37913H24.2741L23.7302 7.91663C23.6934 8.00863 23.628 8.09246 23.536 8.16811C23.444 8.24375 23.3275 8.2826 23.1864 8.2826H21.882L25.0285 0.227081H26.7337L29.8761 8.2826H29.8741ZM24.6789 5.22396H27.0772L26.2062 2.76028C26.1551 2.63147 26.0999 2.47813 26.0426 2.30434C25.9854 2.13056 25.9281 1.94246 25.8729 1.74414C25.8218 1.94859 25.7666 2.13669 25.7114 2.31252C25.6562 2.48835 25.603 2.64169 25.5499 2.7705L24.6789 5.22396Z" fill="#212121"/>
<path id="Vector_3" d="M32.0331 8.37031C31.7734 8.37031 31.5445 8.33146 31.3441 8.25582C31.1437 8.18017 30.9761 8.07181 30.8391 7.93073C30.7021 7.78966 30.5978 7.61996 30.5283 7.4196C30.4588 7.21923 30.424 6.99433 30.424 6.74285V3.65558H29.8863C29.8045 3.65558 29.735 3.629 29.6778 3.57789C29.6205 3.52678 29.5919 3.44908 29.5919 3.34481V2.74576L30.5079 2.57811L30.8186 1.09581C30.8595 0.930201 30.972 0.846375 31.158 0.846375H31.9575V2.59037H33.4336V3.65558H31.9575V6.64267C31.9575 6.80214 31.9963 6.92686 32.072 7.02091C32.1476 7.11291 32.256 7.15994 32.397 7.15994C32.4706 7.15994 32.534 7.15176 32.5851 7.1354C32.6363 7.11905 32.6812 7.10065 32.718 7.0802C32.7548 7.05976 32.7896 7.04135 32.8203 7.025C32.8509 7.00864 32.8836 7.00046 32.9184 7.00046C32.9634 7.00046 33.0002 7.01069 33.0288 7.03113C33.0574 7.05158 33.0881 7.08633 33.1167 7.13336L33.5767 7.86531C33.3662 8.03296 33.1269 8.15768 32.8611 8.24355C32.5954 8.32942 32.3193 8.37031 32.0352 8.37031" fill="#212121"/>
<path id="Vector_4" d="M35.7911 0.0062561H34.2597V8.28259H35.7911V0.0062561Z" fill="#212121"/>
<path id="Vector_5" d="M40.8533 8.28256C40.7081 8.28256 40.5998 8.26211 40.5241 8.22122C40.4485 8.18033 40.3851 8.09446 40.3381 7.96565L40.2154 7.60377C40.0702 7.73053 39.9312 7.83889 39.7963 7.93499C39.6613 8.02903 39.5203 8.10877 39.3751 8.1742C39.2299 8.23962 39.0725 8.28869 38.9089 8.3214C38.7433 8.35412 38.5614 8.37047 38.361 8.37047C38.1095 8.37047 37.8805 8.33776 37.672 8.27029C37.4655 8.20282 37.2856 8.10468 37.1363 7.97383C36.9871 7.84298 36.8705 7.67942 36.7888 7.48314C36.707 7.28686 36.6661 7.06196 36.6661 6.80639C36.6661 6.59581 36.7192 6.38522 36.8276 6.17667C36.9339 5.96813 37.12 5.77594 37.3796 5.6042C37.6413 5.43246 37.9889 5.2873 38.4244 5.17484C38.8599 5.06035 39.4037 4.99493 40.06 4.98061V4.6862C40.06 4.32636 39.9844 4.06261 39.8331 3.89496C39.6818 3.72731 39.463 3.64143 39.1788 3.64143C38.9682 3.64143 38.7924 3.66597 38.6513 3.71708C38.5103 3.76615 38.3876 3.82135 38.2813 3.8786C38.175 3.93585 38.0768 3.98901 37.9848 4.04012C37.8928 4.08919 37.7844 4.11577 37.6618 4.11577C37.5555 4.11577 37.4655 4.08919 37.3919 4.03603C37.3203 3.98287 37.259 3.91949 37.212 3.84384L36.94 3.3552C37.2774 3.0526 37.6495 2.82566 38.0564 2.67436C38.4632 2.52307 38.9028 2.44946 39.3771 2.44946C39.7165 2.44946 40.0212 2.50467 40.2911 2.61507C40.5589 2.72548 40.7858 2.88086 40.9739 3.07918C41.16 3.2775 41.3052 3.51263 41.4033 3.7866C41.5035 4.06057 41.5525 4.36112 41.5525 4.6862V8.28256H40.8533ZM38.8374 7.33798C39.0889 7.33798 39.3097 7.293 39.4978 7.20099C39.6859 7.11103 39.874 6.96996 40.058 6.78186V5.89453C39.6838 5.90884 39.3731 5.94155 39.1257 5.98858C38.8783 6.03764 38.68 6.09694 38.5348 6.1685C38.3896 6.24005 38.2854 6.32388 38.224 6.41793C38.1627 6.51198 38.132 6.61421 38.132 6.72666C38.132 6.94951 38.1934 7.10694 38.3181 7.19895C38.4428 7.29095 38.6145 7.33798 38.8374 7.33798Z" fill="#212121"/>
<path id="Vector_6" d="M46.3103 3.73542C46.2694 3.7988 46.2285 3.84378 46.1855 3.87036C46.1426 3.89899 46.0854 3.9133 46.0097 3.9133C45.9341 3.9133 45.8605 3.8949 45.7828 3.8581C45.7051 3.82129 45.6172 3.7804 45.5211 3.73951C45.425 3.69658 45.3146 3.65773 45.1919 3.62093C45.0672 3.58413 44.9241 3.56573 44.7605 3.56573C44.5131 3.56573 44.3209 3.61684 44.1839 3.71907C44.047 3.82129 43.9774 3.95419 43.9774 4.12184C43.9774 4.23634 44.0163 4.33243 44.094 4.41012C44.1717 4.48782 44.2739 4.55529 44.4027 4.61253C44.5295 4.66978 44.6746 4.72294 44.8382 4.77405C45.0018 4.82312 45.1674 4.87833 45.3412 4.93762C45.5129 4.99691 45.6805 5.06438 45.8441 5.14412C46.0077 5.22181 46.1528 5.3179 46.2796 5.43444C46.4064 5.55098 46.5106 5.69206 46.5883 5.85562C46.666 6.02123 46.7049 6.21955 46.7049 6.45263C46.7049 6.73069 46.6537 6.98625 46.5515 7.22138C46.4493 7.4565 46.3 7.65891 46.1038 7.82861C45.9075 7.99831 45.6642 8.1312 45.3718 8.22934C45.0794 8.32543 44.7421 8.3745 44.3618 8.3745C44.1655 8.3745 43.9713 8.3561 43.7791 8.32134C43.5869 8.28659 43.4029 8.23547 43.2291 8.17209C43.0553 8.10667 42.8918 8.03306 42.7405 7.94719C42.5892 7.86132 42.4583 7.76932 42.3459 7.66913L42.7016 7.09666C42.7425 7.02919 42.7936 6.97808 42.855 6.94127C42.9163 6.90447 42.994 6.88607 43.0901 6.88607C43.1862 6.88607 43.268 6.90856 43.3457 6.95559C43.4234 7.00261 43.5092 7.05168 43.6074 7.10484C43.7055 7.158 43.818 7.20911 43.9488 7.25409C44.0797 7.30112 44.2432 7.32361 44.4395 7.32361C44.5867 7.32361 44.7155 7.30725 44.8218 7.27454C44.9282 7.24182 45.0161 7.1948 45.0835 7.13755C45.151 7.0803 45.2001 7.01488 45.2307 6.94332C45.2614 6.87176 45.2778 6.79611 45.2778 6.71842C45.2778 6.5937 45.2389 6.48943 45.1592 6.40969C45.0794 6.32995 44.9752 6.26044 44.8484 6.20115C44.7217 6.14186 44.5744 6.0887 44.4068 6.03963C44.2412 5.99056 44.0715 5.9374 43.8997 5.87811C43.728 5.81882 43.5583 5.7493 43.3947 5.66752C43.2291 5.58574 43.084 5.48351 42.9572 5.35879C42.8304 5.23408 42.7262 5.08278 42.6464 4.90082C42.5667 4.71885 42.5279 4.50008 42.5279 4.24043C42.5279 4.00326 42.5749 3.77836 42.6669 3.56573C42.7589 3.35309 42.8979 3.16499 43.084 3.00143C43.268 2.83787 43.499 2.70906 43.775 2.61297C44.051 2.51687 44.37 2.46985 44.7319 2.46985C45.1387 2.46985 45.5088 2.53732 45.8421 2.67021C46.1753 2.80311 46.4493 2.9769 46.664 3.19157L46.3144 3.73542H46.3103Z" fill="#212121"/>
<path id="Vector_7" d="M52.8835 2.46985C53.3128 2.46985 53.7033 2.53936 54.055 2.67635C54.4066 2.81333 54.7072 3.00756 54.9607 3.26109C55.2122 3.51461 55.4064 3.82334 55.5434 4.18522C55.6804 4.54711 55.7499 4.95602 55.7499 5.41195C55.7499 5.86789 55.6824 6.2768 55.5434 6.64073C55.4064 7.00466 55.2122 7.31543 54.9607 7.571C54.7092 7.82656 54.4066 8.02284 54.055 8.15983C53.7033 8.29681 53.3128 8.36428 52.8835 8.36428C52.4541 8.36428 52.0575 8.29681 51.7037 8.15983C51.35 8.02284 51.0474 7.82656 50.796 7.571C50.5445 7.31543 50.3482 7.00466 50.2112 6.64073C50.0722 6.2768 50.0027 5.86584 50.0027 5.41195C50.0027 4.95806 50.0722 4.54711 50.2112 4.18522C50.3503 3.82334 50.5445 3.51461 50.796 3.26109C51.0474 3.00756 51.35 2.81333 51.7037 2.67635C52.0575 2.53936 52.45 2.46985 52.8835 2.46985ZM52.8835 7.21524C53.321 7.21524 53.644 7.06395 53.8546 6.7634C54.0652 6.46081 54.1715 6.01305 54.1715 5.41809C54.1715 4.82312 54.0652 4.37946 53.8546 4.07686C53.644 3.77631 53.321 3.62502 52.8835 3.62502C52.4459 3.62502 52.1065 3.77631 51.8959 4.07686C51.6853 4.37946 51.579 4.82517 51.579 5.41809C51.579 6.01101 51.6853 6.46285 51.8959 6.7634C52.1065 7.06599 52.4357 7.21524 52.8835 7.21524Z" fill="#212121"/>
<path id="Vector_8" d="M56.9787 8.28244V3.65767L56.535 3.57998C56.4205 3.55749 56.3265 3.5166 56.2549 3.4573C56.1833 3.39801 56.1465 3.31419 56.1465 3.20174V2.59042H56.9787V2.21218C56.9787 1.88709 57.0298 1.59063 57.132 1.32689C57.2342 1.06314 57.3794 0.838239 57.5675 0.656274C57.7556 0.472265 57.9866 0.331191 58.2606 0.231009C58.5346 0.130826 58.8433 0.0817566 59.1868 0.0817566C59.3197 0.0817566 59.4464 0.0899348 59.5671 0.106291C59.6877 0.122648 59.8083 0.147182 59.931 0.181939L59.8983 0.936377C59.8901 1.05087 59.841 1.12652 59.7511 1.16128C59.6611 1.19604 59.5589 1.21444 59.4485 1.21444C59.2931 1.21444 59.1541 1.23079 59.0294 1.26351C58.9046 1.29622 58.8004 1.35347 58.7165 1.4332C58.6307 1.51294 58.5673 1.61926 58.5223 1.75624C58.4773 1.89118 58.4548 2.05883 58.4548 2.2592V2.59246H59.8758V3.65767H58.5039V8.28244H56.9766H56.9787Z" fill="#212121"/>
<path id="Vector_9" d="M64.8788 6.92706H67.9926V8.2826H63.2125V0.227081H64.8788V6.92706Z" fill="#212121"/>
<path id="Vector_10" d="M70.5565 0.932314C70.5565 1.06112 70.5299 1.18175 70.4788 1.29215C70.4277 1.40256 70.3582 1.5007 70.2703 1.58657C70.1824 1.67244 70.0822 1.73787 69.9656 1.78693C69.8491 1.836 69.7244 1.85849 69.5915 1.85849C69.4647 1.85849 69.3461 1.83396 69.2337 1.78693C69.1212 1.73991 69.0211 1.67244 68.9372 1.58657C68.8514 1.5007 68.7859 1.40256 68.7348 1.29215C68.6858 1.18175 68.6592 1.06112 68.6592 0.932314C68.6592 0.803507 68.6837 0.680834 68.7348 0.568384C68.7839 0.455934 68.8514 0.355751 68.9372 0.271925C69.0231 0.186054 69.1212 0.120628 69.2337 0.0715592C69.3461 0.0245346 69.4668 0 69.5915 0C69.7244 0 69.8491 0.0245346 69.9656 0.0715592C70.0822 0.120628 70.1844 0.186054 70.2703 0.271925C70.3562 0.357796 70.4257 0.455934 70.4788 0.568384C70.532 0.680834 70.5565 0.801463 70.5565 0.932314ZM70.3725 8.28246H68.8411V2.55977H70.3725V8.28246Z" fill="#212121"/>
<path id="Vector_11" d="M71.0674 2.55957H72.3391C72.4495 2.55957 72.5415 2.58615 72.6171 2.63726C72.6908 2.68838 72.7419 2.75585 72.7725 2.83763L73.7335 5.66933C73.7969 5.86151 73.8521 6.04961 73.8991 6.23362C73.9482 6.41559 73.9911 6.60164 74.0279 6.78565C74.0688 6.60164 74.1138 6.41559 74.1628 6.23362C74.2119 6.04961 74.2712 5.86151 74.3387 5.66933L75.3323 2.83763C75.3589 2.75585 75.408 2.69042 75.4816 2.63726C75.5552 2.58615 75.6431 2.55957 75.7433 2.55957H76.9536L74.7046 8.28226H73.3164L71.0694 2.55957H71.0674Z" fill="#212121"/>
<path id="Vector_12" d="M79.3603 0.932314C79.3603 1.06112 79.3337 1.18175 79.2826 1.29215C79.2294 1.40256 79.162 1.5007 79.0741 1.58657C78.9882 1.67244 78.886 1.73787 78.7694 1.78693C78.6529 1.836 78.5282 1.85849 78.3953 1.85849C78.2685 1.85849 78.1499 1.83396 78.0375 1.78693C77.925 1.73991 77.8248 1.67244 77.741 1.58657C77.6551 1.5007 77.5877 1.40256 77.5386 1.29215C77.4895 1.18175 77.463 1.06112 77.463 0.932314C77.463 0.803507 77.4875 0.680834 77.5386 0.568384C77.5877 0.455934 77.6572 0.355751 77.741 0.271925C77.8269 0.186054 77.925 0.120628 78.0375 0.0715592C78.1499 0.0245346 78.2705 0 78.3953 0C78.5282 0 78.6529 0.0245346 78.7694 0.0715592C78.886 0.120628 78.9882 0.186054 79.0741 0.271925C79.162 0.357796 79.2294 0.455934 79.2826 0.568384C79.3337 0.680834 79.3603 0.801463 79.3603 0.932314ZM79.1763 8.28246H77.6449V2.55977H79.1763V8.28246Z" fill="#212121"/>
<path id="Vector_13" d="M80.4889 8.2825V2.55981H81.4314C81.6236 2.55981 81.7524 2.64772 81.8138 2.8256L81.9078 3.22429C82.0223 3.11388 82.1409 3.01165 82.2656 2.91965C82.3903 2.82764 82.5212 2.74791 82.6602 2.68044C82.7992 2.61297 82.9485 2.56185 83.11 2.52505C83.2715 2.48825 83.4453 2.46985 83.6355 2.46985C83.9462 2.46985 84.2222 2.52301 84.4635 2.63137C84.7047 2.73768 84.9072 2.88898 85.0707 3.08117C85.2343 3.27336 85.359 3.50235 85.4428 3.77018C85.5267 4.03597 85.5675 4.32834 85.5675 4.64729V8.2825H84.0403V4.64729C84.0403 4.32834 83.9667 4.083 83.8174 3.90717C83.6702 3.73133 83.4514 3.64342 83.1632 3.64342C82.9444 3.64342 82.742 3.69044 82.5559 3.78449C82.3699 3.87854 82.19 4.00735 82.0203 4.17091V8.28454H80.4889V8.2825Z" fill="#212121"/>
<path id="Vector_14" d="M88.9145 2.45953C89.1578 2.45953 89.3888 2.48407 89.6056 2.53518C89.8223 2.5863 90.0206 2.65581 90.2026 2.74986H91.8852V3.31007C91.8852 3.39798 91.8607 3.46954 91.8096 3.52065C91.7605 3.57177 91.6767 3.61061 91.5622 3.63719L91.096 3.73124C91.1594 3.91321 91.1901 4.10744 91.1901 4.31394C91.1901 4.59813 91.1328 4.85574 91.0163 5.08269C90.8998 5.30963 90.7403 5.50387 90.5358 5.66538C90.3334 5.8269 90.0922 5.94958 89.8141 6.03749C89.5361 6.12541 89.2376 6.16834 88.9145 6.16834C88.8143 6.16834 88.7162 6.16425 88.6201 6.15608C88.524 6.1479 88.43 6.13768 88.3359 6.12336C88.1846 6.21537 88.109 6.31964 88.109 6.43413C88.109 6.5425 88.1621 6.62019 88.2664 6.66721C88.3727 6.71628 88.5117 6.749 88.6835 6.76944C88.8552 6.78989 89.0515 6.80215 89.2723 6.80829C89.4931 6.81442 89.716 6.82669 89.9429 6.84509C90.1699 6.86349 90.3948 6.8962 90.6156 6.94323C90.8364 6.99025 91.0306 7.0659 91.2044 7.17017C91.3761 7.27444 91.5152 7.41552 91.6215 7.5893C91.7258 7.76309 91.7789 7.98799 91.7789 8.26196C91.7789 8.51753 91.7155 8.76492 91.5908 9.00618C91.4641 9.24743 91.2821 9.46211 91.0449 9.65021C90.8057 9.83831 90.5133 9.99165 90.1658 10.1061C89.8182 10.2206 89.4216 10.2779 88.9779 10.2779C88.5342 10.2779 88.156 10.237 87.8309 10.1532C87.5058 10.0693 87.238 9.95893 87.0253 9.81991C86.8127 9.68088 86.6532 9.5214 86.551 9.33944C86.4467 9.15747 86.3956 8.96937 86.3956 8.7731C86.3956 8.51753 86.4733 8.30081 86.6287 8.12293C86.7841 7.94506 86.9967 7.80194 87.2666 7.69562C87.1214 7.61384 87.0069 7.50752 86.9231 7.37667C86.8372 7.24582 86.7964 7.07408 86.7964 6.86349C86.7964 6.69379 86.8577 6.51387 86.9824 6.32782C87.1071 6.14176 87.2952 5.98433 87.5508 5.85962C87.2584 5.70014 87.0274 5.48955 86.8597 5.2299C86.69 4.96819 86.6062 4.6656 86.6062 4.31598C86.6062 4.03179 86.6655 3.77418 86.782 3.54519C86.8986 3.3162 87.0601 3.11992 87.2686 2.96045C87.4751 2.79893 87.7205 2.67626 88.0006 2.59038C88.2827 2.50451 88.5874 2.46362 88.9166 2.46362M90.3661 8.51957C90.3661 8.41939 90.3355 8.33761 90.2721 8.27627C90.2087 8.21289 90.1249 8.16382 90.0186 8.12702C89.9123 8.09022 89.7875 8.06364 89.6444 8.04728C89.4993 8.03093 89.3459 8.01661 89.1844 8.00844C89.0208 7.99821 88.8532 7.99208 88.6773 7.9839C88.5015 7.97572 88.3298 7.96346 88.1642 7.94506C88.0354 8.02275 87.929 8.11475 87.8473 8.21903C87.7655 8.32534 87.7246 8.44393 87.7246 8.57682C87.7246 8.66883 87.7471 8.7547 87.788 8.83239C87.8309 8.91008 87.9025 8.97755 88.0026 9.03276C88.1028 9.08796 88.2337 9.13089 88.3972 9.16361C88.5608 9.19427 88.7632 9.21063 89.0086 9.21063C89.2539 9.21063 89.4727 9.19427 89.6465 9.16156C89.8202 9.12885 89.9613 9.08182 90.0676 9.02049C90.174 8.95915 90.2516 8.88555 90.2987 8.80172C90.3457 8.71585 90.3682 8.62385 90.3682 8.52366M88.9186 5.21558C89.2335 5.21558 89.4645 5.13585 89.6158 4.97637C89.765 4.8169 89.8407 4.61244 89.8407 4.36096C89.8407 4.10948 89.765 3.89276 89.6158 3.74147C89.4665 3.59017 89.2335 3.51657 88.9186 3.51657C88.6037 3.51657 88.3727 3.59221 88.2255 3.74147C88.0783 3.89072 88.0047 4.09722 88.0047 4.36096C88.0047 4.60835 88.0803 4.81281 88.2296 4.97433C88.3788 5.13585 88.6099 5.21558 88.9206 5.21558" fill="#212121"/>
<path id="Vector_15" d="M102.204 8.2826H100.91C100.765 8.2826 100.648 8.24784 100.558 8.18037C100.466 8.1129 100.401 8.02499 100.356 7.91663L99.8119 6.37913H96.604L96.0602 7.91663C96.0234 8.00863 95.958 8.09246 95.866 8.16811C95.774 8.24375 95.6574 8.2826 95.5163 8.2826H94.2119L97.3585 0.227081H99.0616L102.204 8.2826ZM97.0089 5.22396H99.4071L98.5361 2.76028C98.485 2.63147 98.4298 2.47813 98.3726 2.30434C98.3153 2.13056 98.2581 1.94246 98.2029 1.74414C98.1518 1.94859 98.0966 2.13669 98.0414 2.31252C97.9862 2.48835 97.933 2.64169 97.8798 2.7705L97.0089 5.22396Z" fill="#212121"/>
<path id="Vector_16" d="M104.091 2.55975V6.197C104.091 6.51595 104.165 6.7613 104.31 6.93713C104.455 7.11296 104.674 7.20088 104.962 7.20088C105.177 7.20088 105.379 7.15385 105.567 7.0598C105.755 6.96575 105.935 6.83695 106.105 6.67338V2.55975H107.636V8.28244H106.692C106.496 8.28244 106.371 8.19248 106.314 8.01665L106.213 7.61796C105.984 7.84286 105.733 8.02687 105.461 8.16386C105.189 8.30289 104.866 8.3724 104.492 8.3724C104.181 8.3724 103.903 8.31924 103.662 8.21088C103.421 8.10457 103.216 7.95327 103.055 7.76108C102.891 7.5689 102.768 7.33991 102.682 7.07207C102.597 6.80628 102.554 6.51391 102.554 6.19496V2.55975H104.087H104.091Z" fill="#212121"/>
<path id="Vector_17" d="M112.462 3.73542C112.421 3.7988 112.38 3.84378 112.337 3.87036C112.294 3.89899 112.237 3.9133 112.163 3.9133C112.089 3.9133 112.014 3.8949 111.936 3.8581C111.858 3.82129 111.773 3.7804 111.674 3.73951C111.578 3.69658 111.468 3.65773 111.343 3.62093C111.218 3.58413 111.075 3.56573 110.914 3.56573C110.666 3.56573 110.474 3.61684 110.337 3.71907C110.2 3.82129 110.131 3.95419 110.131 4.12184C110.131 4.23634 110.17 4.33243 110.247 4.41012C110.325 4.48782 110.427 4.55529 110.556 4.61253C110.685 4.66978 110.83 4.72294 110.992 4.77405C111.155 4.82312 111.323 4.87833 111.495 4.93762C111.666 4.99691 111.834 5.06438 111.997 5.14412C112.159 5.22181 112.306 5.3179 112.433 5.43444C112.562 5.55098 112.664 5.69206 112.742 5.85562C112.819 6.02123 112.858 6.21955 112.858 6.45263C112.858 6.73069 112.807 6.98625 112.705 7.22138C112.603 7.4565 112.453 7.65891 112.259 7.82861C112.063 7.99831 111.82 8.1312 111.527 8.22934C111.235 8.32543 110.897 8.3745 110.517 8.3745C110.321 8.3745 110.127 8.3561 109.935 8.32134C109.742 8.28659 109.558 8.23547 109.385 8.17209C109.211 8.10667 109.047 8.03306 108.896 7.94719C108.745 7.86132 108.612 7.76932 108.501 7.66913L108.857 7.09666C108.898 7.02919 108.949 6.97808 109.01 6.94127C109.072 6.90447 109.149 6.88607 109.246 6.88607C109.342 6.88607 109.423 6.90856 109.501 6.95559C109.579 7.00261 109.665 7.05168 109.763 7.10484C109.861 7.158 109.973 7.20911 110.104 7.25409C110.235 7.30112 110.399 7.32361 110.595 7.32361C110.742 7.32361 110.871 7.30725 110.977 7.27454C111.084 7.24182 111.171 7.1948 111.239 7.13755C111.306 7.0803 111.353 7.01488 111.386 6.94332C111.417 6.87176 111.433 6.79611 111.433 6.71842C111.433 6.5937 111.392 6.48943 111.315 6.40969C111.235 6.32995 111.131 6.26044 111.004 6.20115C110.877 6.14186 110.73 6.0887 110.562 6.03963C110.397 5.99056 110.227 5.9374 110.055 5.87811C109.883 5.81882 109.714 5.7493 109.55 5.66752C109.387 5.58574 109.239 5.48351 109.113 5.35879C108.986 5.23408 108.882 5.08278 108.802 4.90082C108.722 4.71885 108.683 4.50008 108.683 4.24043C108.683 4.00326 108.73 3.77836 108.822 3.56573C108.914 3.35309 109.053 3.16499 109.239 3.00143C109.423 2.83787 109.654 2.70906 109.93 2.61297C110.206 2.51687 110.525 2.46985 110.887 2.46985C111.294 2.46985 111.664 2.53732 111.997 2.67021C112.331 2.80311 112.605 2.9769 112.819 3.19157L112.47 3.73542H112.462Z" fill="#212121"/>
<path id="Vector_18" d="M115.792 8.37031C115.532 8.37031 115.303 8.33146 115.103 8.25582C114.903 8.18017 114.735 8.07181 114.598 7.93073C114.461 7.78966 114.357 7.61996 114.287 7.4196C114.218 7.21923 114.181 6.99433 114.181 6.74285V3.65558H113.643C113.562 3.65558 113.492 3.629 113.435 3.57789C113.377 3.52678 113.349 3.44908 113.349 3.34481V2.74576L114.265 2.57811L114.576 1.09581C114.616 0.930201 114.729 0.846375 114.915 0.846375H115.714V2.59037H117.191V3.65558H115.714V6.64267C115.714 6.80214 115.753 6.92686 115.829 7.02091C115.905 7.11291 116.013 7.15994 116.154 7.15994C116.228 7.15994 116.291 7.15176 116.342 7.1354C116.393 7.11905 116.438 7.10065 116.475 7.0802C116.512 7.05976 116.547 7.04135 116.577 7.025C116.608 7.00864 116.641 7.00046 116.675 7.00046C116.72 7.00046 116.757 7.01069 116.786 7.03113C116.816 7.05158 116.845 7.08633 116.874 7.13336L117.334 7.86531C117.123 8.03296 116.884 8.15768 116.618 8.24355C116.352 8.32942 116.076 8.37031 115.792 8.37031Z" fill="#212121"/>
<path id="Vector_19" d="M118.006 8.28244V2.55975H118.91C119.065 2.55975 119.172 2.58837 119.233 2.64357C119.292 2.69878 119.335 2.79487 119.36 2.93185L119.438 3.50433C119.619 3.17924 119.828 2.92163 120.067 2.73353C120.306 2.54543 120.585 2.45139 120.901 2.45139C121.161 2.45139 121.372 2.51272 121.535 2.63539L121.435 3.76807C121.417 3.84168 121.388 3.89279 121.349 3.92142C121.31 3.95004 121.257 3.96231 121.192 3.96231C121.132 3.96231 121.047 3.95413 120.936 3.93777C120.826 3.92142 120.722 3.91324 120.625 3.91324C120.343 3.91324 120.12 3.99093 119.957 4.14427C119.793 4.29761 119.652 4.51229 119.538 4.78626V8.28857H118.006V8.28244Z" fill="#212121"/>
<path id="Vector_20" d="M125.913 8.28256C125.768 8.28256 125.659 8.26211 125.581 8.22122C125.506 8.18033 125.444 8.09446 125.395 7.96565L125.273 7.60377C125.128 7.73053 124.989 7.83889 124.854 7.93499C124.719 8.02903 124.578 8.10877 124.432 8.1742C124.285 8.23962 124.13 8.28869 123.966 8.3214C123.803 8.35412 123.619 8.37047 123.42 8.37047C123.169 8.37047 122.94 8.33776 122.731 8.27029C122.525 8.20282 122.345 8.10468 122.196 7.97383C122.046 7.84298 121.93 7.67942 121.848 7.48314C121.766 7.28686 121.725 7.06196 121.725 6.80639C121.725 6.59581 121.779 6.38522 121.887 6.17667C121.993 5.96813 122.177 5.77594 122.439 5.6042C122.701 5.43246 123.048 5.2873 123.484 5.17484C123.919 5.06035 124.463 4.99493 125.117 4.98061V4.6862C125.117 4.32636 125.042 4.06261 124.89 3.89496C124.739 3.72731 124.52 3.64143 124.236 3.64143C124.026 3.64143 123.85 3.66597 123.709 3.71708C123.568 3.76615 123.445 3.82135 123.339 3.8786C123.232 3.93585 123.134 3.98901 123.042 4.04012C122.95 4.08919 122.842 4.11577 122.719 4.11577C122.611 4.11577 122.523 4.08919 122.449 4.03603C122.378 3.98287 122.316 3.91949 122.269 3.84384L121.997 3.3552C122.335 3.0526 122.705 2.82566 123.114 2.67436C123.523 2.52307 123.962 2.44946 124.434 2.44946C124.776 2.44946 125.079 2.50467 125.348 2.61507C125.616 2.72548 125.845 2.88086 126.031 3.07918C126.217 3.2775 126.36 3.51263 126.461 3.7866C126.561 4.06057 126.61 4.36112 126.61 4.6862V8.28256H125.911H125.913ZM123.899 7.33798C124.15 7.33798 124.371 7.293 124.559 7.20099C124.747 7.11103 124.935 6.96996 125.119 6.78186V5.89453C124.745 5.90884 124.434 5.94155 124.187 5.98858C123.94 6.03764 123.741 6.09694 123.596 6.1685C123.449 6.24005 123.347 6.32388 123.285 6.41793C123.224 6.51198 123.193 6.61421 123.193 6.72666C123.193 6.94951 123.255 7.10694 123.38 7.19895C123.504 7.29095 123.676 7.33798 123.899 7.33798Z" fill="#212121"/>
<path id="Vector_21" d="M129.352 0.0062561H127.82V8.28259H129.352V0.0062561Z" fill="#212121"/>
<path id="Vector_22" d="M132.39 0.932314C132.39 1.06112 132.363 1.18175 132.312 1.29215C132.261 1.40256 132.191 1.5007 132.103 1.58657C132.018 1.67244 131.915 1.73787 131.799 1.78693C131.682 1.836 131.558 1.85849 131.425 1.85849C131.298 1.85849 131.179 1.83396 131.067 1.78693C130.954 1.73991 130.856 1.67244 130.77 1.58657C130.685 1.5007 130.617 1.40256 130.568 1.29215C130.519 1.18175 130.492 1.06112 130.492 0.932314C130.492 0.803507 130.517 0.680834 130.568 0.568384C130.617 0.455934 130.687 0.355751 130.77 0.271925C130.856 0.186054 130.954 0.120628 131.067 0.0715592C131.179 0.0245346 131.3 0 131.425 0C131.558 0 131.682 0.0245346 131.799 0.0715592C131.915 0.120628 132.018 0.186054 132.103 0.271925C132.191 0.357796 132.261 0.455934 132.312 0.568384C132.365 0.680834 132.39 0.801463 132.39 0.932314ZM132.206 8.28246H130.674V2.55977H132.206V8.28246Z" fill="#212121"/>
<path id="Vector_23" d="M137.303 8.28256C137.158 8.28256 137.049 8.26211 136.972 8.22122C136.896 8.18033 136.835 8.09446 136.786 7.96565L136.663 7.60377C136.518 7.73053 136.379 7.83889 136.244 7.93499C136.109 8.02903 135.968 8.10877 135.823 8.1742C135.675 8.23962 135.52 8.28869 135.356 8.3214C135.193 8.35412 135.009 8.37047 134.81 8.37047C134.559 8.37047 134.33 8.33776 134.121 8.27029C133.915 8.20282 133.735 8.10468 133.586 7.97383C133.437 7.84298 133.32 7.67942 133.238 7.48314C133.156 7.28686 133.116 7.06196 133.116 6.80639C133.116 6.59581 133.169 6.38522 133.277 6.17667C133.383 5.96813 133.567 5.77594 133.829 5.6042C134.091 5.43246 134.438 5.2873 134.874 5.17484C135.309 5.06035 135.853 4.99493 136.507 4.98061V4.6862C136.507 4.32636 136.432 4.06261 136.28 3.89496C136.129 3.72731 135.91 3.64143 135.626 3.64143C135.416 3.64143 135.24 3.66597 135.099 3.71708C134.958 3.76615 134.835 3.82135 134.729 3.8786C134.622 3.93585 134.524 3.98901 134.432 4.04012C134.34 4.08919 134.232 4.11577 134.109 4.11577C134.001 4.11577 133.913 4.08919 133.839 4.03603C133.768 3.98287 133.706 3.91949 133.659 3.84384L133.387 3.3552C133.725 3.0526 134.097 2.82566 134.504 2.67436C134.911 2.52511 135.352 2.44946 135.825 2.44946C136.166 2.44946 136.469 2.50467 136.738 2.61507C137.006 2.72548 137.233 2.88086 137.421 3.07918C137.607 3.2775 137.753 3.51263 137.851 3.7866C137.951 4.06057 138 4.36112 138 4.6862V8.28256H137.301H137.303ZM135.289 7.33798C135.54 7.33798 135.761 7.293 135.949 7.20099C136.137 7.11103 136.325 6.96996 136.509 6.78186V5.89453C136.135 5.90884 135.825 5.94155 135.577 5.98858C135.33 6.03764 135.131 6.09694 134.986 6.1685C134.839 6.24005 134.737 6.32388 134.676 6.41793C134.614 6.51198 134.584 6.61421 134.584 6.72666C134.584 6.94951 134.645 7.10694 134.77 7.19895C134.894 7.29095 135.066 7.33798 135.289 7.33798Z" fill="#212121"/>
<path id="Vector_24" d="M25.7114 17.9858C25.601 17.9858 25.5314 17.9347 25.5069 17.8305L25.4292 17.1251C25.2779 17.2723 25.1266 17.4072 24.9774 17.5238C24.8281 17.6424 24.6707 17.7425 24.5092 17.8243C24.3456 17.9061 24.1718 17.9674 23.9817 18.0104C23.7936 18.0533 23.585 18.0738 23.3601 18.0738C23.172 18.0738 22.988 18.0451 22.8102 17.9899C22.6323 17.9347 22.4748 17.8489 22.3379 17.7344C22.2009 17.6199 22.0905 17.4727 22.0087 17.2927C21.9249 17.1128 21.884 16.8981 21.884 16.6467C21.884 16.4136 21.9514 16.1969 22.0843 15.9965C22.2172 15.7961 22.4258 15.6224 22.7079 15.4751C22.9921 15.3279 23.356 15.2094 23.8018 15.1194C24.2475 15.0315 24.7831 14.9783 25.4088 14.964V14.3874C25.4088 13.8763 25.2984 13.4838 25.0776 13.2077C24.8567 12.9317 24.5317 12.7947 24.0982 12.7947C23.8324 12.7947 23.6055 12.8315 23.4174 12.9051C23.2313 12.9788 23.0719 13.0605 22.943 13.1505C22.8142 13.2384 22.7079 13.3202 22.6261 13.3938C22.5444 13.4674 22.4769 13.5042 22.4196 13.5042C22.346 13.5042 22.2908 13.4715 22.252 13.404L22.1579 13.2425C22.4462 12.9542 22.7509 12.7355 23.0678 12.5862C23.3867 12.439 23.7466 12.3633 24.1493 12.3633C24.4458 12.3633 24.7054 12.4104 24.9263 12.5044C25.1491 12.5985 25.3331 12.7334 25.4783 12.9092C25.6255 13.0851 25.7339 13.2977 25.8095 13.5471C25.8831 13.7966 25.9199 14.0746 25.9199 14.3834V17.9797H25.7093L25.7114 17.9858ZM23.491 17.6914C23.7057 17.6914 23.9019 17.6689 24.0819 17.6219C24.2618 17.5749 24.4274 17.5115 24.5807 17.4277C24.7341 17.3439 24.8772 17.2457 25.0101 17.1312C25.143 17.0167 25.2738 16.892 25.4047 16.7591V15.3218C24.8792 15.3361 24.4274 15.377 24.0471 15.4404C23.6668 15.5058 23.354 15.5937 23.1087 15.7041C22.8633 15.8145 22.6813 15.9474 22.5648 16.1008C22.4483 16.2541 22.391 16.4299 22.391 16.6262C22.391 16.8102 22.4217 16.9718 22.483 17.1067C22.5444 17.2416 22.6241 17.352 22.7243 17.44C22.8245 17.5279 22.941 17.5913 23.0739 17.6321C23.2068 17.673 23.3458 17.6935 23.491 17.6935" fill="#F26649"/>
<path id="Vector_25" d="M28.2691 9.90979H27.7416V17.9858H28.2691V9.90979Z" fill="#F26649"/>
<path id="Vector_26" d="M33.7485 17.9858C33.6381 17.9858 33.5686 17.9347 33.5441 17.8305L33.4664 17.1251C33.3151 17.2723 33.1638 17.4072 33.0145 17.5238C32.8653 17.6424 32.7079 17.7425 32.5463 17.8243C32.3828 17.9061 32.2069 17.9674 32.0188 18.0104C31.8307 18.0533 31.6222 18.0738 31.3973 18.0738C31.2092 18.0738 31.0252 18.0451 30.8473 17.9899C30.6694 17.9347 30.512 17.8489 30.375 17.7344C30.238 17.6199 30.1276 17.4727 30.0459 17.2927C29.962 17.1128 29.9211 16.8981 29.9211 16.6467C29.9211 16.4136 29.9886 16.1969 30.1215 15.9965C30.2544 15.7961 30.4629 15.6224 30.7451 15.4751C31.0272 15.3279 31.3932 15.2094 31.8389 15.1194C32.2846 15.0315 32.8203 14.9783 33.4459 14.964V14.3874C33.4459 13.8763 33.3355 13.4838 33.1147 13.2077C32.8939 12.9317 32.5688 12.7947 32.1354 12.7947C31.8696 12.7947 31.6427 12.8315 31.4546 12.9051C31.2685 12.9788 31.109 13.0605 30.9802 13.1505C30.8514 13.2384 30.7451 13.3202 30.6633 13.3938C30.5815 13.4674 30.5141 13.5042 30.4568 13.5042C30.3832 13.5042 30.328 13.4715 30.2912 13.404L30.1972 13.2425C30.4854 12.9542 30.7901 12.7355 31.107 12.5862C31.4259 12.439 31.7858 12.3633 32.1885 12.3633C32.485 12.3633 32.7447 12.4104 32.9655 12.5044C33.1883 12.5985 33.3723 12.7334 33.5175 12.9092C33.6647 13.0851 33.7731 13.2977 33.8487 13.5471C33.9223 13.7966 33.9591 14.0746 33.9591 14.3834V17.9797H33.7485V17.9858ZM31.5282 17.6914C31.7428 17.6914 31.9391 17.6689 32.119 17.6219C32.299 17.5749 32.4646 17.5115 32.6179 17.4277C32.7712 17.3439 32.9144 17.2457 33.0473 17.1312C33.1802 17.0167 33.311 16.892 33.4419 16.7591V15.3218C32.9164 15.3361 32.4646 15.377 32.0843 15.4404C31.704 15.5058 31.3912 15.5937 31.1458 15.7041C30.9005 15.8145 30.7185 15.9474 30.602 16.1008C30.4854 16.2541 30.4261 16.4299 30.4261 16.6262C30.4261 16.8102 30.4568 16.9718 30.5182 17.1067C30.5795 17.2416 30.6592 17.352 30.7594 17.44C30.8596 17.5279 30.9761 17.5913 31.109 17.6321C31.2419 17.673 31.3809 17.6935 31.5261 17.6935" fill="#F26649"/>
<path id="Vector_27" d="M35.3085 17.5586C35.3085 17.4891 35.3207 17.4216 35.3473 17.3582C35.3739 17.2948 35.4087 17.2417 35.4557 17.1947C35.5027 17.1476 35.5559 17.1108 35.6172 17.0843C35.6785 17.0556 35.746 17.0434 35.8196 17.0434C35.8891 17.0434 35.9566 17.0577 36.02 17.0843C36.0834 17.1129 36.1365 17.1497 36.1835 17.1947C36.2306 17.2417 36.2674 17.2969 36.2939 17.3582C36.3205 17.4216 36.3348 17.487 36.3348 17.5586C36.3348 17.6322 36.3205 17.6997 36.2939 17.761C36.2653 17.8223 36.2285 17.8755 36.1835 17.9225C36.1365 17.9695 36.0834 18.0043 36.02 18.0309C35.9566 18.0575 35.8912 18.0697 35.8196 18.0697C35.6744 18.0697 35.5538 18.0207 35.4557 17.9225C35.3575 17.8244 35.3085 17.7038 35.3085 17.5586Z" fill="#F26649"/>
<path id="Vector_28" d="M39.921 12.3737C40.3177 12.3737 40.6714 12.4411 40.9842 12.5761C41.297 12.711 41.5607 12.9032 41.7754 13.1506C41.9901 13.398 42.1537 13.6965 42.2661 14.0481C42.3786 14.3998 42.4358 14.7883 42.4358 15.2217C42.4358 15.6552 42.3786 16.0457 42.2661 16.3932C42.1537 16.7408 41.9901 17.0393 41.7754 17.2867C41.5607 17.5341 41.297 17.7242 40.9842 17.8592C40.6714 17.9921 40.3177 18.0595 39.921 18.0595C39.5244 18.0595 39.1707 17.9921 38.8578 17.8592C38.545 17.7263 38.2813 17.5361 38.0646 17.2867C37.8478 17.0393 37.6843 16.7408 37.5698 16.3932C37.4573 16.0457 37.4001 15.6552 37.4001 15.2217C37.4001 14.7883 37.4573 14.3978 37.5698 14.0481C37.6822 13.6985 37.8478 13.4 38.0646 13.1506C38.2813 12.9032 38.545 12.711 38.8578 12.5761C39.1707 12.4411 39.5244 12.3737 39.921 12.3737ZM39.921 17.6404C40.2502 17.6404 40.5385 17.5832 40.7838 17.4707C41.0292 17.3583 41.2357 17.1947 41.3992 16.9841C41.5628 16.7735 41.6875 16.518 41.7693 16.2215C41.8511 15.923 41.892 15.5897 41.892 15.2197C41.892 14.8496 41.8511 14.5204 41.7693 14.2199C41.6875 13.9193 41.5648 13.6638 41.3992 13.4511C41.2357 13.2385 41.0292 13.0749 40.7838 12.9604C40.5385 12.8459 40.2502 12.7887 39.921 12.7887C39.5918 12.7887 39.3036 12.8459 39.0582 12.9604C38.8129 13.0749 38.6064 13.2385 38.4428 13.4511C38.2772 13.6638 38.1545 13.9193 38.0707 14.2199C37.9869 14.5204 37.946 14.8537 37.946 15.2197C37.946 15.5856 37.9869 15.923 38.0707 16.2215C38.1545 16.52 38.2772 16.7735 38.4428 16.9841C38.6084 17.1947 38.8129 17.3562 39.0582 17.4707C39.3036 17.5852 39.5918 17.6404 39.921 17.6404Z" fill="#F26649"/>
<path id="Vector_29" d="M43.824 17.986V12.4636H44.1021C44.1655 12.4636 44.2105 12.4759 44.2391 12.5025C44.2677 12.5291 44.282 12.572 44.2861 12.6354L44.3311 13.8008C44.509 13.353 44.7461 13.0034 45.0426 12.7499C45.339 12.4964 45.703 12.3696 46.1364 12.3696C46.302 12.3696 46.4574 12.386 46.5964 12.4228C46.7375 12.4575 46.8704 12.5086 46.9972 12.5761L46.9256 12.9421C46.9154 13.0014 46.8765 13.03 46.8152 13.03C46.7927 13.03 46.7621 13.0218 46.7212 13.0075C46.6803 12.9932 46.6292 12.9768 46.5678 12.9564C46.5065 12.938 46.4308 12.9216 46.3429 12.9073C46.255 12.893 46.1528 12.8848 46.0383 12.8848C45.6191 12.8848 45.2757 13.0136 45.0078 13.2733C44.74 13.5329 44.5212 13.9051 44.3556 14.3937V17.986H43.8281H43.824Z" fill="#F26649"/>
<path id="Vector_30" d="M50.0518 12.3674C50.293 12.3674 50.5159 12.3981 50.7203 12.4574C50.9248 12.5167 51.1108 12.6005 51.2724 12.7068H52.6872V12.8888C52.6872 12.9808 52.6361 13.0319 52.5318 13.038L51.6935 13.0994C51.7978 13.2405 51.8775 13.3979 51.9327 13.5737C51.988 13.7495 52.0166 13.9376 52.0166 14.138C52.0166 14.4038 51.9675 14.6471 51.8714 14.8618C51.7753 15.0785 51.6404 15.2625 51.4686 15.4159C51.2969 15.5692 51.0904 15.6878 50.8491 15.7736C50.6079 15.8595 50.3421 15.9004 50.0497 15.9004C49.7308 15.9004 49.4425 15.8534 49.1828 15.7552C49.0274 15.8432 48.9048 15.9495 48.8169 16.0722C48.7289 16.1948 48.684 16.3134 48.684 16.4279C48.684 16.5874 48.7392 16.7101 48.8516 16.7939C48.962 16.8797 49.1092 16.9411 49.2932 16.9799C49.4772 17.0188 49.6858 17.0433 49.9209 17.0556C50.156 17.0658 50.3952 17.0781 50.6365 17.0924C50.8778 17.1067 51.117 17.1292 51.3521 17.1619C51.5872 17.1946 51.7958 17.2539 51.9798 17.3377C52.1638 17.4216 52.311 17.5381 52.4214 17.6873C52.5318 17.8366 52.587 18.0349 52.587 18.2844C52.587 18.5133 52.5298 18.7342 52.4153 18.9447C52.3008 19.1553 52.1352 19.3414 51.9184 19.5049C51.7017 19.6665 51.44 19.7973 51.1333 19.8955C50.8267 19.9936 50.4832 20.0427 50.1008 20.0427C49.7185 20.0427 49.3709 20.0038 49.0806 19.9241C48.7882 19.8443 48.5429 19.738 48.3446 19.6031C48.1462 19.4681 47.997 19.3128 47.8968 19.1328C47.7966 18.955 47.7476 18.7669 47.7476 18.5665C47.7476 18.2741 47.8437 18.0227 48.0358 17.8121C48.228 17.6015 48.4918 17.4379 48.8291 17.3234C48.6431 17.26 48.4979 17.1701 48.3875 17.0515C48.2791 16.9329 48.2239 16.7693 48.2239 16.5567C48.2239 16.479 48.2383 16.3972 48.2689 16.3114C48.2975 16.2255 48.3425 16.1417 48.4018 16.0578C48.4611 15.974 48.5327 15.8963 48.6165 15.8227C48.7003 15.7491 48.7964 15.6816 48.9068 15.6224C48.6431 15.4711 48.4386 15.2686 48.2935 15.0172C48.1462 14.7657 48.0747 14.4713 48.0747 14.1339C48.0747 13.8681 48.1217 13.6269 48.2158 13.4101C48.3098 13.1934 48.4427 13.0074 48.6165 12.852C48.7882 12.6966 48.9968 12.576 49.2401 12.4901C49.4854 12.4042 49.7553 12.3633 50.0497 12.3633M52.0984 18.3539C52.0984 18.1801 52.0534 18.0411 51.9614 17.9347C51.8714 17.8284 51.7487 17.7466 51.5974 17.6873C51.4461 17.6281 51.2703 17.5872 51.072 17.5626C50.8737 17.5381 50.6672 17.5217 50.4505 17.5095C50.2337 17.4992 50.017 17.487 49.7982 17.4768C49.5795 17.4665 49.3771 17.444 49.1869 17.4093C49.0458 17.4645 48.915 17.5279 48.7964 17.6015C48.6758 17.673 48.5736 17.7548 48.4877 17.8448C48.4018 17.9347 48.3364 18.0349 48.2873 18.1453C48.2403 18.2537 48.2158 18.3743 48.2158 18.5031C48.2158 18.6667 48.2567 18.818 48.3405 18.955C48.4243 19.094 48.547 19.2146 48.7065 19.3168C48.868 19.4191 49.0642 19.4988 49.2973 19.5581C49.5304 19.6174 49.7982 19.646 50.1029 19.646C50.385 19.646 50.6467 19.6154 50.888 19.552C51.1292 19.4886 51.3419 19.4007 51.5218 19.2862C51.7017 19.1717 51.8428 19.0347 51.943 18.8752C52.0452 18.7158 52.0963 18.542 52.0963 18.3539M50.0477 15.5385C50.2848 15.5385 50.4954 15.5038 50.6794 15.4363C50.8655 15.3688 51.0209 15.2727 51.1456 15.1501C51.2724 15.0274 51.3664 14.8822 51.4318 14.7125C51.4973 14.5428 51.53 14.3527 51.53 14.1462C51.53 13.9397 51.4973 13.7495 51.4298 13.5778C51.3623 13.4061 51.2662 13.2589 51.1395 13.1362C51.0127 13.0135 50.8573 12.9195 50.6733 12.852C50.4893 12.7845 50.2808 12.7518 50.0497 12.7518C49.8187 12.7518 49.6081 12.7845 49.422 12.852C49.236 12.9195 49.0806 13.0135 48.9538 13.1362C48.8271 13.2589 48.7289 13.4061 48.6615 13.5778C48.596 13.7495 48.5613 13.9397 48.5613 14.1462C48.5613 14.3527 48.594 14.5428 48.6615 14.7125C48.7289 14.8822 48.825 15.0294 48.9538 15.1501C49.0806 15.2727 49.238 15.3668 49.422 15.4363C49.6061 15.5038 49.8166 15.5385 50.0497 15.5385" fill="#F26649"/>
<path id="Vector_31" d="M53.5152 17.5586C53.5152 17.4891 53.5275 17.4216 53.554 17.3582C53.5806 17.2948 53.6154 17.2417 53.6624 17.1947C53.7094 17.1476 53.7626 17.1108 53.8239 17.0843C53.8853 17.0556 53.9527 17.0434 54.0263 17.0434C54.0958 17.0434 54.1633 17.0577 54.2267 17.0843C54.2901 17.1129 54.3453 17.1497 54.3903 17.1947C54.4373 17.2417 54.4741 17.2969 54.5007 17.3582C54.5293 17.4216 54.5416 17.487 54.5416 17.5586C54.5416 17.6322 54.5273 17.6997 54.5007 17.761C54.472 17.8223 54.4352 17.8755 54.3903 17.9225C54.3432 17.9695 54.2901 18.0043 54.2267 18.0309C54.1633 18.0575 54.0979 18.0697 54.0263 18.0697C53.8812 18.0697 53.7605 18.0207 53.6624 17.9225C53.5643 17.8244 53.5152 17.7038 53.5152 17.5586Z" fill="#F26649"/>
<path id="Vector_32" d="M59.5487 17.9858C59.4383 17.9858 59.3688 17.9347 59.3422 17.8305L59.2645 17.1251C59.1132 17.2723 58.9619 17.4072 58.8126 17.5238C58.6634 17.6424 58.506 17.7425 58.3444 17.8243C58.1809 17.9061 58.0071 17.9674 57.8169 18.0104C57.6288 18.0533 57.4203 18.0738 57.1954 18.0738C57.0073 18.0738 56.8233 18.0451 56.6454 17.9899C56.4675 17.9347 56.3101 17.8489 56.1731 17.7344C56.0361 17.6199 55.9257 17.4727 55.844 17.2927C55.7601 17.1128 55.7192 16.8981 55.7192 16.6467C55.7192 16.4136 55.7867 16.1969 55.9196 15.9965C56.0525 15.7961 56.261 15.6224 56.5432 15.4751C56.8274 15.3279 57.1913 15.2094 57.637 15.1194C58.0827 15.0315 58.6184 14.9783 59.244 14.964V14.3874C59.244 13.8763 59.1336 13.4838 58.9128 13.2077C58.692 12.9317 58.3669 12.7947 57.9335 12.7947C57.6677 12.7947 57.4407 12.8315 57.2526 12.9051C57.0666 12.9788 56.9071 13.0605 56.7783 13.1505C56.6495 13.2384 56.5432 13.3202 56.4614 13.3938C56.3796 13.4674 56.3122 13.5042 56.2549 13.5042C56.1813 13.5042 56.1261 13.4715 56.0893 13.404L55.9953 13.2425C56.2835 12.9542 56.5882 12.7355 56.9051 12.5862C57.224 12.439 57.5839 12.3633 57.9866 12.3633C58.2831 12.3633 58.5407 12.4104 58.7636 12.5044C58.9864 12.5985 59.1704 12.7334 59.3156 12.9092C59.4628 13.0851 59.5712 13.2977 59.6468 13.5471C59.7204 13.7966 59.7572 14.0746 59.7572 14.3834V17.9797H59.5466L59.5487 17.9858ZM57.3283 17.6914C57.543 17.6914 57.7393 17.6689 57.9192 17.6219C58.0991 17.5749 58.2647 17.5115 58.418 17.4277C58.5714 17.3439 58.7145 17.2457 58.8474 17.1312C58.9803 17.0167 59.1111 16.892 59.242 16.7591V15.3218C58.7165 15.3361 58.2647 15.377 57.8844 15.4404C57.5041 15.5058 57.1913 15.5937 56.946 15.7041C56.7006 15.8145 56.5187 15.9474 56.4021 16.1008C56.2856 16.2541 56.2283 16.4299 56.2283 16.6262C56.2283 16.8102 56.259 16.9718 56.3203 17.1067C56.3817 17.2416 56.4614 17.352 56.5616 17.44C56.6618 17.5279 56.7783 17.5913 56.9112 17.6321C57.0441 17.673 57.1831 17.6935 57.3283 17.6935" fill="#F26649"/>
<path id="Vector_33" d="M61.814 12.4636V15.9945C61.814 16.5118 61.9326 16.9186 62.1698 17.213C62.4069 17.5075 62.7688 17.6547 63.2554 17.6547C63.6153 17.6547 63.9526 17.5627 64.2634 17.3787C64.5742 17.1946 64.8563 16.9411 65.1037 16.616V12.4636H65.6312V17.9879H65.3409C65.2386 17.9879 65.1855 17.9389 65.1814 17.8428L65.1303 17.0209C64.8747 17.3398 64.5783 17.5933 64.2429 17.7876C63.9076 17.9798 63.5335 18.0758 63.1225 18.0758C62.8138 18.0758 62.546 18.0268 62.317 17.9307C62.088 17.8346 61.8958 17.6956 61.7445 17.5136C61.5932 17.3316 61.4787 17.1149 61.401 16.8593C61.3233 16.6038 61.2845 16.3155 61.2845 15.9945V12.4636H61.812H61.814Z" fill="#F26649"/>
</g>
</svg>
