<svg width="1440" height="304" viewBox="0 0 1440 304" fill="none"
	xmlns="http://www.w3.org/2000/svg">
	<path d="M0 31L18.5 27.5C37 24 74 17 111 16C148 15 185 20 221.8 21C258.7 22 295.3 19 332.2 21C369 23 406 30 443 31C480 32 517 27 554 22.5C591 18 628 14 664.8 12C701.7 10 738.3 10 775.2 12C812 14 849 18 886 22C923 26 960 30 997 28C1034 26 1071 18 1107.8 18.5C1144.7 19 1181.3 28 1218.2 30C1255 32 1292 27 1329 24C1366 21 1403 20 1421.5 19.5L1440 19V0H1421.5C1403 0 1366 0 1329 0C1292 0 1255 0 1218.2 0C1181.3 0 1144.7 0 1107.8 0C1071 0 1034 0 997 0C960 0 923 0 886 0C849 0 812 0 775.2 0C738.3 0 701.7 0 664.8 0C628 0 591 0 554 0C517 0 480 0 443 0C406 0 369 0 332.2 0C295.3 0 258.7 0 221.8 0C185 0 148 0 111 0C74 0 37 0 18.5 0H0V31Z" fill="#A43B27"/>
	<path d="M0 141L18.5 138C37 135 74 129 111 116.8C148 104.7 185 86.3 221.8 82.7C258.7 79 295.3 90 332.2 95.5C369 101 406 101 443 100.5C480 100 517 99 554 101C591 103 628 108 664.8 110C701.7 112 738.3 111 775.2 104.5C812 98 849 86 886 82C923 78 960 82 997 84C1034 86 1071 86 1107.8 91.7C1144.7 97.3 1181.3 108.7 1218.2 115.3C1255 122 1292 124 1329 113.3C1366 102.7 1403 79.3 1421.5 67.7L1440 56V17L1421.5 17.5C1403 18 1366 19 1329 22C1292 25 1255 30 1218.2 28C1181.3 26 1144.7 17 1107.8 16.5C1071 16 1034 24 997 26C960 28 923 24 886 20C849 16 812 12 775.2 10C738.3 8 701.7 8 664.8 10C628 12 591 16 554 20.5C517 25 480 30 443 29C406 28 369 21 332.2 19C295.3 17 258.7 20 221.8 19C185 18 148 13 111 14C74 15 37 22 18.5 25.5L0 29V141Z" fill="#973221"/>
	<path d="M0 165L18.5 167C37 169 74 173 111 166C148 159 185 141 221.8 136.5C258.7 132 295.3 141 332.2 145C369 149 406 148 443 144.5C480 141 517 135 554 134.5C591 134 628 139 664.8 140.5C701.7 142 738.3 140 775.2 133.3C812 126.7 849 115.3 886 113.3C923 111.3 960 118.7 997 124.3C1034 130 1071 134 1107.8 136.5C1144.7 139 1181.3 140 1218.2 143C1255 146 1292 151 1329 143.3C1366 135.7 1403 115.3 1421.5 105.2L1440 95V54L1421.5 65.7C1403 77.3 1366 100.7 1329 111.3C1292 122 1255 120 1218.2 113.3C1181.3 106.7 1144.7 95.3 1107.8 89.7C1071 84 1034 84 997 82C960 80 923 76 886 80C849 84 812 96 775.2 102.5C738.3 109 701.7 110 664.8 108C628 106 591 101 554 99C517 97 480 98 443 98.5C406 99 369 99 332.2 93.5C295.3 88 258.7 77 221.8 80.7C185 84.3 148 102.7 111 114.8C74 127 37 133 18.5 136L0 139V165Z" fill="#8B281C"/>
	<path d="M0 217L18.5 214.5C37 212 74 207 111 200.3C148 193.7 185 185.3 221.8 184.8C258.7 184.3 295.3 191.7 332.2 195.8C369 200 406 201 443 201.5C480 202 517 202 554 204.5C591 207 628 212 664.8 210.5C701.7 209 738.3 201 775.2 194.3C812 187.7 849 182.3 886 180.2C923 178 960 179 997 179C1034 179 1071 178 1107.8 177.5C1144.7 177 1181.3 177 1218.2 177C1255 177 1292 177 1329 176.5C1366 176 1403 175 1421.5 174.5L1440 174V93L1421.5 103.2C1403 113.3 1366 133.7 1329 141.3C1292 149 1255 144 1218.2 141C1181.3 138 1144.7 137 1107.8 134.5C1071 132 1034 128 997 122.3C960 116.7 923 109.3 886 111.3C849 113.3 812 124.7 775.2 131.3C738.3 138 701.7 140 664.8 138.5C628 137 591 132 554 132.5C517 133 480 139 443 142.5C406 146 369 147 332.2 143C295.3 139 258.7 130 221.8 134.5C185 139 148 157 111 164C74 171 37 167 18.5 165L0 163V217Z" fill="#7E1F16"/>
	<path d="M0 262L18.5 261.5C37 261 74 260 111 259.5C148 259 185 259 221.8 261.2C258.7 263.3 295.3 267.7 332.2 265.7C369 263.7 406 255.3 443 252.2C480 249 517 251 554 253C591 255 628 257 664.8 251.5C701.7 246 738.3 233 775.2 232.5C812 232 849 244 886 246C923 248 960 240 997 234.5C1034 229 1071 226 1107.8 229C1144.7 232 1181.3 241 1218.2 245C1255 249 1292 248 1329 252.2C1366 256.3 1403 265.7 1421.5 270.3L1440 275V172L1421.5 172.5C1403 173 1366 174 1329 174.5C1292 175 1255 175 1218.2 175C1181.3 175 1144.7 175 1107.8 175.5C1071 176 1034 177 997 177C960 177 923 176 886 178.2C849 180.3 812 185.7 775.2 192.3C738.3 199 701.7 207 664.8 208.5C628 210 591 205 554 202.5C517 200 480 200 443 199.5C406 199 369 198 332.2 193.8C295.3 189.7 258.7 182.3 221.8 182.8C185 183.3 148 191.7 111 198.3C74 205 37 210 18.5 212.5L0 215V262Z" fill="#711611"/>
	<path d="M0 287H18.5C37 287 74 287 111 285C148 283 185 279 221.8 280.5C258.7 282 295.3 289 332.2 288C369 287 406 278 443 273.5C480 269 517 269 554 269.5C591 270 628 271 664.8 269.8C701.7 268.7 738.3 265.3 775.2 266.3C812 267.3 849 272.7 886 274.8C923 277 960 276 997 273.3C1034 270.7 1071 266.3 1107.8 267.3C1144.7 268.3 1181.3 274.7 1218.2 277.3C1255 280 1292 279 1329 281.5C1366 284 1403 290 1421.5 293L1440 296V273L1421.5 268.3C1403 263.7 1366 254.3 1329 250.2C1292 246 1255 247 1218.2 243C1181.3 239 1144.7 230 1107.8 227C1071 224 1034 227 997 232.5C960 238 923 246 886 244C849 242 812 230 775.2 230.5C738.3 231 701.7 244 664.8 249.5C628 255 591 253 554 251C517 249 480 247 443 250.2C406 253.3 369 261.7 332.2 263.7C295.3 265.7 258.7 261.3 221.8 259.2C185 257 148 257 111 257.5C74 258 37 259 18.5 259.5L0 260V287Z" fill="#650B0A"/>
</svg>
