<?xml version="1.0" encoding="UTF-8"?>
<svg id="Layer_1" data-name="Layer 1" xmlns="http://www.w3.org/2000/svg" viewBox="0 0 1417.32 743.2">
  <defs>
    <style>
      .cls-1 {
        fill: #231f20;
      }

      .cls-2 {
        fill: #faa61a;
      }

      .cls-3 {
        fill: #fff;
      }

      .cls-4 {
        fill: #094268;
      }

      .cls-5 {
        stroke-width: 2.28px;
      }

      .cls-5, .cls-6 {
        fill: none;
        stroke: #fff;
        stroke-linejoin: round;
      }

      .cls-6 {
        stroke-width: 2.28px;
      }
    </style>
  </defs>
  <g>
    <polygon class="cls-1" points="649.35 403.4 594.5 319.87 594.5 403.4 576.49 403.4 576.49 284.7 593 284.7 647.85 368.06 647.85 284.7 665.86 284.7 665.86 403.4 649.35 403.4 649.35 403.4"/>
    <path class="cls-1" d="M731.88,404.4c-12.34,0-23.01-4.5-31.18-12.67-11.67-11.67-11.5-24.84-11.5-47.68s-.17-36.01,11.5-47.68c8.17-8.17,18.84-12.67,31.18-12.67,21.84,0,38.18,12.84,42.35,36.51h-18.34c-2.83-12-10.84-20.34-24.01-20.34-7,0-13.34,2.67-17.51,7.17-5.84,6.34-7.17,13.17-7.17,37.01s1.33,30.68,7.17,37.01c4.17,4.5,10.5,7.17,17.51,7.17,13.17,0,21.34-8.34,24.17-20.34h18.17c-4,23.67-20.84,36.51-42.35,36.51h0Z"/>
    <path class="cls-1" d="M839.58,300.87h-26.68v37.18h26.68c12.01,0,20.17-6.84,20.17-18.51s-8.17-18.67-20.17-18.67h0ZM860.42,403.4l-25-50.02h-22.51v50.02h-18.01v-118.71h46.02c22.51,0,36.85,14.5,36.85,34.68,0,17.01-10.34,27.84-23.67,31.51l27.34,52.52h-21.01Z"/>
    <polygon class="cls-1" points="900.78 403.4 900.78 284.7 918.78 284.7 918.78 403.4 900.78 403.4 900.78 403.4"/>
    <path class="cls-1" d="M977.97,404.4c-17.84,0-30.68-4.17-42.01-15.67l12-11.84c8.67,8.67,18.17,11.34,30.34,11.34,15.51,0,24.51-6.67,24.51-18.17,0-5.17-1.5-9.5-4.67-12.34-3-2.83-6-4-13-5l-14-2c-9.67-1.33-17.34-4.67-22.51-9.5-5.84-5.5-8.67-13-8.67-22.67,0-20.67,15.01-34.84,39.68-34.84,15.67,0,26.68,4,36.85,13.5l-11.5,11.34c-7.34-7-15.84-9.17-25.84-9.17-14,0-21.67,8-21.67,18.51,0,4.33,1.33,8.17,4.5,11,3,2.67,7.83,4.67,13.33,5.5l13.5,2c11,1.67,17.17,4.33,22.17,8.84,6.5,5.67,9.67,14.17,9.67,24.34,0,21.84-17.84,34.85-42.68,34.85h0Z"/>
    <polygon class="cls-1" points="601.33 465.81 580.46 434.29 580.46 465.81 576.26 465.81 576.26 426.5 580.24 426.5 601.11 457.92 601.11 426.5 605.3 426.5 605.3 465.81 601.33 465.81 601.33 465.81"/>
    <path class="cls-1" d="M631.36,453.28h-7.62c-4.08,0-6.07,1.66-6.07,4.8s1.93,4.64,6.24,4.64c2.32,0,4.36-.16,6.07-1.82.94-.88,1.38-2.43,1.38-4.69v-2.93h0ZM631.36,465.81v-2.59c-2.21,2.21-4.2,2.93-7.84,2.93s-5.96-.72-7.67-2.48c-1.33-1.33-2.04-3.37-2.04-5.52,0-4.75,3.31-7.84,9.39-7.84h8.17v-2.59c0-3.98-1.99-5.96-6.96-5.96-3.48,0-5.25.83-6.85,3.09l-2.71-2.48c2.43-3.15,5.19-4.03,9.61-4.03,7.29,0,10.88,3.15,10.88,9.06v18.44h-3.97Z"/>
    <path class="cls-1" d="M652.61,465.81c-4.64,0-6.96-3.26-6.96-7.29v-16.67h-3.42v-3.04h3.42v-8.5h3.98v8.5h5.8v3.04h-5.8v16.56c0,2.48,1.16,3.97,3.7,3.97h2.1v3.43h-2.82Z"/>
    <path class="cls-1" d="M663.32,465.81v-27.17h3.98v27.17h-3.98ZM665.31,431.14c-1.49,0-2.71-1.21-2.71-2.71s1.21-2.71,2.71-2.71,2.76,1.21,2.76,2.71-1.27,2.71-2.76,2.71h0Z"/>
    <path class="cls-1" d="M691.92,443.84c-1.27-1.27-3.04-1.99-4.97-1.99s-3.64.72-4.91,1.99c-1.99,1.99-2.21,5.36-2.21,8.39s.22,6.4,2.21,8.39c1.27,1.27,2.98,1.99,4.91,1.99s3.7-.72,4.97-1.99c1.99-1.99,2.15-5.35,2.15-8.39s-.17-6.4-2.15-8.39h0ZM694.73,463.05c-1.88,1.88-4.47,3.09-7.78,3.09s-5.91-1.22-7.78-3.09c-2.76-2.82-3.31-6.62-3.31-10.82s.55-8,3.31-10.82c1.88-1.88,4.47-3.09,7.78-3.09s5.91,1.22,7.78,3.09c2.76,2.82,3.31,6.62,3.31,10.82s-.55,8.01-3.31,10.82h0Z"/>
    <path class="cls-1" d="M723.94,465.81v-16.73c0-4.8-2.59-7.23-6.68-7.23s-6.74,2.48-6.74,7.23v16.73h-3.98v-27.17h3.98v2.98c1.93-2.21,4.58-3.31,7.62-3.31s5.3.89,6.96,2.54c1.93,1.88,2.82,4.42,2.82,7.57v17.39h-3.98Z"/>
    <path class="cls-1" d="M752.98,453.28h-7.62c-4.09,0-6.07,1.66-6.07,4.8s1.93,4.64,6.24,4.64c2.32,0,4.36-.16,6.07-1.82.94-.88,1.38-2.43,1.38-4.69v-2.93h0ZM752.98,465.81v-2.59c-2.21,2.21-4.2,2.93-7.84,2.93s-5.96-.72-7.67-2.48c-1.33-1.33-2.04-3.37-2.04-5.52,0-4.75,3.31-7.84,9.39-7.84h8.17v-2.59c0-3.98-1.99-5.96-6.96-5.96-3.48,0-5.25.83-6.85,3.09l-2.71-2.48c2.43-3.15,5.19-4.03,9.61-4.03,7.29,0,10.88,3.15,10.88,9.06v18.44h-3.97Z"/>
    <path class="cls-1" d="M773.4,465.81c-4.75,0-6.9-3.09-6.9-7.23v-32.08h3.97v31.91c0,2.65.88,3.97,3.64,3.97h2.15v3.43h-2.87Z"/>
    <path class="cls-1" d="M812.16,430.26h-10.49v14.41h10.49c4.58,0,7.84-2.38,7.84-7.18s-3.26-7.23-7.84-7.23h0ZM820.05,465.81l-8.94-17.45h-9.44v17.45h-4.2v-39.31h15.07c6.85,0,11.65,4.14,11.65,10.93,0,5.74-3.48,9.5-8.56,10.54l9.33,17.83h-4.91Z"/>
    <path class="cls-1" d="M848.98,445.77c-1.05-2.48-3.48-4.09-6.35-4.09s-5.3,1.6-6.35,4.09c-.61,1.49-.72,2.32-.83,4.53h14.35c-.11-2.21-.22-3.04-.83-4.53h0ZM835.45,453.28c0,5.96,2.82,9.39,8,9.39,3.15,0,4.97-.94,7.12-3.09l2.71,2.37c-2.76,2.76-5.3,4.2-9.94,4.2-7.18,0-11.87-4.31-11.87-13.91,0-8.78,4.25-13.91,11.15-13.91s11.15,5.08,11.15,13.14v1.82h-18.33Z"/>
    <path class="cls-1" d="M870.78,466.15c-4.58,0-8.17-1.05-11.15-3.92l2.65-2.65c2.15,2.27,5.08,3.15,8.45,3.15,4.47,0,7.23-1.6,7.23-4.8,0-2.37-1.38-3.7-4.53-3.97l-4.47-.39c-5.3-.44-8.12-2.82-8.12-7.29,0-4.97,4.2-7.95,9.99-7.95,3.86,0,7.34.94,9.77,2.93l-2.59,2.6c-1.93-1.49-4.42-2.15-7.23-2.15-3.97,0-6.07,1.71-6.07,4.47,0,2.32,1.33,3.7,4.75,3.97l4.36.39c4.75.44,8.01,2.26,8.01,7.34s-4.47,8.28-11.04,8.28h0Z"/>
    <path class="cls-1" d="M905.62,445.77c-1.05-2.48-3.48-4.09-6.35-4.09s-5.3,1.6-6.35,4.09c-.61,1.49-.72,2.32-.83,4.53h14.35c-.11-2.21-.22-3.04-.83-4.53h0ZM892.09,453.28c0,5.96,2.82,9.39,8,9.39,3.15,0,4.97-.94,7.12-3.09l2.71,2.37c-2.76,2.76-5.3,4.2-9.94,4.2-7.17,0-11.87-4.31-11.87-13.91,0-8.78,4.25-13.91,11.15-13.91s11.15,5.08,11.15,13.14v1.82h-18.33Z"/>
    <path class="cls-1" d="M934.27,453.28h-7.62c-4.09,0-6.07,1.66-6.07,4.8s1.93,4.64,6.24,4.64c2.32,0,4.36-.16,6.07-1.82.94-.88,1.38-2.43,1.38-4.69v-2.93h0ZM934.27,465.81v-2.59c-2.21,2.21-4.2,2.93-7.84,2.93s-5.96-.72-7.67-2.48c-1.33-1.33-2.04-3.37-2.04-5.52,0-4.75,3.31-7.84,9.39-7.84h8.17v-2.59c0-3.98-1.99-5.96-6.96-5.96-3.48,0-5.24.83-6.85,3.09l-2.71-2.48c2.43-3.15,5.19-4.03,9.61-4.03,7.29,0,10.88,3.15,10.88,9.06v18.44h-3.97Z"/>
    <path class="cls-1" d="M963.09,443.84c-1.49-1.49-2.59-1.99-4.69-1.99-3.98,0-6.51,3.15-6.51,7.29v16.67h-3.98v-27.17h3.98v3.31c1.49-2.26,4.47-3.65,7.62-3.65,2.59,0,4.58.61,6.52,2.54l-2.93,2.98h0Z"/>
    <path class="cls-1" d="M979.98,466.15c-6.85,0-12.04-4.64-12.04-13.91s5.19-13.91,12.04-13.91c3.75,0,6.13,1,8.94,4.03l-2.71,2.54c-2.04-2.27-3.65-3.04-6.24-3.04s-4.86,1.05-6.3,3.09c-1.27,1.77-1.77,3.86-1.77,7.29s.5,5.52,1.77,7.29c1.43,2.04,3.64,3.09,6.3,3.09s4.2-.83,6.24-3.09l2.71,2.6c-2.82,3.03-5.19,4.03-8.94,4.03h0Z"/>
    <path class="cls-1" d="M1013.88,465.81v-16.78c0-4.75-2.54-7.18-6.62-7.18s-6.79,2.48-6.79,7.18v16.78h-3.97v-39.31h3.97v15.13c1.99-2.27,4.58-3.31,7.62-3.31,6.13,0,9.77,3.92,9.77,10.05v17.45h-3.98Z"/>
    <polygon class="cls-1" points="576.26 521.02 576.26 481.71 580.46 481.71 580.46 521.02 576.26 521.02 576.26 521.02"/>
    <path class="cls-1" d="M608.5,521.02v-16.73c0-4.8-2.59-7.23-6.68-7.23s-6.74,2.48-6.74,7.23v16.73h-3.97v-27.17h3.97v2.98c1.93-2.21,4.58-3.31,7.62-3.31s5.3.89,6.96,2.54c1.93,1.88,2.82,4.42,2.82,7.57v17.39h-3.98Z"/>
    <path class="cls-1" d="M627,497.06v23.96h-3.97v-23.96h-3.48v-3.04h3.48v-5.14c0-4.03,2.26-7.29,6.9-7.29h2.87v3.42h-2.15c-2.54,0-3.64,1.49-3.64,3.97v5.03h5.8v3.04h-5.8Z"/>
    <path class="cls-1" d="M654.65,499.05c-1.49-1.49-2.59-1.99-4.69-1.99-3.98,0-6.52,3.15-6.52,7.29v16.67h-3.97v-27.17h3.97v3.31c1.49-2.26,4.47-3.65,7.62-3.65,2.59,0,4.58.61,6.51,2.54l-2.93,2.98h0Z"/>
    <path class="cls-1" d="M677.57,508.49h-7.62c-4.08,0-6.07,1.66-6.07,4.8s1.93,4.64,6.24,4.64c2.32,0,4.36-.16,6.07-1.82.94-.88,1.38-2.43,1.38-4.69v-2.93h0ZM677.57,521.02v-2.59c-2.21,2.21-4.2,2.93-7.84,2.93s-5.96-.72-7.67-2.48c-1.33-1.33-2.04-3.37-2.04-5.52,0-4.75,3.31-7.84,9.39-7.84h8.17v-2.59c0-3.98-1.99-5.96-6.96-5.96-3.48,0-5.25.83-6.85,3.09l-2.71-2.48c2.43-3.15,5.19-4.03,9.61-4.03,7.29,0,10.88,3.15,10.88,9.06v18.44h-3.97Z"/>
    <path class="cls-1" d="M699.76,521.35c-4.58,0-8.17-1.05-11.15-3.92l2.65-2.65c2.15,2.27,5.08,3.15,8.45,3.15,4.47,0,7.23-1.6,7.23-4.8,0-2.37-1.38-3.7-4.53-3.97l-4.47-.39c-5.3-.44-8.12-2.82-8.12-7.29,0-4.97,4.2-7.95,9.99-7.95,3.86,0,7.34.94,9.77,2.93l-2.59,2.6c-1.93-1.49-4.42-2.15-7.23-2.15-3.98,0-6.07,1.71-6.07,4.47,0,2.32,1.33,3.7,4.75,3.97l4.36.39c4.75.44,8.01,2.26,8.01,7.34s-4.47,8.28-11.04,8.28h0Z"/>
    <path class="cls-1" d="M725.65,521.02c-4.64,0-6.96-3.26-6.96-7.29v-16.67h-3.42v-3.04h3.42v-8.5h3.97v8.5h5.8v3.04h-5.8v16.56c0,2.48,1.16,3.97,3.7,3.97h2.1v3.43h-2.82Z"/>
    <path class="cls-1" d="M751.54,499.05c-1.49-1.49-2.59-1.99-4.69-1.99-3.98,0-6.52,3.15-6.52,7.29v16.67h-3.97v-27.17h3.97v3.31c1.49-2.26,4.47-3.65,7.62-3.65,2.59,0,4.58.61,6.51,2.54l-2.93,2.98h0Z"/>
    <path class="cls-1" d="M776.77,521.02v-3.04c-1.93,2.21-4.64,3.37-7.67,3.37s-5.36-.89-7.01-2.54c-1.93-1.88-2.76-4.47-2.76-7.62v-17.34h3.98v16.73c0,4.8,2.54,7.23,6.62,7.23s6.79-2.48,6.79-7.23v-16.73h3.98v27.17h-3.92Z"/>
    <path class="cls-1" d="M801.17,521.35c-6.84,0-12.03-4.64-12.03-13.91s5.19-13.91,12.03-13.91c3.76,0,6.13,1,8.95,4.03l-2.71,2.54c-2.04-2.27-3.65-3.04-6.24-3.04s-4.86,1.05-6.29,3.09c-1.27,1.77-1.77,3.86-1.77,7.29s.5,5.52,1.77,7.29c1.44,2.04,3.64,3.09,6.29,3.09s4.2-.83,6.24-3.09l2.71,2.6c-2.82,3.03-5.19,4.03-8.95,4.03h0Z"/>
    <path class="cls-1" d="M825.29,521.02c-4.64,0-6.96-3.26-6.96-7.29v-16.67h-3.42v-3.04h3.42v-8.5h3.97v8.5h5.8v3.04h-5.8v16.56c0,2.48,1.16,3.97,3.7,3.97h2.1v3.43h-2.82Z"/>
    <path class="cls-1" d="M853.17,521.02v-3.04c-1.93,2.21-4.64,3.37-7.67,3.37s-5.36-.89-7.01-2.54c-1.93-1.88-2.76-4.47-2.76-7.62v-17.34h3.98v16.73c0,4.8,2.54,7.23,6.62,7.23s6.79-2.48,6.79-7.23v-16.73h3.98v27.17h-3.92Z"/>
    <path class="cls-1" d="M882.21,499.05c-1.49-1.49-2.6-1.99-4.69-1.99-3.98,0-6.51,3.15-6.51,7.29v16.67h-3.98v-27.17h3.98v3.31c1.49-2.26,4.47-3.65,7.62-3.65,2.59,0,4.58.61,6.51,2.54l-2.92,2.98h0Z"/>
    <path class="cls-1" d="M904.57,500.98c-1.05-2.48-3.48-4.09-6.35-4.09s-5.3,1.6-6.35,4.09c-.61,1.49-.72,2.32-.83,4.53h14.36c-.11-2.21-.22-3.04-.83-4.53h0ZM891.04,508.49c0,5.96,2.82,9.39,8,9.39,3.15,0,4.97-.94,7.12-3.09l2.71,2.37c-2.76,2.76-5.3,4.2-9.94,4.2-7.18,0-11.87-4.31-11.87-13.91,0-8.78,4.25-13.91,11.15-13.91s11.15,5.08,11.15,13.14v1.82h-18.33Z"/>
    <path class="cls-1" d="M936.42,497.06v23.96h-3.97v-23.96h-3.48v-3.04h3.48v-5.14c0-4.03,2.26-7.29,6.9-7.29h2.87v3.42h-2.15c-2.54,0-3.64,1.49-3.64,3.97v5.03h5.8v3.04h-5.8Z"/>
    <path class="cls-1" d="M962.65,499.05c-1.27-1.27-3.04-1.99-4.97-1.99s-3.64.72-4.92,1.99c-1.99,1.99-2.21,5.36-2.21,8.39s.22,6.4,2.21,8.39c1.27,1.27,2.98,1.99,4.92,1.99s3.7-.72,4.97-1.99c1.99-1.99,2.15-5.35,2.15-8.39s-.17-6.4-2.15-8.39h0ZM965.46,518.26c-1.87,1.88-4.47,3.09-7.78,3.09s-5.91-1.22-7.79-3.09c-2.76-2.82-3.31-6.62-3.31-10.82s.55-8,3.31-10.82c1.88-1.88,4.47-3.09,7.79-3.09s5.91,1.22,7.78,3.09c2.76,2.82,3.31,6.62,3.31,10.82s-.55,8.01-3.31,10.82h0Z"/>
    <path class="cls-1" d="M992.45,499.05c-1.49-1.49-2.59-1.99-4.69-1.99-3.98,0-6.52,3.15-6.52,7.29v16.67h-3.97v-27.17h3.97v3.31c1.49-2.26,4.47-3.65,7.62-3.65,2.59,0,4.58.61,6.51,2.54l-2.93,2.98h0Z"/>
    <path class="cls-1" d="M1026.24,487.73l-7.4,20.76h14.69l-7.29-20.76h0ZM1037.89,521.02l-3.15-8.89h-17.17l-3.15,8.89h-4.47l14.46-39.31h3.53l14.41,39.31h-4.47Z"/>
    <path class="cls-1" d="M1065.16,521.02v-3.04c-1.93,2.21-4.64,3.37-7.67,3.37s-5.36-.89-7.01-2.54c-1.93-1.88-2.76-4.47-2.76-7.62v-17.34h3.98v16.73c0,4.8,2.54,7.23,6.62,7.23s6.79-2.48,6.79-7.23v-16.73h3.97v27.17h-3.92Z"/>
    <path class="cls-1" d="M1087.57,521.35c-4.58,0-8.17-1.05-11.15-3.92l2.65-2.65c2.16,2.27,5.08,3.15,8.45,3.15,4.47,0,7.23-1.6,7.23-4.8,0-2.37-1.38-3.7-4.52-3.97l-4.48-.39c-5.3-.44-8.11-2.82-8.11-7.29,0-4.97,4.2-7.95,9.99-7.95,3.86,0,7.34.94,9.77,2.93l-2.59,2.6c-1.93-1.49-4.42-2.15-7.23-2.15-3.97,0-6.07,1.71-6.07,4.47,0,2.32,1.32,3.7,4.75,3.97l4.36.39c4.75.44,8,2.26,8,7.34s-4.47,8.28-11.04,8.28h0Z"/>
    <path class="cls-1" d="M1113.46,521.02c-4.64,0-6.96-3.26-6.96-7.29v-16.67h-3.43v-3.04h3.43v-8.5h3.97v8.5h5.8v3.04h-5.8v16.56c0,2.48,1.16,3.97,3.7,3.97h2.1v3.43h-2.82Z"/>
    <path class="cls-1" d="M1139.36,499.05c-1.49-1.49-2.59-1.99-4.69-1.99-3.97,0-6.52,3.15-6.52,7.29v16.67h-3.97v-27.17h3.97v3.31c1.49-2.26,4.47-3.65,7.62-3.65,2.6,0,4.58.61,6.51,2.54l-2.92,2.98h0Z"/>
    <path class="cls-1" d="M1162.27,508.49h-7.62c-4.09,0-6.07,1.66-6.07,4.8s1.93,4.64,6.24,4.64c2.32,0,4.36-.16,6.07-1.82.94-.88,1.38-2.43,1.38-4.69v-2.93h0ZM1162.27,521.02v-2.59c-2.21,2.21-4.2,2.93-7.84,2.93s-5.96-.72-7.67-2.48c-1.32-1.33-2.04-3.37-2.04-5.52,0-4.75,3.31-7.84,9.39-7.84h8.17v-2.59c0-3.98-1.99-5.96-6.96-5.96-3.48,0-5.24.83-6.85,3.09l-2.71-2.48c2.43-3.15,5.19-4.03,9.61-4.03,7.29,0,10.88,3.15,10.88,9.06v18.44h-3.97Z"/>
    <path class="cls-1" d="M1182.69,521.02c-4.75,0-6.9-3.09-6.9-7.23v-32.08h3.97v31.91c0,2.65.89,3.97,3.64,3.97h2.16v3.43h-2.87Z"/>
    <path class="cls-1" d="M1192.3,521.02v-27.17h3.97v27.17h-3.97ZM1194.28,486.35c-1.49,0-2.71-1.21-2.71-2.71s1.21-2.71,2.71-2.71,2.76,1.21,2.76,2.71-1.27,2.71-2.76,2.71h0Z"/>
    <path class="cls-1" d="M1221.67,508.49h-7.62c-4.09,0-6.07,1.66-6.07,4.8s1.93,4.64,6.24,4.64c2.32,0,4.36-.16,6.07-1.82.94-.88,1.38-2.43,1.38-4.69v-2.93h0ZM1221.67,521.02v-2.59c-2.21,2.21-4.2,2.93-7.84,2.93s-5.96-.72-7.67-2.48c-1.33-1.33-2.04-3.37-2.04-5.52,0-4.75,3.31-7.84,9.39-7.84h8.17v-2.59c0-3.98-1.99-5.96-6.96-5.96-3.48,0-5.24.83-6.84,3.09l-2.71-2.48c2.43-3.15,5.19-4.03,9.61-4.03,7.29,0,10.88,3.15,10.88,9.06v18.44h-3.98Z"/>
    <path class="cls-1" d="M584.88,565.23l-5.24,14.7h10.4l-5.16-14.7h0ZM593.13,588.81l-2.23-6.3h-12.16l-2.23,6.3h-3.17l10.24-27.84h2.5l10.21,27.84h-3.17Z"/>
    <path class="cls-1" d="M613.93,588.81v-11.85c0-3.4-1.84-5.12-4.73-5.12s-4.77,1.76-4.77,5.12v11.85h-2.82v-19.24h2.82v2.11c1.37-1.56,3.24-2.35,5.4-2.35s3.75.63,4.93,1.8c1.37,1.33,1.99,3.13,1.99,5.36v12.32h-2.82Z"/>
    <path class="cls-1" d="M644.47,565.23l-5.24,14.7h10.4l-5.16-14.7h0ZM652.72,588.81l-2.23-6.3h-12.16l-2.23,6.3h-3.17l10.24-27.84h2.5l10.21,27.84h-3.17Z"/>
    <path class="cls-1" d="M673.37,588.81v-2.15c-1.37,1.56-3.28,2.39-5.44,2.39s-3.79-.63-4.97-1.8c-1.37-1.33-1.96-3.17-1.96-5.4v-12.28h2.82v11.85c0,3.4,1.8,5.12,4.69,5.12s4.81-1.76,4.81-5.12v-11.85h2.82v19.24h-2.78Z"/>
    <path class="cls-1" d="M690.58,589.04c-3.24,0-5.79-.74-7.9-2.78l1.88-1.88c1.53,1.6,3.6,2.23,5.98,2.23,3.17,0,5.12-1.13,5.12-3.4,0-1.68-.98-2.62-3.21-2.82l-3.17-.27c-3.75-.31-5.75-1.99-5.75-5.16,0-3.52,2.97-5.63,7.08-5.63,2.74,0,5.2.66,6.92,2.07l-1.84,1.84c-1.37-1.06-3.13-1.53-5.12-1.53-2.81,0-4.3,1.21-4.3,3.17,0,1.64.94,2.62,3.36,2.82l3.09.27c3.36.31,5.67,1.6,5.67,5.2s-3.17,5.87-7.82,5.87h0Z"/>
    <path class="cls-1" d="M710.24,588.81c-3.28,0-4.93-2.31-4.93-5.16v-11.81h-2.42v-2.15h2.42v-6.02h2.81v6.02h4.11v2.15h-4.11v11.73c0,1.76.82,2.82,2.62,2.82h1.49v2.42h-1.99Z"/>
    <path class="cls-1" d="M729.91,573.25c-1.06-1.06-1.84-1.41-3.32-1.41-2.81,0-4.61,2.23-4.61,5.16v11.81h-2.82v-19.24h2.82v2.35c1.06-1.6,3.17-2.58,5.4-2.58,1.84,0,3.24.43,4.61,1.8l-2.07,2.11h0Z"/>
    <path class="cls-1" d="M747.47,579.93h-5.4c-2.89,0-4.3,1.17-4.3,3.4s1.37,3.28,4.42,3.28c1.64,0,3.09-.12,4.3-1.29.66-.63.98-1.72.98-3.32v-2.07h0ZM747.47,588.81v-1.84c-1.56,1.56-2.97,2.07-5.55,2.07s-4.22-.51-5.43-1.76c-.94-.94-1.45-2.39-1.45-3.91,0-3.36,2.35-5.55,6.65-5.55h5.79v-1.84c0-2.82-1.41-4.22-4.93-4.22-2.46,0-3.71.59-4.85,2.19l-1.92-1.76c1.72-2.23,3.68-2.86,6.8-2.86,5.16,0,7.7,2.23,7.7,6.42v13.06h-2.81Z"/>
    <path class="cls-1" d="M763.27,588.81c-3.36,0-4.89-2.19-4.89-5.12v-22.72h2.82v22.6c0,1.88.63,2.82,2.58,2.82h1.52v2.42h-2.03Z"/>
    <path class="cls-1" d="M771.4,588.81v-19.24h2.82v19.24h-2.82ZM772.81,564.25c-1.06,0-1.91-.86-1.91-1.92s.86-1.92,1.91-1.92,1.96.86,1.96,1.92-.9,1.92-1.96,1.92h0Z"/>
    <path class="cls-1" d="M793.53,579.93h-5.4c-2.89,0-4.3,1.17-4.3,3.4s1.37,3.28,4.42,3.28c1.64,0,3.09-.12,4.3-1.29.66-.63.98-1.72.98-3.32v-2.07h0ZM793.53,588.81v-1.84c-1.56,1.56-2.97,2.07-5.55,2.07s-4.22-.51-5.43-1.76c-.94-.94-1.45-2.39-1.45-3.91,0-3.36,2.35-5.55,6.65-5.55h5.79v-1.84c0-2.82-1.41-4.22-4.93-4.22-2.46,0-3.71.59-4.85,2.19l-1.92-1.76c1.72-2.23,3.68-2.86,6.8-2.86,5.16,0,7.7,2.23,7.7,6.42v13.06h-2.81Z"/>
    <path class="cls-1" d="M816.84,588.81v-11.85c0-3.4-1.84-5.12-4.73-5.12s-4.77,1.76-4.77,5.12v11.85h-2.82v-19.24h2.82v2.11c1.37-1.56,3.25-2.35,5.4-2.35s3.75.63,4.92,1.8c1.37,1.33,2,3.13,2,5.36v12.32h-2.82Z"/>
    <path class="cls-1" d="M855.43,585.84c-1.88,2.03-4.46,3.21-7.35,3.21-2.74,0-5.24-1.02-7.12-2.89-2.62-2.62-2.62-5.36-2.62-11.26s0-8.64,2.62-11.26c1.88-1.88,4.34-2.89,7.12-2.89,3.68,0,5.87,1.33,8.33,3.79l-1.99,1.99c-1.96-1.96-3.48-3.13-6.33-3.13-1.84,0-3.6.74-4.81,1.99-1.76,1.8-1.96,3.68-1.96,9.5s.2,7.74,1.96,9.54c1.21,1.25,2.97,1.96,4.81,1.96,2.03,0,3.95-.82,5.24-2.39,1.13-1.33,1.53-2.97,1.53-5.08v-2.07h-6.77v-2.62h9.73v4.42c0,3.21-.66,5.36-2.38,7.2h0Z"/>
    <path class="cls-1" d="M875.81,573.25c-.9-.9-2.15-1.41-3.52-1.41s-2.58.51-3.48,1.41c-1.41,1.41-1.56,3.79-1.56,5.94s.15,4.54,1.56,5.94c.9.9,2.11,1.41,3.48,1.41s2.62-.51,3.52-1.41c1.41-1.41,1.53-3.79,1.53-5.94s-.12-4.54-1.53-5.94h0ZM877.8,586.85c-1.33,1.33-3.17,2.19-5.52,2.19s-4.18-.86-5.51-2.19c-1.96-1.99-2.35-4.69-2.35-7.66s.39-5.67,2.35-7.66c1.33-1.33,3.17-2.19,5.51-2.19s4.19.86,5.52,2.19c1.96,1.99,2.35,4.69,2.35,7.66s-.39,5.67-2.35,7.66h0Z"/>
    <polygon class="cls-1" points="893.56 588.81 891.06 588.81 884.02 569.57 887.07 569.57 892.31 585.02 897.59 569.57 900.64 569.57 893.56 588.81 893.56 588.81"/>
    <path class="cls-1" d="M916.87,574.61c-.74-1.76-2.46-2.89-4.5-2.89s-3.75,1.13-4.49,2.89c-.43,1.06-.51,1.64-.59,3.21h10.17c-.08-1.56-.16-2.15-.59-3.21h0ZM907.28,579.93c0,4.22,1.99,6.65,5.67,6.65,2.23,0,3.52-.66,5.04-2.19l1.91,1.68c-1.95,1.96-3.75,2.97-7.03,2.97-5.09,0-8.41-3.05-8.41-9.85,0-6.22,3.01-9.85,7.9-9.85s7.9,3.6,7.9,9.31v1.29h-12.98Z"/>
    <path class="cls-1" d="M938.33,573.25c-1.06-1.06-1.84-1.41-3.32-1.41-2.82,0-4.61,2.23-4.61,5.16v11.81h-2.81v-19.24h2.81v2.35c1.06-1.6,3.17-2.58,5.4-2.58,1.84,0,3.25.43,4.61,1.8l-2.07,2.11h0Z"/>
    <path class="cls-1" d="M957.69,588.81v-11.85c0-3.4-1.84-5.12-4.73-5.12s-4.77,1.76-4.77,5.12v11.85h-2.82v-19.24h2.82v2.11c1.37-1.56,3.25-2.35,5.39-2.35s3.75.63,4.93,1.8c1.37,1.33,1.99,3.13,1.99,5.36v12.32h-2.82Z"/>
    <path class="cls-1" d="M993.39,588.81v-11.85c0-3.4-1.84-5.12-4.73-5.12s-4.81,1.76-4.81,4.81v12.16h-2.82v-11.85c0-3.4-1.84-5.12-4.73-5.12s-4.81,1.76-4.81,5.12v11.85h-2.82v-19.24h2.82v2.11c1.37-1.56,3.28-2.35,5.44-2.35,2.66,0,4.73,1.1,5.9,3.21,1.49-2.11,3.64-3.21,6.33-3.21,2.07,0,3.79.66,4.97,1.8,1.37,1.33,2.07,3.13,2.07,5.36v12.32h-2.82Z"/>
    <path class="cls-1" d="M1015.72,574.61c-.75-1.76-2.46-2.89-4.5-2.89s-3.76,1.13-4.5,2.89c-.43,1.06-.51,1.64-.59,3.21h10.16c-.08-1.56-.16-2.15-.58-3.21h0ZM1006.14,579.93c0,4.22,1.99,6.65,5.67,6.65,2.23,0,3.52-.66,5.04-2.19l1.92,1.68c-1.96,1.96-3.75,2.97-7.04,2.97-5.08,0-8.41-3.05-8.41-9.85,0-6.22,3.01-9.85,7.9-9.85s7.9,3.6,7.9,9.31v1.29h-12.98Z"/>
    <path class="cls-1" d="M1038.75,588.81v-11.85c0-3.4-1.84-5.12-4.73-5.12s-4.77,1.76-4.77,5.12v11.85h-2.82v-19.24h2.82v2.11c1.37-1.56,3.25-2.35,5.39-2.35s3.75.63,4.93,1.8c1.37,1.33,1.99,3.13,1.99,5.36v12.32h-2.82Z"/>
    <path class="cls-1" d="M1055.14,588.81c-3.28,0-4.92-2.31-4.92-5.16v-11.81h-2.43v-2.15h2.43v-6.02h2.81v6.02h4.11v2.15h-4.11v11.73c0,1.76.82,2.82,2.62,2.82h1.49v2.42h-1.99Z"/>
    <polygon class="cls-1" points="1075.63 588.81 1075.63 560.97 1078.6 560.97 1078.6 588.81 1075.63 588.81 1075.63 588.81"/>
    <path class="cls-1" d="M1099.79,588.81v-11.85c0-3.4-1.84-5.12-4.73-5.12s-4.77,1.76-4.77,5.12v11.85h-2.82v-19.24h2.82v2.11c1.37-1.56,3.24-2.35,5.4-2.35s3.75.63,4.92,1.8c1.37,1.33,1.99,3.13,1.99,5.36v12.32h-2.81Z"/>
    <path class="cls-1" d="M1110.78,588.81v-19.24h2.82v19.24h-2.82ZM1112.19,564.25c-1.06,0-1.91-.86-1.91-1.92s.86-1.92,1.91-1.92,1.96.86,1.96,1.92-.9,1.92-1.96,1.92h0Z"/>
    <path class="cls-1" d="M1127.4,588.81c-3.28,0-4.93-2.31-4.93-5.16v-11.81h-2.43v-2.15h2.43v-6.02h2.82v6.02h4.11v2.15h-4.11v11.73c0,1.76.82,2.82,2.62,2.82h1.49v2.42h-1.99Z"/>
    <path class="cls-1" d="M1136.32,588.81v-19.24h2.82v19.24h-2.82ZM1137.72,564.25c-1.06,0-1.91-.86-1.91-1.92s.86-1.92,1.91-1.92,1.96.86,1.96,1.92-.9,1.92-1.96,1.92h0Z"/>
    <path class="cls-1" d="M1158.45,579.93h-5.4c-2.89,0-4.3,1.17-4.3,3.4s1.37,3.28,4.42,3.28c1.64,0,3.09-.12,4.3-1.29.66-.63.98-1.72.98-3.32v-2.07h0ZM1158.45,588.81v-1.84c-1.56,1.56-2.97,2.07-5.55,2.07s-4.22-.51-5.43-1.76c-.94-.94-1.45-2.39-1.45-3.91,0-3.36,2.35-5.55,6.65-5.55h5.79v-1.84c0-2.82-1.41-4.22-4.93-4.22-2.46,0-3.71.59-4.85,2.19l-1.92-1.76c1.72-2.23,3.67-2.86,6.8-2.86,5.16,0,7.7,2.23,7.7,6.42v13.06h-2.82Z"/>
    <path class="cls-1" d="M1174.83,588.81c-3.28,0-4.93-2.31-4.93-5.16v-11.81h-2.42v-2.15h2.42v-6.02h2.82v6.02h4.11v2.15h-4.11v11.73c0,1.76.82,2.82,2.62,2.82h1.49v2.42h-1.99Z"/>
    <path class="cls-1" d="M1183.75,588.81v-19.24h2.81v19.24h-2.81ZM1185.15,564.25c-1.06,0-1.92-.86-1.92-1.92s.86-1.92,1.92-1.92,1.96.86,1.96,1.92-.9,1.92-1.96,1.92h0Z"/>
    <polygon class="cls-1" points="1201.42 588.81 1198.92 588.81 1191.88 569.57 1194.93 569.57 1200.17 585.02 1205.45 569.57 1208.5 569.57 1201.42 588.81 1201.42 588.81"/>
    <path class="cls-1" d="M1224.73,574.61c-.74-1.76-2.46-2.89-4.5-2.89s-3.75,1.13-4.5,2.89c-.43,1.06-.51,1.64-.58,3.21h10.16c-.08-1.56-.15-2.15-.59-3.21h0ZM1215.15,579.93c0,4.22,1.99,6.65,5.67,6.65,2.23,0,3.52-.66,5.04-2.19l1.92,1.68c-1.95,1.96-3.75,2.97-7.04,2.97-5.08,0-8.41-3.05-8.41-9.85,0-6.22,3.01-9.85,7.9-9.85s7.9,3.6,7.9,9.31v1.29h-12.98Z"/>
    <polygon class="cls-1" points="1235.78 547.26 568.31 547.26 568.31 546.11 1235.78 546.11 1235.78 547.26 1235.78 547.26"/>
    <polygon class="cls-1" points="1235.78 604 568.31 604 568.31 602.85 1235.78 602.85 1235.78 604 1235.78 604"/>
    <polygon class="cls-4" points="1226.8 373.93 1151.39 406.95 1151.39 314.46 1226.8 281.44 1226.8 373.93 1226.8 373.93"/>
    <polygon class="cls-6" points="1226.8 373.93 1151.39 406.95 1151.39 314.46 1226.8 281.44 1226.8 373.93 1226.8 373.93"/>
    <polygon class="cls-2" points="1075.98 373.93 1151.39 406.95 1151.39 314.46 1075.98 281.44 1075.98 373.93 1075.98 373.93"/>
    <polygon class="cls-6" points="1075.98 373.93 1151.39 406.95 1151.39 314.46 1075.98 281.44 1075.98 373.93 1075.98 373.93"/>
    <polygon class="cls-3" points="1226.8 281.42 1151.39 314.44 1075.98 281.44 1151.39 248.42 1226.8 281.42 1226.8 281.42"/>
    <polygon class="cls-5" points="1226.8 281.42 1151.39 314.44 1075.98 281.44 1151.39 248.42 1226.8 281.42 1226.8 281.42"/>
    <polygon class="cls-4" points="1151.39 248.42 1075.98 281.44 1075.98 188.96 1151.39 155.94 1151.39 248.42 1151.39 248.42"/>
    <polygon class="cls-6" points="1151.39 248.42 1075.98 281.44 1075.98 188.96 1151.39 155.94 1151.39 248.42 1151.39 248.42"/>
    <polygon class="cls-2" points="1000.57 248.42 1075.98 281.44 1075.98 188.96 1000.57 155.94 1000.57 248.42 1000.57 248.42"/>
    <polygon class="cls-6" points="1000.57 248.42 1075.98 281.44 1075.98 188.96 1000.57 155.94 1000.57 248.42 1000.57 248.42"/>
    <polygon class="cls-2" points="1151.39 155.91 1075.98 188.93 1000.57 155.94 1075.98 122.92 1151.39 155.91 1151.39 155.91"/>
    <polygon class="cls-6" points="1151.39 155.91 1075.98 188.93 1000.57 155.94 1075.98 122.92 1151.39 155.91 1151.39 155.91"/>
  </g>
  <path class="cls-2" d="M482.39,202.02c-20.36-20.36-47.9-31.14-79.64-31.14-28.12,0-52.93,8.46-72.38,24.55l24.49,16.62c12.57-9.03,28.58-14.22,47.89-14.22,53.3,0,81.44,39.52,81.44,89.82v129.93c0,50.3-28.14,89.82-81.44,89.82s-81.42-39.52-81.42-89.82v-36.7l-30.48,44.1c1.01,31.65,12.8,58.76,32.27,78.23,20.35,20.36,47.89,31.14,79.63,31.14s59.29-10.78,79.64-31.14c20.37-20.36,32.34-49.1,32.34-82.64v-135.93c0-33.53-11.98-62.27-32.34-82.63Z"/>
  <path class="cls-2" d="M163.09,569.54l173.55-220.94c16.69-21.85,24.28-42.48,24.28-67.96,0-51.58-30.04-86.17-82.22-86.17-32.77,0-60.38,13.35-74.33,41.26-6.38,12.74-9.71,27.92-9.71,44.91h-30.95c0-32.17,12.14-61.29,32.77-81.92,20.03-20.03,47.63-31.55,82.22-31.55s62.2,11.53,82.22,31.55c20.03,20.03,30.95,47.94,30.95,81.92,0,32.16-10.01,57.34-29.74,83.13l-162.01,205.77h90.74v27.31h-127.76v-27.31Z"/>
  <g>
    <path class="cls-4" d="M326.91,585.42l-13.19-25.97h9.33l8.15,17.76,8.12-17.76h9.33l-13.19,25.97v18h-8.56v-18Z"/>
    <path class="cls-4" d="M357.08,559.44h28.94v7.63h-20.38v10.35h17.39v7.66h-17.39v10.72h20.38v7.63h-28.94v-43.98Z"/>
    <path class="cls-4" d="M408.7,559.44h6.67l16.06,43.98h-8.99l-2.63-7.78h-15.57l-2.62,7.78h-8.99l16.06-43.98ZM417.41,588.44l-5.37-16-5.37,16h10.75Z"/>
    <path class="cls-4" d="M439.95,559.44h17.2c8.99,0,14.3,6.08,14.3,13.43,0,5.96-3.52,9.88-8,11.74l9.79,18.81h-9.85l-8.56-17.54h-6.33v17.54h-8.55v-43.98ZM456.69,578.65c3.77,0,6.21-2.35,6.21-5.81s-2.44-5.78-6.21-5.78h-8.18v11.58h8.18Z"/>
    <path class="cls-4" d="M479.41,597.98l5.53-5.53c2.78,2.78,6.58,3.71,10.62,3.71,2.96,0,5.16-.71,6.42-1.95.9-.93,1.39-2.13,1.39-3.55,0-1.08-.22-1.92-.56-2.59-.71-1.39-2.1-2.16-4.45-2.53l-5.53-.83c-5.03-.74-8.65-2.69-10.44-6.27-.83-1.7-1.27-3.67-1.27-6.02,0-3.64,1.24-6.73,3.55-9.05,2.69-2.69,6.86-4.29,12.23-4.29s9.98,1.48,13.74,5.1l-5.4,5.4c-2.38-2.35-5.03-3.03-8.59-3.03-2.75,0-4.66.77-5.81,1.92-.96.99-1.45,2.22-1.45,3.52,0,.93.19,1.67.46,2.25.83,1.64,2.75,2.38,4.85,2.69l5.5.83c5.13.77,8.43,2.59,10.22,6.21.9,1.76,1.36,3.95,1.36,6.49,0,3.64-1.3,6.58-3.49,8.8-2.96,2.96-7.57,4.54-12.85,4.54-6.67,0-11.77-1.39-16.06-5.81Z"/>
  </g>
</svg>