<?xml version="1.0" encoding="UTF-8"?>
<svg id="Layer_1" data-name="Layer 1" xmlns="http://www.w3.org/2000/svg" viewBox="0 0 1417.32 743.2">
  <defs>
    <style>
      .cls-1 {
        stroke-width: 2.28px;
      }

      .cls-1, .cls-2, .cls-3 {
        fill: #fff;
      }

      .cls-1, .cls-2, .cls-4 {
        stroke: #fff;
        stroke-linejoin: round;
      }

      .cls-2, .cls-4 {
        stroke-width: 2.28px;
      }

      .cls-4 {
        fill: none;
      }
    </style>
  </defs>
  <g>
    <path class="cls-3" d="M482.39,202.02c-20.36-20.36-47.9-31.14-79.64-31.14-28.12,0-52.93,8.46-72.38,24.55l24.49,16.62c12.57-9.03,28.58-14.22,47.89-14.22,53.3,0,81.44,39.52,81.44,89.82v129.93c0,50.3-28.14,89.82-81.44,89.82s-81.42-39.52-81.42-89.82v-36.7l-30.48,44.1c1.01,31.65,12.8,58.76,32.27,78.23,20.35,20.36,47.89,31.14,79.63,31.14s59.29-10.78,79.64-31.14c20.37-20.36,32.34-49.1,32.34-82.64v-135.93c0-33.53-11.98-62.27-32.34-82.63Z"/>
    <path class="cls-3" d="M163.09,569.54l173.55-220.94c16.69-21.85,24.28-42.48,24.28-67.96,0-51.58-30.04-86.17-82.22-86.17-32.77,0-60.38,13.35-74.33,41.26-6.38,12.74-9.71,27.92-9.71,44.91h-30.95c0-32.17,12.14-61.29,32.77-81.92,20.03-20.03,47.63-31.55,82.22-31.55s62.2,11.53,82.22,31.55c20.03,20.03,30.95,47.94,30.95,81.92,0,32.16-10.01,57.34-29.74,83.13l-162.01,205.77h90.74v27.31h-127.76v-27.31Z"/>
    <g>
      <path class="cls-3" d="M326.91,585.42l-13.19-25.97h9.33l8.15,17.76,8.12-17.76h9.33l-13.19,25.97v18h-8.56v-18Z"/>
      <path class="cls-3" d="M357.08,559.44h28.94v7.63h-20.38v10.35h17.39v7.66h-17.39v10.72h20.38v7.63h-28.94v-43.98Z"/>
      <path class="cls-3" d="M408.7,559.44h6.67l16.06,43.98h-8.99l-2.63-7.78h-15.57l-2.62,7.78h-8.99l16.06-43.98ZM417.41,588.44l-5.37-16-5.37,16h10.75Z"/>
      <path class="cls-3" d="M439.95,559.44h17.2c8.99,0,14.3,6.08,14.3,13.43,0,5.96-3.52,9.88-8,11.74l9.79,18.81h-9.85l-8.56-17.54h-6.33v17.54h-8.55v-43.98ZM456.69,578.65c3.77,0,6.21-2.35,6.21-5.81s-2.44-5.78-6.21-5.78h-8.18v11.58h8.18Z"/>
      <path class="cls-3" d="M479.41,597.98l5.53-5.53c2.78,2.78,6.58,3.71,10.62,3.71,2.96,0,5.16-.71,6.42-1.95.9-.93,1.39-2.13,1.39-3.55,0-1.08-.22-1.92-.56-2.59-.71-1.39-2.1-2.16-4.45-2.53l-5.53-.83c-5.03-.74-8.65-2.69-10.44-6.27-.83-1.7-1.27-3.67-1.27-6.02,0-3.64,1.24-6.73,3.55-9.05,2.69-2.69,6.86-4.29,12.23-4.29s9.98,1.48,13.74,5.1l-5.4,5.4c-2.38-2.35-5.03-3.03-8.59-3.03-2.75,0-4.66.77-5.81,1.92-.96.99-1.45,2.22-1.45,3.52,0,.93.19,1.67.46,2.25.83,1.64,2.75,2.38,4.85,2.69l5.5.83c5.13.77,8.43,2.59,10.22,6.21.9,1.76,1.36,3.95,1.36,6.49,0,3.64-1.3,6.58-3.49,8.8-2.96,2.96-7.57,4.54-12.85,4.54-6.67,0-11.77-1.39-16.06-5.81Z"/>
    </g>
  </g>
  <g>
    <g>
      <g>
        <path class="cls-3" d="M649.13,403.11l-54.87-83.56v83.56h-18.01v-118.75h16.51l54.87,83.39v-83.39h18.01v118.75h-16.51Z"/>
        <path class="cls-3" d="M731.69,404.11c-12.34,0-23.02-4.5-31.19-12.68-11.68-11.67-11.51-24.85-11.51-47.7s-.17-36.03,11.51-47.7c8.17-8.17,18.85-12.68,31.19-12.68,21.85,0,38.19,12.84,42.36,36.53h-18.35c-2.84-12.01-10.84-20.35-24.02-20.35-7.01,0-13.34,2.67-17.51,7.17-5.84,6.34-7.17,13.18-7.17,37.03s1.33,30.69,7.17,37.03c4.17,4.5,10.51,7.17,17.51,7.17,13.18,0,21.35-8.34,24.18-20.35h18.18c-4,23.68-20.85,36.53-42.36,36.53Z"/>
        <path class="cls-3" d="M860.29,403.11l-25.02-50.04h-22.52v50.04h-18.01v-118.75h46.04c22.51,0,36.86,14.51,36.86,34.69,0,17.01-10.34,27.86-23.69,31.52l27.35,52.54h-21.02ZM839.44,300.54h-26.69v37.19h26.69c12.01,0,20.18-6.84,20.18-18.51s-8.17-18.68-20.18-18.68Z"/>
        <path class="cls-3" d="M900.66,403.11v-118.75h18.01v118.75h-18.01Z"/>
        <path class="cls-3" d="M977.88,404.11c-17.85,0-30.69-4.17-42.03-15.68l12-11.84c8.67,8.67,18.18,11.34,30.36,11.34,15.51,0,24.52-6.67,24.52-18.18,0-5.17-1.5-9.51-4.67-12.34-3-2.83-6-4-13.01-5l-14.01-2c-9.68-1.33-17.35-4.67-22.52-9.51-5.84-5.5-8.67-13.01-8.67-22.68,0-20.68,15.01-34.86,39.7-34.86,15.68,0,26.69,4,36.86,13.51l-11.51,11.34c-7.34-7-15.85-9.17-25.85-9.17-14.01,0-21.68,8.01-21.68,18.51,0,4.34,1.33,8.17,4.5,11.01,3,2.67,7.84,4.67,13.34,5.5l13.51,2c11.01,1.67,17.18,4.34,22.19,8.84,6.5,5.67,9.67,14.18,9.67,24.35,0,21.85-17.85,34.86-42.7,34.86Z"/>
      </g>
      <g>
        <path class="cls-3" d="M601.09,465.55l-20.88-31.54v31.54h-4.2v-39.33h3.98l20.88,31.43v-31.43h4.2v39.33h-3.98Z"/>
        <path class="cls-3" d="M631.13,465.55v-2.6c-2.21,2.21-4.2,2.93-7.84,2.93s-5.96-.72-7.68-2.49c-1.33-1.33-2.04-3.37-2.04-5.52,0-4.75,3.31-7.84,9.39-7.84h8.17v-2.6c0-3.98-1.99-5.97-6.96-5.97-3.48,0-5.25.83-6.85,3.09l-2.71-2.49c2.43-3.15,5.19-4.03,9.61-4.03,7.29,0,10.88,3.15,10.88,9.06v18.45h-3.98ZM631.13,453.01h-7.62c-4.09,0-6.08,1.66-6.08,4.8s1.93,4.64,6.24,4.64c2.32,0,4.36-.17,6.08-1.82.94-.88,1.38-2.43,1.38-4.69v-2.93Z"/>
        <path class="cls-3" d="M652.39,465.55c-4.64,0-6.96-3.26-6.96-7.29v-16.68h-3.42v-3.04h3.42v-8.51h3.98v8.51h5.8v3.04h-5.8v16.57c0,2.49,1.16,3.98,3.7,3.98h2.1v3.42h-2.82Z"/>
        <path class="cls-3" d="M665.09,430.86c-1.49,0-2.71-1.22-2.71-2.71s1.21-2.71,2.71-2.71,2.76,1.21,2.76,2.71-1.27,2.71-2.76,2.71ZM663.1,465.55v-27.18h3.98v27.18h-3.98Z"/>
        <path class="cls-3" d="M694.53,462.79c-1.88,1.88-4.47,3.09-7.79,3.09s-5.91-1.22-7.79-3.09c-2.76-2.82-3.31-6.63-3.31-10.83s.55-8.01,3.31-10.83c1.88-1.88,4.47-3.09,7.79-3.09s5.91,1.22,7.79,3.09c2.76,2.82,3.31,6.63,3.31,10.83s-.55,8.01-3.31,10.83ZM691.71,443.57c-1.27-1.27-3.04-1.99-4.97-1.99s-3.65.72-4.91,1.99c-1.99,1.99-2.21,5.36-2.21,8.4s.22,6.41,2.21,8.39c1.27,1.27,2.98,1.99,4.91,1.99s3.7-.72,4.97-1.99c1.99-1.99,2.16-5.36,2.16-8.39s-.17-6.41-2.16-8.4Z"/>
        <path class="cls-3" d="M723.75,465.55v-16.74c0-4.81-2.6-7.24-6.68-7.24s-6.74,2.49-6.74,7.24v16.74h-3.98v-27.18h3.98v2.98c1.93-2.21,4.58-3.31,7.62-3.31s5.3.88,6.96,2.54c1.93,1.88,2.82,4.42,2.82,7.57v17.4h-3.98Z"/>
        <path class="cls-3" d="M752.8,465.55v-2.6c-2.21,2.21-4.2,2.93-7.84,2.93s-5.96-.72-7.68-2.49c-1.33-1.33-2.04-3.37-2.04-5.52,0-4.75,3.31-7.84,9.39-7.84h8.17v-2.6c0-3.98-1.99-5.97-6.96-5.97-3.48,0-5.25.83-6.85,3.09l-2.71-2.49c2.43-3.15,5.19-4.03,9.61-4.03,7.29,0,10.88,3.15,10.88,9.06v18.45h-3.98ZM752.8,453.01h-7.62c-4.09,0-6.08,1.66-6.08,4.8s1.93,4.64,6.24,4.64c2.32,0,4.36-.17,6.08-1.82.94-.88,1.38-2.43,1.38-4.69v-2.93Z"/>
        <path class="cls-3" d="M773.23,465.55c-4.75,0-6.9-3.09-6.9-7.24v-32.09h3.98v31.92c0,2.65.88,3.98,3.65,3.98h2.15v3.42h-2.87Z"/>
        <path class="cls-3" d="M819.9,465.55l-8.95-17.45h-9.45v17.45h-4.2v-39.33h15.08c6.85,0,11.65,4.14,11.65,10.94,0,5.74-3.48,9.5-8.56,10.55l9.33,17.84h-4.92ZM812,429.98h-10.49v14.42h10.49c4.58,0,7.84-2.38,7.84-7.18s-3.26-7.24-7.84-7.24Z"/>
        <path class="cls-3" d="M835.3,453.01c0,5.96,2.82,9.39,8.01,9.39,3.15,0,4.97-.94,7.13-3.09l2.71,2.38c-2.76,2.76-5.3,4.2-9.94,4.2-7.18,0-11.87-4.31-11.87-13.92,0-8.78,4.25-13.92,11.16-13.92s11.16,5.08,11.16,13.15v1.82h-18.34ZM848.84,445.5c-1.05-2.49-3.48-4.09-6.35-4.09s-5.3,1.6-6.35,4.09c-.61,1.49-.72,2.32-.83,4.53h14.36c-.11-2.21-.22-3.04-.83-4.53Z"/>
        <path class="cls-3" d="M870.65,465.88c-4.58,0-8.18-1.05-11.16-3.92l2.65-2.65c2.16,2.27,5.08,3.15,8.45,3.15,4.47,0,7.24-1.6,7.24-4.8,0-2.38-1.38-3.7-4.53-3.98l-4.47-.39c-5.3-.44-8.12-2.82-8.12-7.29,0-4.97,4.2-7.95,10-7.95,3.87,0,7.35.94,9.78,2.93l-2.6,2.6c-1.93-1.49-4.42-2.15-7.24-2.15-3.98,0-6.08,1.71-6.08,4.47,0,2.32,1.33,3.7,4.75,3.98l4.36.39c4.75.44,8.01,2.26,8.01,7.35s-4.47,8.29-11.05,8.29Z"/>
        <path class="cls-3" d="M891.97,453.01c0,5.96,2.82,9.39,8.01,9.39,3.15,0,4.97-.94,7.12-3.09l2.71,2.38c-2.76,2.76-5.3,4.2-9.94,4.2-7.18,0-11.87-4.31-11.87-13.92,0-8.78,4.25-13.92,11.16-13.92s11.16,5.08,11.16,13.15v1.82h-18.34ZM905.5,445.5c-1.05-2.49-3.48-4.09-6.35-4.09s-5.3,1.6-6.35,4.09c-.61,1.49-.72,2.32-.83,4.53h14.36c-.11-2.21-.22-3.04-.83-4.53Z"/>
        <path class="cls-3" d="M934.17,465.55v-2.6c-2.21,2.21-4.2,2.93-7.85,2.93s-5.96-.72-7.68-2.49c-1.33-1.33-2.04-3.37-2.04-5.52,0-4.75,3.31-7.84,9.39-7.84h8.17v-2.6c0-3.98-1.99-5.97-6.96-5.97-3.48,0-5.25.83-6.85,3.09l-2.71-2.49c2.43-3.15,5.19-4.03,9.61-4.03,7.29,0,10.88,3.15,10.88,9.06v18.45h-3.98ZM934.17,453.01h-7.62c-4.09,0-6.07,1.66-6.07,4.8s1.93,4.64,6.24,4.64c2.32,0,4.36-.17,6.07-1.82.94-.88,1.38-2.43,1.38-4.69v-2.93Z"/>
        <path class="cls-3" d="M962.99,443.57c-1.49-1.49-2.6-1.99-4.69-1.99-3.98,0-6.52,3.15-6.52,7.29v16.68h-3.98v-27.18h3.98v3.31c1.49-2.27,4.47-3.65,7.62-3.65,2.59,0,4.58.61,6.52,2.54l-2.93,2.98Z"/>
        <path class="cls-3" d="M979.9,465.88c-6.85,0-12.04-4.64-12.04-13.92s5.19-13.92,12.04-13.92c3.76,0,6.13.99,8.95,4.03l-2.71,2.54c-2.04-2.27-3.65-3.04-6.24-3.04s-4.86,1.05-6.3,3.09c-1.27,1.77-1.77,3.87-1.77,7.29s.5,5.52,1.77,7.29c1.43,2.04,3.65,3.09,6.3,3.09s4.2-.83,6.24-3.09l2.71,2.6c-2.82,3.04-5.19,4.03-8.95,4.03Z"/>
        <path class="cls-3" d="M1013.81,465.55v-16.79c0-4.75-2.54-7.18-6.63-7.18s-6.8,2.49-6.8,7.18v16.79h-3.98v-39.33h3.98v15.13c1.99-2.27,4.58-3.31,7.62-3.31,6.13,0,9.78,3.92,9.78,10.05v17.45h-3.98Z"/>
        <path class="cls-3" d="M576.01,520.78v-39.33h4.2v39.33h-4.2Z"/>
        <path class="cls-3" d="M608.27,520.78v-16.74c0-4.81-2.6-7.24-6.68-7.24s-6.74,2.49-6.74,7.24v16.74h-3.98v-27.18h3.98v2.98c1.93-2.21,4.58-3.31,7.62-3.31s5.3.88,6.96,2.54c1.93,1.88,2.82,4.42,2.82,7.57v17.4h-3.98Z"/>
        <path class="cls-3" d="M626.77,496.81v23.97h-3.98v-23.97h-3.48v-3.04h3.48v-5.14c0-4.03,2.26-7.29,6.9-7.29h2.87v3.42h-2.15c-2.54,0-3.65,1.49-3.65,3.98v5.03h5.8v3.04h-5.8Z"/>
        <path class="cls-3" d="M654.44,498.8c-1.49-1.49-2.6-1.99-4.69-1.99-3.98,0-6.52,3.15-6.52,7.29v16.68h-3.98v-27.18h3.98v3.31c1.49-2.27,4.47-3.65,7.62-3.65,2.6,0,4.58.61,6.52,2.54l-2.93,2.98Z"/>
        <path class="cls-3" d="M677.36,520.78v-2.6c-2.21,2.21-4.2,2.93-7.84,2.93s-5.96-.72-7.68-2.49c-1.33-1.33-2.04-3.37-2.04-5.52,0-4.75,3.31-7.84,9.39-7.84h8.17v-2.6c0-3.98-1.99-5.97-6.96-5.97-3.48,0-5.25.83-6.85,3.09l-2.71-2.49c2.43-3.15,5.19-4.03,9.61-4.03,7.29,0,10.88,3.15,10.88,9.06v18.45h-3.98ZM677.36,508.24h-7.62c-4.09,0-6.08,1.66-6.08,4.8s1.93,4.64,6.24,4.64c2.32,0,4.36-.17,6.08-1.82.94-.88,1.38-2.43,1.38-4.69v-2.93Z"/>
        <path class="cls-3" d="M699.56,521.11c-4.58,0-8.17-1.05-11.16-3.92l2.65-2.65c2.15,2.27,5.08,3.15,8.45,3.15,4.47,0,7.24-1.6,7.24-4.8,0-2.38-1.38-3.7-4.53-3.98l-4.47-.39c-5.3-.44-8.12-2.82-8.12-7.29,0-4.97,4.2-7.95,10-7.95,3.87,0,7.35.94,9.78,2.93l-2.6,2.6c-1.93-1.49-4.42-2.15-7.24-2.15-3.98,0-6.08,1.71-6.08,4.47,0,2.32,1.33,3.7,4.75,3.98l4.36.39c4.75.44,8.01,2.26,8.01,7.35s-4.47,8.29-11.05,8.29Z"/>
        <path class="cls-3" d="M725.46,520.78c-4.64,0-6.96-3.26-6.96-7.29v-16.68h-3.42v-3.04h3.42v-8.51h3.98v8.51h5.8v3.04h-5.8v16.57c0,2.49,1.16,3.98,3.7,3.98h2.1v3.42h-2.82Z"/>
        <path class="cls-3" d="M751.36,498.8c-1.49-1.49-2.6-1.99-4.69-1.99-3.98,0-6.52,3.15-6.52,7.29v16.68h-3.98v-27.18h3.98v3.31c1.49-2.27,4.47-3.65,7.62-3.65,2.6,0,4.58.61,6.52,2.54l-2.93,2.98Z"/>
        <path class="cls-3" d="M776.6,520.78v-3.04c-1.93,2.21-4.64,3.37-7.68,3.37s-5.36-.88-7.01-2.54c-1.93-1.88-2.76-4.47-2.76-7.62v-17.34h3.98v16.74c0,4.81,2.54,7.24,6.63,7.24s6.79-2.49,6.79-7.24v-16.74h3.98v27.18h-3.92Z"/>
        <path class="cls-3" d="M801.01,521.11c-6.85,0-12.04-4.64-12.04-13.92s5.19-13.92,12.04-13.92c3.76,0,6.13.99,8.95,4.03l-2.71,2.54c-2.04-2.27-3.65-3.04-6.24-3.04s-4.86,1.05-6.3,3.09c-1.27,1.77-1.77,3.87-1.77,7.29s.5,5.52,1.77,7.29c1.44,2.04,3.64,3.09,6.3,3.09s4.2-.83,6.24-3.09l2.71,2.6c-2.82,3.04-5.19,4.03-8.95,4.03Z"/>
        <path class="cls-3" d="M825.14,520.78c-4.64,0-6.96-3.26-6.96-7.29v-16.68h-3.42v-3.04h3.42v-8.51h3.98v8.51h5.8v3.04h-5.8v16.57c0,2.49,1.16,3.98,3.7,3.98h2.1v3.42h-2.82Z"/>
        <path class="cls-3" d="M853.03,520.78v-3.04c-1.93,2.21-4.64,3.37-7.68,3.37s-5.36-.88-7.02-2.54c-1.93-1.88-2.76-4.47-2.76-7.62v-17.34h3.98v16.74c0,4.81,2.54,7.24,6.63,7.24s6.79-2.49,6.79-7.24v-16.74h3.98v27.18h-3.92Z"/>
        <path class="cls-3" d="M882.09,498.8c-1.49-1.49-2.6-1.99-4.7-1.99-3.98,0-6.52,3.15-6.52,7.29v16.68h-3.98v-27.18h3.98v3.31c1.49-2.27,4.47-3.65,7.62-3.65,2.6,0,4.58.61,6.52,2.54l-2.93,2.98Z"/>
        <path class="cls-3" d="M890.92,508.24c0,5.96,2.82,9.39,8.01,9.39,3.15,0,4.97-.94,7.13-3.09l2.71,2.38c-2.76,2.76-5.3,4.2-9.94,4.2-7.18,0-11.87-4.31-11.87-13.92,0-8.78,4.25-13.92,11.16-13.92s11.16,5.08,11.16,13.15v1.82h-18.34ZM904.45,500.73c-1.05-2.49-3.48-4.09-6.35-4.09s-5.3,1.6-6.35,4.09c-.61,1.49-.72,2.32-.83,4.53h14.36c-.11-2.21-.22-3.04-.83-4.53Z"/>
        <path class="cls-3" d="M936.32,496.81v23.97h-3.98v-23.97h-3.48v-3.04h3.48v-5.14c0-4.03,2.27-7.29,6.9-7.29h2.87v3.42h-2.15c-2.54,0-3.65,1.49-3.65,3.98v5.03h5.8v3.04h-5.8Z"/>
        <path class="cls-3" d="M965.37,518.02c-1.88,1.88-4.47,3.09-7.79,3.09s-5.91-1.22-7.79-3.09c-2.76-2.82-3.31-6.63-3.31-10.83s.55-8.01,3.31-10.83c1.88-1.88,4.47-3.09,7.79-3.09s5.91,1.22,7.79,3.09c2.76,2.82,3.31,6.63,3.31,10.83s-.55,8.01-3.31,10.83ZM962.55,498.8c-1.27-1.27-3.04-1.99-4.97-1.99s-3.65.72-4.92,1.99c-1.99,1.99-2.21,5.36-2.21,8.4s.22,6.41,2.21,8.39c1.27,1.27,2.98,1.99,4.92,1.99s3.7-.72,4.97-1.99c1.99-1.99,2.15-5.36,2.15-8.39s-.17-6.41-2.15-8.4Z"/>
        <path class="cls-3" d="M992.37,498.8c-1.49-1.49-2.59-1.99-4.69-1.99-3.98,0-6.52,3.15-6.52,7.29v16.68h-3.98v-27.18h3.98v3.31c1.49-2.27,4.47-3.65,7.62-3.65,2.6,0,4.58.61,6.52,2.54l-2.93,2.98Z"/>
        <path class="cls-3" d="M1037.83,520.78l-3.15-8.89h-17.18l-3.15,8.89h-4.47l14.47-39.33h3.53l14.42,39.33h-4.47ZM1026.17,487.47l-7.4,20.77h14.69l-7.29-20.77Z"/>
        <path class="cls-3" d="M1065.11,520.78v-3.04c-1.93,2.21-4.64,3.37-7.68,3.37s-5.36-.88-7.02-2.54c-1.93-1.88-2.76-4.47-2.76-7.62v-17.34h3.98v16.74c0,4.81,2.54,7.24,6.63,7.24s6.8-2.49,6.8-7.24v-16.74h3.98v27.18h-3.92Z"/>
        <path class="cls-3" d="M1087.53,521.11c-4.58,0-8.18-1.05-11.16-3.92l2.65-2.65c2.16,2.27,5.08,3.15,8.45,3.15,4.47,0,7.24-1.6,7.24-4.8,0-2.38-1.38-3.7-4.53-3.98l-4.48-.39c-5.3-.44-8.12-2.82-8.12-7.29,0-4.97,4.2-7.95,10-7.95,3.87,0,7.35.94,9.78,2.93l-2.59,2.6c-1.93-1.49-4.42-2.15-7.24-2.15-3.98,0-6.08,1.71-6.08,4.47,0,2.32,1.33,3.7,4.75,3.98l4.36.39c4.75.44,8.01,2.26,8.01,7.35s-4.48,8.29-11.05,8.29Z"/>
        <path class="cls-3" d="M1113.43,520.78c-4.64,0-6.96-3.26-6.96-7.29v-16.68h-3.42v-3.04h3.42v-8.51h3.98v8.51h5.8v3.04h-5.8v16.57c0,2.49,1.16,3.98,3.7,3.98h2.1v3.42h-2.82Z"/>
        <path class="cls-3" d="M1139.34,498.8c-1.49-1.49-2.6-1.99-4.69-1.99-3.98,0-6.52,3.15-6.52,7.29v16.68h-3.98v-27.18h3.98v3.31c1.49-2.27,4.48-3.65,7.62-3.65,2.6,0,4.58.61,6.52,2.54l-2.93,2.98Z"/>
        <path class="cls-3" d="M1162.26,520.78v-2.6c-2.21,2.21-4.2,2.93-7.85,2.93s-5.96-.72-7.68-2.49c-1.33-1.33-2.04-3.37-2.04-5.52,0-4.75,3.31-7.84,9.39-7.84h8.17v-2.6c0-3.98-1.99-5.97-6.96-5.97-3.48,0-5.25.83-6.85,3.09l-2.71-2.49c2.43-3.15,5.19-4.03,9.61-4.03,7.29,0,10.88,3.15,10.88,9.06v18.45h-3.98ZM1162.26,508.24h-7.62c-4.09,0-6.07,1.66-6.07,4.8s1.93,4.64,6.24,4.64c2.32,0,4.36-.17,6.07-1.82.94-.88,1.38-2.43,1.38-4.69v-2.93Z"/>
        <path class="cls-3" d="M1182.69,520.78c-4.75,0-6.9-3.09-6.9-7.24v-32.09h3.98v31.92c0,2.65.89,3.98,3.65,3.98h2.16v3.42h-2.87Z"/>
        <path class="cls-3" d="M1194.29,486.09c-1.49,0-2.71-1.22-2.71-2.71s1.21-2.71,2.71-2.71,2.76,1.21,2.76,2.71-1.27,2.71-2.76,2.71ZM1192.3,520.78v-27.18h3.98v27.18h-3.98Z"/>
        <path class="cls-3" d="M1221.68,520.78v-2.6c-2.21,2.21-4.2,2.93-7.84,2.93s-5.96-.72-7.68-2.49c-1.33-1.33-2.04-3.37-2.04-5.52,0-4.75,3.31-7.84,9.39-7.84h8.18v-2.6c0-3.98-1.99-5.97-6.96-5.97-3.48,0-5.25.83-6.85,3.09l-2.71-2.49c2.43-3.15,5.2-4.03,9.61-4.03,7.29,0,10.88,3.15,10.88,9.06v18.45h-3.98ZM1221.68,508.24h-7.62c-4.09,0-6.08,1.66-6.08,4.8s1.93,4.64,6.24,4.64c2.32,0,4.36-.17,6.08-1.82.94-.88,1.38-2.43,1.38-4.69v-2.93Z"/>
      </g>
      <g>
        <path class="cls-3" d="M592.88,588.6l-2.23-6.3h-12.17l-2.23,6.3h-3.17l10.25-27.85h2.5l10.21,27.85h-3.17ZM584.63,565.01l-5.24,14.71h10.4l-5.16-14.71Z"/>
        <path class="cls-3" d="M613.7,588.6v-11.85c0-3.4-1.84-5.12-4.73-5.12s-4.77,1.76-4.77,5.12v11.85h-2.82v-19.25h2.82v2.11c1.37-1.56,3.25-2.35,5.4-2.35s3.76.63,4.93,1.8c1.37,1.33,2,3.13,2,5.36v12.32h-2.82Z"/>
        <path class="cls-3" d="M652.5,588.6l-2.23-6.3h-12.17l-2.23,6.3h-3.17l10.25-27.85h2.5l10.21,27.85h-3.17ZM644.25,565.01l-5.24,14.71h10.4l-5.16-14.71Z"/>
        <path class="cls-3" d="M673.16,588.6v-2.15c-1.37,1.57-3.29,2.39-5.44,2.39s-3.79-.63-4.97-1.8c-1.37-1.33-1.96-3.17-1.96-5.4v-12.28h2.82v11.85c0,3.4,1.8,5.13,4.69,5.13s4.81-1.76,4.81-5.13v-11.85h2.82v19.25h-2.78Z"/>
        <path class="cls-3" d="M690.37,588.83c-3.25,0-5.79-.74-7.9-2.78l1.88-1.88c1.53,1.6,3.6,2.23,5.98,2.23,3.17,0,5.12-1.13,5.12-3.4,0-1.68-.98-2.62-3.21-2.82l-3.17-.27c-3.76-.31-5.75-2-5.75-5.16,0-3.52,2.97-5.63,7.08-5.63,2.74,0,5.2.67,6.92,2.07l-1.84,1.84c-1.37-1.06-3.13-1.53-5.12-1.53-2.82,0-4.3,1.21-4.3,3.17,0,1.64.94,2.62,3.36,2.82l3.09.27c3.36.31,5.67,1.6,5.67,5.2s-3.17,5.87-7.82,5.87Z"/>
        <path class="cls-3" d="M710.05,588.6c-3.29,0-4.93-2.31-4.93-5.16v-11.81h-2.43v-2.15h2.43v-6.02h2.82v6.02h4.11v2.15h-4.11v11.74c0,1.76.82,2.82,2.62,2.82h1.49v2.42h-2Z"/>
        <path class="cls-3" d="M729.72,573.03c-1.06-1.06-1.84-1.41-3.33-1.41-2.82,0-4.61,2.23-4.61,5.16v11.81h-2.82v-19.25h2.82v2.35c1.06-1.6,3.17-2.58,5.4-2.58,1.84,0,3.25.43,4.62,1.8l-2.07,2.11Z"/>
        <path class="cls-3" d="M747.29,588.6v-1.84c-1.57,1.56-2.97,2.07-5.56,2.07s-4.22-.51-5.44-1.76c-.94-.94-1.45-2.39-1.45-3.91,0-3.36,2.35-5.55,6.65-5.55h5.79v-1.84c0-2.82-1.41-4.22-4.93-4.22-2.46,0-3.72.59-4.85,2.19l-1.92-1.76c1.72-2.23,3.68-2.86,6.81-2.86,5.16,0,7.71,2.23,7.71,6.42v13.06h-2.82ZM747.29,579.72h-5.4c-2.89,0-4.3,1.17-4.3,3.4s1.37,3.29,4.42,3.29c1.64,0,3.09-.12,4.3-1.29.66-.63.98-1.72.98-3.32v-2.07Z"/>
        <path class="cls-3" d="M763.09,588.6c-3.36,0-4.89-2.19-4.89-5.12v-22.73h2.82v22.61c0,1.88.63,2.82,2.58,2.82h1.52v2.42h-2.03Z"/>
        <path class="cls-3" d="M772.64,564.03c-1.06,0-1.92-.86-1.92-1.92s.86-1.92,1.92-1.92,1.96.86,1.96,1.92-.9,1.92-1.96,1.92ZM771.23,588.6v-19.25h2.82v19.25h-2.82Z"/>
        <path class="cls-3" d="M793.37,588.6v-1.84c-1.57,1.56-2.97,2.07-5.56,2.07s-4.22-.51-5.44-1.76c-.94-.94-1.45-2.39-1.45-3.91,0-3.36,2.35-5.55,6.65-5.55h5.79v-1.84c0-2.82-1.41-4.22-4.93-4.22-2.46,0-3.72.59-4.85,2.19l-1.92-1.76c1.72-2.23,3.68-2.86,6.81-2.86,5.16,0,7.71,2.23,7.71,6.42v13.06h-2.82ZM793.37,579.72h-5.4c-2.89,0-4.3,1.17-4.3,3.4s1.37,3.29,4.42,3.29c1.64,0,3.09-.12,4.3-1.29.66-.63.98-1.72.98-3.32v-2.07Z"/>
        <path class="cls-3" d="M816.69,588.6v-11.85c0-3.4-1.84-5.12-4.73-5.12s-4.77,1.76-4.77,5.12v11.85h-2.82v-19.25h2.82v2.11c1.37-1.56,3.25-2.35,5.4-2.35s3.76.63,4.93,1.8c1.37,1.33,2,3.13,2,5.36v12.32h-2.82Z"/>
        <path class="cls-3" d="M855.3,585.62c-1.88,2.03-4.46,3.21-7.35,3.21-2.74,0-5.24-1.02-7.12-2.89-2.62-2.62-2.62-5.36-2.62-11.27s0-8.65,2.62-11.27c1.88-1.88,4.34-2.89,7.12-2.89,3.68,0,5.87,1.33,8.33,3.79l-1.99,2c-1.96-1.96-3.48-3.13-6.34-3.13-1.84,0-3.6.74-4.81,1.99-1.76,1.8-1.96,3.68-1.96,9.51s.2,7.75,1.96,9.54c1.21,1.25,2.97,1.96,4.81,1.96,2.03,0,3.95-.82,5.24-2.39,1.13-1.33,1.53-2.97,1.53-5.09v-2.07h-6.77v-2.62h9.74v4.42c0,3.21-.66,5.36-2.39,7.2Z"/>
        <path class="cls-3" d="M877.67,586.64c-1.33,1.33-3.17,2.19-5.52,2.19s-4.18-.86-5.51-2.19c-1.96-1.99-2.35-4.69-2.35-7.67s.39-5.67,2.35-7.67c1.33-1.33,3.17-2.19,5.51-2.19s4.19.86,5.52,2.19c1.96,1.99,2.35,4.69,2.35,7.67s-.39,5.67-2.35,7.67ZM875.68,573.03c-.9-.9-2.15-1.41-3.52-1.41s-2.58.51-3.48,1.41c-1.41,1.41-1.56,3.79-1.56,5.95s.15,4.54,1.56,5.95c.9.9,2.11,1.41,3.48,1.41s2.62-.51,3.52-1.41c1.41-1.41,1.53-3.79,1.53-5.95s-.12-4.54-1.53-5.95Z"/>
        <path class="cls-3" d="M893.44,588.6h-2.5l-7.04-19.25h3.05l5.24,15.45,5.28-15.45h3.05l-7.08,19.25Z"/>
        <path class="cls-3" d="M907.17,579.72c0,4.22,2,6.65,5.67,6.65,2.23,0,3.52-.67,5.05-2.19l1.91,1.68c-1.96,1.96-3.75,2.97-7.04,2.97-5.09,0-8.41-3.05-8.41-9.86,0-6.22,3.01-9.86,7.9-9.86s7.9,3.6,7.9,9.31v1.29h-12.99ZM916.75,574.4c-.74-1.76-2.47-2.89-4.5-2.89s-3.76,1.13-4.5,2.89c-.43,1.06-.51,1.64-.59,3.21h10.17c-.08-1.57-.16-2.15-.59-3.21Z"/>
        <path class="cls-3" d="M938.23,573.03c-1.06-1.06-1.84-1.41-3.33-1.41-2.82,0-4.62,2.23-4.62,5.16v11.81h-2.82v-19.25h2.82v2.35c1.06-1.6,3.17-2.58,5.4-2.58,1.84,0,3.25.43,4.62,1.8l-2.07,2.11Z"/>
        <path class="cls-3" d="M957.59,588.6v-11.85c0-3.4-1.84-5.12-4.73-5.12s-4.77,1.76-4.77,5.12v11.85h-2.82v-19.25h2.82v2.11c1.37-1.56,3.25-2.35,5.4-2.35s3.76.63,4.93,1.8c1.37,1.33,2,3.13,2,5.36v12.32h-2.82Z"/>
        <path class="cls-3" d="M993.31,588.6v-11.85c0-3.4-1.84-5.12-4.73-5.12s-4.81,1.76-4.81,4.81v12.17h-2.82v-11.85c0-3.4-1.84-5.12-4.73-5.12s-4.81,1.76-4.81,5.12v11.85h-2.82v-19.25h2.82v2.11c1.37-1.56,3.29-2.35,5.44-2.35,2.66,0,4.73,1.1,5.91,3.21,1.49-2.11,3.64-3.21,6.34-3.21,2.07,0,3.8.67,4.97,1.8,1.37,1.33,2.07,3.13,2.07,5.36v12.32h-2.82Z"/>
        <path class="cls-3" d="M1006.07,579.72c0,4.22,1.99,6.65,5.67,6.65,2.23,0,3.52-.67,5.05-2.19l1.92,1.68c-1.96,1.96-3.76,2.97-7.04,2.97-5.09,0-8.41-3.05-8.41-9.86,0-6.22,3.01-9.86,7.9-9.86s7.9,3.6,7.9,9.31v1.29h-12.99ZM1015.65,574.4c-.75-1.76-2.47-2.89-4.5-2.89s-3.76,1.13-4.5,2.89c-.43,1.06-.51,1.64-.59,3.21h10.17c-.08-1.57-.16-2.15-.58-3.21Z"/>
        <path class="cls-3" d="M1038.69,588.6v-11.85c0-3.4-1.84-5.12-4.73-5.12s-4.77,1.76-4.77,5.12v11.85h-2.82v-19.25h2.82v2.11c1.37-1.56,3.25-2.35,5.4-2.35s3.76.63,4.93,1.8c1.37,1.33,2,3.13,2,5.36v12.32h-2.82Z"/>
        <path class="cls-3" d="M1055.08,588.6c-3.29,0-4.93-2.31-4.93-5.16v-11.81h-2.43v-2.15h2.43v-6.02h2.81v6.02h4.11v2.15h-4.11v11.74c0,1.76.82,2.82,2.62,2.82h1.49v2.42h-2Z"/>
        <path class="cls-3" d="M1075.58,588.6v-27.85h2.97v27.85h-2.97Z"/>
        <path class="cls-3" d="M1099.76,588.6v-11.85c0-3.4-1.84-5.12-4.73-5.12s-4.77,1.76-4.77,5.12v11.85h-2.82v-19.25h2.82v2.11c1.37-1.56,3.25-2.35,5.4-2.35s3.76.63,4.93,1.8c1.37,1.33,2,3.13,2,5.36v12.32h-2.82Z"/>
        <path class="cls-3" d="M1112.16,564.03c-1.06,0-1.91-.86-1.91-1.92s.86-1.92,1.91-1.92,1.96.86,1.96,1.92-.9,1.92-1.96,1.92ZM1110.75,588.6v-19.25h2.82v19.25h-2.82Z"/>
        <path class="cls-3" d="M1127.37,588.6c-3.29,0-4.93-2.31-4.93-5.16v-11.81h-2.43v-2.15h2.43v-6.02h2.82v6.02h4.11v2.15h-4.11v11.74c0,1.76.82,2.82,2.62,2.82h1.49v2.42h-2Z"/>
        <path class="cls-3" d="M1137.7,564.03c-1.06,0-1.91-.86-1.91-1.92s.86-1.92,1.91-1.92,1.96.86,1.96,1.92-.9,1.92-1.96,1.92ZM1136.29,588.6v-19.25h2.82v19.25h-2.82Z"/>
        <path class="cls-3" d="M1158.43,588.6v-1.84c-1.56,1.56-2.97,2.07-5.56,2.07s-4.22-.51-5.43-1.76c-.94-.94-1.45-2.39-1.45-3.91,0-3.36,2.35-5.55,6.65-5.55h5.79v-1.84c0-2.82-1.41-4.22-4.93-4.22-2.47,0-3.71.59-4.85,2.19l-1.92-1.76c1.72-2.23,3.68-2.86,6.8-2.86,5.16,0,7.71,2.23,7.71,6.42v13.06h-2.82ZM1158.43,579.72h-5.4c-2.89,0-4.3,1.17-4.3,3.4s1.37,3.29,4.42,3.29c1.64,0,3.09-.12,4.31-1.29.66-.63.98-1.72.98-3.32v-2.07Z"/>
        <path class="cls-3" d="M1174.83,588.6c-3.29,0-4.93-2.31-4.93-5.16v-11.81h-2.42v-2.15h2.42v-6.02h2.82v6.02h4.11v2.15h-4.11v11.74c0,1.76.82,2.82,2.62,2.82h1.49v2.42h-2Z"/>
        <path class="cls-3" d="M1185.15,564.03c-1.06,0-1.92-.86-1.92-1.92s.86-1.92,1.92-1.92,1.96.86,1.96,1.92-.9,1.92-1.96,1.92ZM1183.74,588.6v-19.25h2.82v19.25h-2.82Z"/>
        <path class="cls-3" d="M1201.43,588.6h-2.5l-7.04-19.25h3.05l5.24,15.45,5.28-15.45h3.05l-7.08,19.25Z"/>
        <path class="cls-3" d="M1215.16,579.72c0,4.22,1.99,6.65,5.67,6.65,2.23,0,3.52-.67,5.04-2.19l1.92,1.68c-1.96,1.96-3.76,2.97-7.04,2.97-5.08,0-8.41-3.05-8.41-9.86,0-6.22,3.01-9.86,7.9-9.86s7.9,3.6,7.9,9.31v1.29h-12.98ZM1224.74,574.4c-.74-1.76-2.46-2.89-4.5-2.89s-3.76,1.13-4.5,2.89c-.43,1.06-.51,1.64-.58,3.21h10.17c-.08-1.57-.15-2.15-.59-3.21Z"/>
      </g>
      <rect class="cls-3" x="568.06" y="545.88" width="667.74" height="1.15"/>
      <rect class="cls-3" x="568.06" y="602.64" width="667.74" height="1.15"/>
    </g>
    <g>
      <polygon class="cls-4" points="1226.81 373.63 1151.37 406.66 1151.37 314.14 1226.81 281.1 1226.81 373.63"/>
      <polygon class="cls-4" points="1075.93 373.63 1151.37 406.66 1151.37 314.14 1075.93 281.1 1075.93 373.63"/>
      <polygon class="cls-1" points="1226.81 281.08 1151.37 314.11 1075.93 281.1 1151.37 248.07 1226.81 281.08"/>
      <polygon class="cls-4" points="1151.37 248.07 1075.94 281.1 1075.94 188.58 1151.37 155.55 1151.37 248.07"/>
      <polygon class="cls-2" points="1000.5 248.07 1075.94 281.1 1075.94 188.58 1000.5 155.55 1000.5 248.07"/>
      <polygon class="cls-4" points="1151.37 155.52 1075.94 188.55 1000.5 155.55 1075.94 122.51 1151.37 155.52"/>
    </g>
  </g>
</svg>