<svg width="66" height="49" viewBox="0 0 66 49" fill="none"
	xmlns="http://www.w3.org/2000/svg">
	<path d="M7.93358 28.6985L2.56401 20.4479V28.6985H0.802734V16.9748H2.41594L7.78551 25.2097V16.9748H9.54679V28.6985H7.93358Z" fill="#ffffff"/>
	<path d="M16.0153 28.8006C14.8074 28.8006 13.7631 28.3527 12.9604 27.5512C11.8147 26.3962 11.8303 25.0996 11.8303 22.8445C11.8303 20.5893 11.8147 19.2849 12.9604 18.1377C13.7631 17.3283 14.8074 16.8883 16.0153 16.8883C18.1507 16.8883 19.7561 18.1534 20.1613 20.495H18.3689C18.0883 19.3085 17.309 18.4834 16.0153 18.4834C15.3295 18.4834 14.7061 18.7506 14.3008 19.1906C13.7319 19.8192 13.5994 20.495 13.5994 22.8445C13.5994 25.1939 13.7319 25.8697 14.3008 26.4983C14.7061 26.9462 15.3295 27.2055 16.0153 27.2055C17.309 27.2055 18.1039 26.3804 18.3845 25.1939H20.1613C19.7717 27.5277 18.1195 28.8006 16.0153 28.8006Z" fill="#ffffff"/>
	<path d="M28.6092 28.6985L26.1621 23.756H23.9566V28.6985H22.1953V16.9748H26.6998C28.9053 16.9748 30.3081 18.4049 30.3081 20.4008C30.3081 22.0823 29.295 23.151 27.9857 23.5124L30.6666 28.6985H28.6092ZM26.5673 18.5778H23.9566V22.2473H26.5673C27.7441 22.2473 28.5468 21.5716 28.5468 20.4165C28.5468 19.2614 27.7441 18.5699 26.5673 18.5699V18.5778Z" fill="#ffffff"/>
	<path d="M32.5603 28.6985V16.9748H34.3216V28.6985H32.5603Z" fill="#ffffff"/>
	<path d="M40.1197 28.8007C38.374 28.8007 37.1193 28.3921 36.0049 27.2527L37.1817 26.0819C38.0311 26.9384 38.9585 27.1977 40.1509 27.1977C41.6706 27.1977 42.5512 26.5376 42.5512 25.4061C42.5512 24.8954 42.4032 24.4711 42.0914 24.1882C41.7953 23.9053 41.5069 23.7953 40.8211 23.6931L39.4495 23.4967C38.4987 23.3631 37.7506 23.0331 37.244 22.5616C36.6751 22.0195 36.3945 21.2808 36.3945 20.3222C36.3945 18.2792 37.8675 16.8805 40.2834 16.8805C41.8187 16.8805 42.8941 17.2734 43.8917 18.2163L42.7617 19.3321C42.0447 18.6406 41.2108 18.4285 40.2288 18.4285C38.8572 18.4285 38.1091 19.2221 38.1091 20.2593C38.1091 20.6836 38.2416 21.0687 38.5533 21.3437C38.8494 21.6108 39.317 21.8073 39.8626 21.8859L41.1874 22.0823C42.2629 22.2473 42.8708 22.5066 43.3617 22.9545C44.0008 23.5124 44.3047 24.3532 44.3047 25.359C44.3047 27.512 42.559 28.8007 40.1275 28.8007H40.1197Z" fill="#ffffff"/>
	<path d="M3.23418 34.859L1.19234 31.7474V34.859H0.779297V30.9773H1.16896L3.2108 34.0811V30.9773H3.62384V34.859H3.23418Z" fill="#ffffff"/>
	<path d="M6.17227 34.859V34.5997C5.95405 34.8197 5.75922 34.8904 5.40073 34.8904C5.04224 34.8904 4.81623 34.8197 4.65258 34.6468C4.52009 34.5132 4.44995 34.3168 4.44995 34.1046C4.44995 33.6332 4.77727 33.3267 5.36956 33.3267H6.17227V33.0674C6.17227 32.6745 5.97743 32.4781 5.49425 32.4781C5.15135 32.4781 4.97989 32.5567 4.82403 32.7845L4.55906 32.5409C4.80065 32.2266 5.06562 32.1402 5.50204 32.1402C6.21903 32.1402 6.56972 32.4545 6.56972 33.036V34.859H6.18006H6.17227ZM6.17227 33.6253H5.42411C5.02665 33.6253 4.83182 33.7903 4.83182 34.0968C4.83182 34.4032 5.01886 34.5525 5.4397 34.5525C5.6657 34.5525 5.86833 34.5368 6.03199 34.3718C6.12551 34.2854 6.16447 34.1282 6.16447 33.9082V33.6175L6.17227 33.6253Z" fill="#ffffff"/>
	<path d="M8.25312 34.859C7.80111 34.859 7.5751 34.5368 7.5751 34.1361V32.4859H7.23999V32.1873H7.5751V31.3466H7.96477V32.1873H8.53367V32.4859H7.96477V34.1203C7.96477 34.3639 8.08166 34.5132 8.32326 34.5132H8.52588V34.8511H8.25312V34.859Z" fill="#ffffff"/>
	<path d="M9.50008 31.4409C9.35201 31.4409 9.23511 31.323 9.23511 31.1737C9.23511 31.0244 9.35201 30.9066 9.50008 30.9066C9.64815 30.9066 9.77284 31.0244 9.77284 31.1737C9.77284 31.323 9.64815 31.4409 9.50008 31.4409ZM9.30525 34.8669V32.1874H9.69491V34.8669H9.30525Z" fill="#ffffff"/>
	<path d="M12.3836 34.5918C12.1966 34.7804 11.9472 34.8983 11.6199 34.8983C11.2925 34.8983 11.0432 34.7804 10.8561 34.5918C10.5834 34.3168 10.5288 33.9396 10.5288 33.5232C10.5288 33.1067 10.5834 32.7295 10.8561 32.4545C11.0432 32.2659 11.2925 32.1481 11.6199 32.1481C11.9472 32.1481 12.1966 32.2659 12.3836 32.4545C12.6564 32.7295 12.7109 33.1067 12.7109 33.5232C12.7109 33.9396 12.6564 34.3168 12.3836 34.5918ZM12.1108 32.6981C11.9862 32.5724 11.8147 32.5017 11.6277 32.5017C11.4406 32.5017 11.2692 32.5724 11.1445 32.6981C10.9496 32.8946 10.9263 33.2246 10.9263 33.5232C10.9263 33.8218 10.9496 34.1518 11.1445 34.3482C11.2692 34.474 11.4328 34.5447 11.6277 34.5447C11.8225 34.5447 11.9862 34.474 12.1108 34.3482C12.3057 34.1518 12.3213 33.8218 12.3213 33.5232C12.3213 33.2246 12.3057 32.8946 12.1108 32.6981Z" fill="#ffffff"/>
	<path d="M15.2436 34.859V33.2089C15.2436 32.7374 14.9864 32.4938 14.589 32.4938C14.1915 32.4938 13.9265 32.7374 13.9265 33.2089V34.859H13.5369V32.1795H13.9265V32.4702C14.1136 32.2502 14.3785 32.1402 14.6747 32.1402C14.9708 32.1402 15.1968 32.2266 15.3527 32.3916C15.5397 32.5802 15.6255 32.8317 15.6255 33.1381V34.859H15.2358H15.2436Z" fill="#ffffff"/>
	<path d="M18.0883 34.859V34.5997C17.8701 34.8197 17.6752 34.8904 17.3167 34.8904C16.9583 34.8904 16.7323 34.8197 16.5686 34.6468C16.4361 34.5132 16.366 34.3168 16.366 34.1046C16.366 33.6332 16.6933 33.3267 17.2856 33.3267H18.0883V33.0674C18.0883 32.6745 17.8934 32.4781 17.4103 32.4781C17.0674 32.4781 16.8959 32.5567 16.74 32.7845L16.4751 32.5409C16.7167 32.2266 16.9816 32.1402 17.4181 32.1402C18.135 32.1402 18.4857 32.4545 18.4857 33.036V34.859H18.0961H18.0883ZM18.0883 33.6253H17.3401C16.9427 33.6253 16.7478 33.7903 16.7478 34.0968C16.7478 34.4032 16.9349 34.5525 17.3557 34.5525C17.5817 34.5525 17.7843 34.5368 17.948 34.3718C18.0415 34.2854 18.0805 34.1282 18.0805 33.9082V33.6175L18.0883 33.6253Z" fill="#ffffff"/>
	<path d="M20.0833 34.859C19.6157 34.859 19.4053 34.5526 19.4053 34.144V30.9773H19.7949V34.1282C19.7949 34.3875 19.8807 34.5211 20.1534 34.5211H20.3638V34.859H20.0833Z" fill="#ffffff"/>
	<path d="M24.6501 34.859L23.7772 33.1382H22.8498V34.859H22.4368V30.9773H23.9097C24.5799 30.9773 25.0475 31.3859 25.0475 32.0538C25.0475 32.6196 24.7046 32.9889 24.2058 33.0989L25.1177 34.859H24.6345H24.6501ZM23.8785 31.3466H22.8498V32.7689H23.8785C24.3305 32.7689 24.6501 32.5331 24.6501 32.0617C24.6501 31.5902 24.3305 31.3466 23.8785 31.3466Z" fill="#ffffff"/>
	<path d="M26.1621 33.6253C26.1621 34.2147 26.4349 34.5525 26.9492 34.5525C27.261 34.5525 27.4324 34.4582 27.6428 34.2461L27.9078 34.4818C27.6351 34.7568 27.3857 34.8983 26.9337 34.8983C26.2323 34.8983 25.7725 34.474 25.7725 33.5232C25.7725 32.6588 26.1855 32.1481 26.8635 32.1481C27.5415 32.1481 27.9546 32.651 27.9546 33.4446V33.6253H26.1621ZM27.487 32.8867C27.3857 32.6431 27.1441 32.486 26.8635 32.486C26.583 32.486 26.3414 32.6431 26.2401 32.8867C26.1777 33.036 26.1699 33.1146 26.1621 33.3346H27.5649C27.5571 33.1146 27.5415 33.036 27.487 32.8867Z" fill="#ffffff"/>
	<path d="M29.6226 34.8904C29.1705 34.8904 28.8198 34.7883 28.5315 34.5054L28.7887 34.2461C28.9991 34.4661 29.2874 34.5604 29.6148 34.5604C30.0512 34.5604 30.3239 34.4032 30.3239 34.0889C30.3239 33.8532 30.1915 33.7275 29.8797 33.696L29.4433 33.6568C28.9212 33.6096 28.6484 33.3817 28.6484 32.9338C28.6484 32.4467 29.0614 32.1481 29.6303 32.1481C30.0122 32.1481 30.3473 32.2424 30.5889 32.4388L30.3317 32.6981C30.1447 32.5488 29.9031 32.486 29.6226 32.486C29.2329 32.486 29.0303 32.6588 29.0303 32.926C29.0303 33.1539 29.1627 33.2874 29.4979 33.3189L29.9265 33.3582C30.3941 33.4053 30.7136 33.5782 30.7136 34.0811C30.7136 34.584 30.2772 34.8983 29.6303 34.8983L29.6226 34.8904Z" fill="#ffffff"/>
	<path d="M31.711 33.6253C31.711 34.2147 31.9837 34.5525 32.4981 34.5525C32.8098 34.5525 32.9813 34.4582 33.1917 34.2461L33.4566 34.4818C33.1839 34.7568 32.9345 34.8983 32.4825 34.8983C31.7811 34.8983 31.3213 34.474 31.3213 33.5232C31.3213 32.6588 31.7343 32.1481 32.4123 32.1481C33.0904 32.1481 33.5034 32.651 33.5034 33.4446V33.6253H31.711ZM33.0358 32.8867C32.9345 32.6431 32.6929 32.486 32.4123 32.486C32.1318 32.486 31.8902 32.6431 31.7889 32.8867C31.7265 33.036 31.7187 33.1146 31.711 33.3346H33.1137C33.106 33.1146 33.0904 33.036 33.0358 32.8867Z" fill="#ffffff"/>
	<path d="M35.8415 34.859V34.5997C35.6232 34.8197 35.4284 34.8904 35.0699 34.8904C34.7114 34.8904 34.4854 34.8197 34.3218 34.6468C34.1893 34.5132 34.1191 34.3168 34.1191 34.1046C34.1191 33.6332 34.4465 33.3267 35.0387 33.3267H35.8415V33.0674C35.8415 32.6745 35.6466 32.4781 35.1634 32.4781C34.8205 32.4781 34.6491 32.5567 34.4932 32.7845L34.2282 32.5409C34.4698 32.2266 34.7348 32.1402 35.1712 32.1402C35.8882 32.1402 36.2389 32.4545 36.2389 33.036V34.859H35.8492H35.8415ZM35.8415 33.6253H35.0933C34.6958 33.6253 34.501 33.7903 34.501 34.0968C34.501 34.4032 34.6881 34.5525 35.1089 34.5525C35.3349 34.5525 35.5375 34.5368 35.7012 34.3718C35.7947 34.2854 35.8337 34.1282 35.8337 33.9082V33.6175L35.8415 33.6253Z" fill="#ffffff"/>
	<path d="M38.6623 32.6903C38.5143 32.541 38.4052 32.4938 38.2025 32.4938C37.8129 32.4938 37.5635 32.8081 37.5635 33.2167V34.8669H37.1738V32.1874H37.5635V32.5174C37.7116 32.2974 37.9999 32.1559 38.3116 32.1559C38.5688 32.1559 38.7637 32.2188 38.9507 32.4074L38.6623 32.6981V32.6903Z" fill="#ffffff"/>
	<path d="M40.3145 34.8904C39.6443 34.8904 39.1377 34.4347 39.1377 33.5153C39.1377 32.5959 39.6443 32.1402 40.3145 32.1402C40.6808 32.1402 40.9146 32.2345 41.1873 32.5409L40.9224 32.7924C40.7197 32.5724 40.5639 32.4938 40.3145 32.4938C40.0651 32.4938 39.8391 32.5959 39.6988 32.8002C39.5741 32.9731 39.5274 33.1853 39.5274 33.5232C39.5274 33.861 39.5741 34.0653 39.6988 34.2461C39.8391 34.4504 40.0573 34.5525 40.3145 34.5525C40.5717 34.5525 40.7275 34.4739 40.9224 34.2461L41.1873 34.5054C40.9146 34.804 40.6808 34.9061 40.3145 34.9061V34.8904Z" fill="#ffffff"/>
	<path d="M43.6345 34.859V33.201C43.6345 32.7296 43.3851 32.4938 42.9876 32.4938C42.5902 32.4938 42.3252 32.7374 42.3252 33.201V34.859H41.9355V30.9773H42.3252V32.4703C42.52 32.2502 42.7772 32.1402 43.0734 32.1402C43.6734 32.1402 44.0319 32.5253 44.0319 33.1303V34.8512H43.6423L43.6345 34.859Z" fill="#ffffff"/>
	<path d="M0.779297 40.3123V36.4305H1.19234V40.3123H0.779297Z" fill="#ffffff"/>
	<path d="M3.93573 40.3123V38.6622C3.93573 38.1907 3.67855 37.9471 3.2811 37.9471C2.88364 37.9471 2.61867 38.1907 2.61867 38.6622V40.3123H2.229V37.6328H2.61867V37.9235C2.80571 37.7035 3.07068 37.5935 3.36682 37.5935C3.66297 37.5935 3.88897 37.6799 4.04484 37.845C4.23188 38.0335 4.3176 38.285 4.3176 38.5914V40.3123H3.92794H3.93573Z" fill="#ffffff"/>
	<path d="M5.74355 37.9471V40.3123H5.35389V37.9471H5.01099V37.6485H5.35389V37.1378C5.35389 36.737 5.5721 36.4149 6.03191 36.4149H6.31246V36.7527H6.10205C5.85266 36.7527 5.74355 36.902 5.74355 37.1456V37.6407H6.31246V37.9393H5.74355V37.9471Z" fill="#ffffff"/>
	<path d="M8.4558 38.1435C8.30773 37.9942 8.19862 37.9471 7.996 37.9471C7.60633 37.9471 7.35695 38.2614 7.35695 38.67V40.3201H6.96729V37.6406H7.35695V37.9706C7.50502 37.7506 7.79337 37.6092 8.1051 37.6092C8.36228 37.6092 8.55711 37.6721 8.74415 37.8606L8.4558 38.1514V38.1435Z" fill="#ffffff"/>
	<path d="M10.7003 40.3123V40.053C10.4821 40.273 10.2873 40.3437 9.92881 40.3437C9.57032 40.3437 9.34431 40.273 9.18065 40.1001C9.04817 39.9665 8.97803 39.7701 8.97803 39.5579C8.97803 39.0865 9.30534 38.78 9.89763 38.78H10.7003V38.5207C10.7003 38.1278 10.5055 37.9314 10.0223 37.9314C9.67942 37.9314 9.50797 38.01 9.3521 38.2378L9.08713 37.9943C9.32872 37.6799 9.5937 37.5935 10.0301 37.5935C10.7471 37.5935 11.0978 37.9078 11.0978 38.4893V40.3123H10.7081H10.7003ZM10.7003 39.0786H9.95219C9.55473 39.0786 9.3599 39.2436 9.3599 39.5501C9.3599 39.8565 9.54694 40.0058 9.96777 40.0058C10.1938 40.0058 10.3964 39.9901 10.5601 39.8251C10.6536 39.7387 10.6925 39.5815 10.6925 39.3615V39.0708L10.7003 39.0786Z" fill="#ffffff"/>
	<path d="M12.8745 40.3437C12.4225 40.3437 12.0718 40.2416 11.7834 39.9587L12.0406 39.6994C12.251 39.9194 12.5394 40.0137 12.8667 40.0137C13.3031 40.0137 13.5759 39.8565 13.5759 39.5422C13.5759 39.3065 13.4434 39.1808 13.1317 39.1494L12.6953 39.1101C12.1731 39.0629 11.9003 38.835 11.9003 38.3872C11.9003 37.9 12.3134 37.6014 12.8823 37.6014C13.2642 37.6014 13.5993 37.6957 13.8409 37.8921L13.5837 38.1514C13.3967 38.0021 13.1473 37.9393 12.8745 37.9393C12.4848 37.9393 12.2822 38.1121 12.2822 38.3793C12.2822 38.6072 12.4147 38.7407 12.7498 38.7722L13.1784 38.8115C13.646 38.8586 13.9656 39.0315 13.9656 39.5344C13.9656 40.0373 13.5291 40.3516 12.8823 40.3516L12.8745 40.3437Z" fill="#ffffff"/>
	<path d="M15.4072 40.3123C14.9552 40.3123 14.7292 39.9901 14.7292 39.5894V37.9392H14.394V37.6406H14.7292V36.7999H15.1188V37.6406H15.6877V37.9392H15.1188V39.5736C15.1188 39.8172 15.2357 39.9665 15.4773 39.9665H15.6799V40.3044H15.4072V40.3123Z" fill="#ffffff"/>
	<path d="M17.9402 38.1435C17.7921 37.9942 17.683 37.9471 17.4804 37.9471C17.0907 37.9471 16.8413 38.2614 16.8413 38.67V40.3201H16.4517V37.6406H16.8413V37.9706C16.9894 37.7506 17.2777 37.6092 17.5895 37.6092C17.8467 37.6092 18.0415 37.6721 18.2285 37.8606L17.9402 38.1514V38.1435Z" fill="#ffffff"/>
	<path d="M20.4184 40.3122V40.0136C20.2314 40.2336 19.9664 40.3437 19.6702 40.3437C19.3741 40.3437 19.1481 40.2572 18.9844 40.0922C18.7974 39.9036 18.7117 39.6522 18.7117 39.3379V37.6249H19.1013V39.275C19.1013 39.7465 19.3507 39.9901 19.7482 39.9901C20.1456 39.9901 20.4106 39.7465 20.4106 39.275V37.6249H20.8003V40.3044H20.4184V40.3122Z" fill="#ffffff"/>
	<path d="M22.8032 40.3437C22.133 40.3437 21.6265 39.888 21.6265 38.9686C21.6265 38.0493 22.133 37.5935 22.8032 37.5935C23.1695 37.5935 23.4033 37.6878 23.6761 37.9943L23.4111 38.2457C23.2085 38.0257 23.0526 37.9471 22.8032 37.9471C22.5539 37.9471 22.3279 38.0493 22.1876 38.2536C22.0629 38.4264 22.0161 38.6386 22.0161 38.9765C22.0161 39.3144 22.0629 39.5187 22.1876 39.6994C22.3279 39.9037 22.5461 40.0058 22.8032 40.0058C23.0604 40.0058 23.2163 39.9273 23.4111 39.6994L23.6761 39.9587C23.4033 40.2573 23.1695 40.3594 22.8032 40.3594V40.3437Z" fill="#ffffff"/>
	<path d="M25.1645 40.3123C24.7125 40.3123 24.4865 39.9901 24.4865 39.5894V37.9392H24.1514V37.6406H24.4865V36.7999H24.8761V37.6406H25.4451V37.9392H24.8761V39.5736C24.8761 39.8172 24.993 39.9665 25.2346 39.9665H25.4373V40.3044H25.1645V40.3123Z" fill="#ffffff"/>
	<path d="M27.9001 40.3122V40.0136C27.713 40.2336 27.4481 40.3437 27.1519 40.3437C26.8558 40.3437 26.6298 40.2572 26.4661 40.0922C26.2791 39.9036 26.1934 39.6522 26.1934 39.3379V37.6249H26.583V39.275C26.583 39.7465 26.8324 39.9901 27.2299 39.9901C27.6273 39.9901 27.8923 39.7465 27.8923 39.275V37.6249H28.282V40.3044H27.9001V40.3122Z" fill="#ffffff"/>
	<path d="M30.7446 38.1435C30.5965 37.9942 30.4874 37.9471 30.2848 37.9471C29.8952 37.9471 29.6458 38.2614 29.6458 38.67V40.3201H29.2561V37.6406H29.6458V37.9706C29.7938 37.7506 30.0822 37.6092 30.3939 37.6092C30.6511 37.6092 30.8459 37.6721 31.033 37.8606L30.7446 38.1514V38.1435Z" fill="#ffffff"/>
	<path d="M31.6018 39.0708C31.6018 39.6601 31.8746 39.998 32.389 39.998C32.7007 39.998 32.8721 39.9037 33.0904 39.6915L33.3553 39.9273C33.0826 40.2023 32.8332 40.3437 32.3812 40.3437C31.6798 40.3437 31.22 39.9194 31.22 38.9686C31.22 38.1043 31.633 37.5935 32.311 37.5935C32.989 37.5935 33.4021 38.0964 33.4021 38.89V39.0708H31.6096H31.6018ZM32.9267 38.3321C32.8254 38.0885 32.5838 37.9314 32.3032 37.9314C32.0227 37.9314 31.7811 38.0885 31.6798 38.3321C31.6174 38.4814 31.6096 38.56 31.6018 38.78H33.0046C32.9968 38.56 32.9813 38.4814 32.9267 38.3321Z" fill="#ffffff"/>
	<path d="M36.0517 37.9471V40.3123H35.662V37.9471H35.3191V37.6485H35.662V37.1378C35.662 36.737 35.8802 36.4149 36.34 36.4149H36.6206V36.7527H36.4102C36.1608 36.7527 36.0517 36.902 36.0517 37.1456V37.6407H36.6206V37.9393H36.0517V37.9471Z" fill="#ffffff"/>
	<path d="M38.8961 40.0373C38.709 40.2258 38.4596 40.3437 38.1323 40.3437C37.805 40.3437 37.5556 40.2258 37.3686 40.0373C37.0958 39.7622 37.0413 39.3851 37.0413 38.9686C37.0413 38.5521 37.0958 38.175 37.3686 37.9C37.5556 37.7114 37.805 37.5935 38.1323 37.5935C38.4596 37.5935 38.709 37.7114 38.8961 37.9C39.1688 38.175 39.2234 38.5521 39.2234 38.9686C39.2234 39.3851 39.1688 39.7622 38.8961 40.0373ZM38.6233 38.1435C38.4986 38.0178 38.3272 37.9471 38.1401 37.9471C37.9531 37.9471 37.7816 38.0178 37.6569 38.1435C37.4621 38.34 37.4387 38.67 37.4387 38.9686C37.4387 39.2672 37.4621 39.5972 37.6569 39.7937C37.7816 39.9194 37.9453 39.9901 38.1401 39.9901C38.3349 39.9901 38.4986 39.9194 38.6233 39.7937C38.8181 39.5972 38.8337 39.2672 38.8337 38.9686C38.8337 38.67 38.8181 38.34 38.6233 38.1435Z" fill="#ffffff"/>
	<path d="M41.5381 38.1435C41.39 37.9942 41.2809 37.9471 41.0783 37.9471C40.6886 37.9471 40.4392 38.2614 40.4392 38.67V40.3201H40.0496V37.6406H40.4392V37.9706C40.5873 37.7506 40.8756 37.6092 41.1874 37.6092C41.4446 37.6092 41.6394 37.6721 41.8264 37.8606L41.5381 38.1514V38.1435Z" fill="#ffffff"/>
	<path d="M45.9881 40.3123L45.6764 39.4322H43.993L43.6813 40.3123H43.2449L44.6632 36.4305H45.0062L46.4167 40.3123H45.9803H45.9881ZM44.8503 37.0277L44.1255 39.0786H45.5673L44.8503 37.0277Z" fill="#ffffff"/>
	<path d="M48.6533 40.3122V40.0136C48.4662 40.2336 48.2013 40.3437 47.9051 40.3437C47.609 40.3437 47.383 40.2572 47.2193 40.0922C47.0323 39.9036 46.9465 39.6522 46.9465 39.3379V37.6249H47.3362V39.275C47.3362 39.7465 47.5856 39.9901 47.983 39.9901C48.3805 39.9901 48.6455 39.7465 48.6455 39.275V37.6249H49.0351V40.3044H48.6533V40.3122Z" fill="#ffffff"/>
	<path d="M50.8513 40.3437C50.3993 40.3437 50.0486 40.2416 49.7603 39.9587L50.0174 39.6994C50.2279 39.9194 50.5162 40.0137 50.8435 40.0137C51.2799 40.0137 51.5527 39.8565 51.5527 39.5422C51.5527 39.3065 51.4202 39.1808 51.1085 39.1494L50.6721 39.1101C50.1499 39.0629 49.8772 38.835 49.8772 38.3872C49.8772 37.9 50.2902 37.6014 50.8591 37.6014C51.241 37.6014 51.5761 37.6957 51.8177 37.8921L51.5605 38.1514C51.3735 38.0021 51.1241 37.9393 50.8513 37.9393C50.4617 37.9393 50.259 38.1121 50.259 38.3793C50.259 38.6072 50.3915 38.7407 50.7266 38.7722L51.1553 38.8115C51.6228 38.8586 51.9424 39.0315 51.9424 39.5344C51.9424 40.0373 51.506 40.3516 50.8591 40.3516L50.8513 40.3437Z" fill="#ffffff"/>
	<path d="M53.384 40.3123C52.932 40.3123 52.706 39.9901 52.706 39.5894V37.9392H52.3708V37.6406H52.706V36.7999H53.0956V37.6406H53.6645V37.9392H53.0956V39.5736C53.0956 39.8172 53.2125 39.9665 53.4619 39.9665H53.6645V40.3044H53.3918L53.384 40.3123Z" fill="#ffffff"/>
	<path d="M55.9248 38.1435C55.7767 37.9942 55.6676 37.9471 55.465 37.9471C55.0753 37.9471 54.8259 38.2614 54.8259 38.67V40.3201H54.4363V37.6406H54.8259V37.9706C54.974 37.7506 55.2624 37.6092 55.5741 37.6092C55.8313 37.6092 56.0261 37.6721 56.2131 37.8606L55.9248 38.1514V38.1435Z" fill="#ffffff"/>
	<path d="M58.1688 40.3123V40.053C57.9506 40.273 57.7558 40.3437 57.3973 40.3437C57.0388 40.3437 56.8128 40.273 56.6492 40.1001C56.5167 39.9665 56.4465 39.7701 56.4465 39.5579C56.4465 39.0865 56.7739 38.78 57.3661 38.78H58.1688V38.5207C58.1688 38.1278 57.974 37.9314 57.4908 37.9314C57.1479 37.9314 56.9765 38.01 56.8206 38.2378L56.5556 37.9943C56.7972 37.6799 57.0622 37.5935 57.4986 37.5935C58.2156 37.5935 58.5663 37.9078 58.5663 38.4893V40.3123H58.1766H58.1688ZM58.1688 39.0786H57.4207C57.0232 39.0786 56.8284 39.2436 56.8284 39.5501C56.8284 39.8565 57.0154 40.0058 57.4363 40.0058C57.6623 40.0058 57.8649 39.9901 58.0286 39.8251C58.1221 39.7387 58.1611 39.5815 58.1611 39.3615V39.0708L58.1688 39.0786Z" fill="#ffffff"/>
	<path d="M60.1641 40.3123C59.6965 40.3123 59.4861 40.0058 59.4861 39.5972V36.4305H59.8757V39.5815C59.8757 39.8408 59.9615 39.9744 60.2342 39.9744H60.4447V40.3123H60.1641Z" fill="#ffffff"/>
	<path d="M61.3021 36.8863C61.154 36.8863 61.0371 36.7684 61.0371 36.6191C61.0371 36.4698 61.154 36.3519 61.3021 36.3519C61.4502 36.3519 61.5748 36.4698 61.5748 36.6191C61.5748 36.7684 61.4502 36.8863 61.3021 36.8863ZM61.1073 40.3122V37.6327H61.4969V40.3122H61.1073Z" fill="#ffffff"/>
	<path d="M63.9826 40.3123V40.053C63.7644 40.273 63.5695 40.3437 63.211 40.3437C62.8525 40.3437 62.6265 40.273 62.4629 40.1001C62.3304 39.9665 62.2603 39.7701 62.2603 39.5579C62.2603 39.0865 62.5876 38.78 63.1799 38.78H63.9826V38.5207C63.9826 38.1278 63.7877 37.9314 63.3046 37.9314C62.9617 37.9314 62.7902 38.01 62.6343 38.2378L62.3694 37.9943C62.611 37.6799 62.8759 37.5935 63.3123 37.5935C64.0293 37.5935 64.38 37.9078 64.38 38.4893V40.3123H63.9904H63.9826ZM63.9826 39.0786H63.2344C62.837 39.0786 62.6421 39.2436 62.6421 39.5501C62.6421 39.8565 62.8292 40.0058 63.25 40.0058C63.476 40.0058 63.6786 39.9901 63.8423 39.8251C63.9358 39.7387 63.9748 39.5815 63.9748 39.3615V39.0708L63.9826 39.0786Z" fill="#ffffff"/>
	<path d="M2.43149 47.007L2.21328 46.3863H1.02091L0.802698 47.007H0.490967L1.4963 44.2568H1.73789L2.73543 47.007H2.4237H2.43149ZM1.62099 44.6812L1.10664 46.1348H2.12755L1.62099 44.6812Z" fill="#ffffff"/>
	<path d="M4.46555 47.007V45.8362C4.46555 45.4983 4.2863 45.3333 4.00574 45.3333C3.72518 45.3333 3.53815 45.5062 3.53815 45.8362V47.007H3.26538V45.1054H3.53815V45.3176C3.67063 45.1604 3.85767 45.0897 4.06809 45.0897C4.27851 45.0897 4.43437 45.1526 4.55127 45.2704C4.68376 45.404 4.7461 45.5769 4.7461 45.7969V47.0149H4.47334L4.46555 47.007Z" fill="#ffffff"/>
	<path d="M8.26865 47.007L8.05044 46.3863H6.85807L6.63986 47.007H6.32812L7.33346 44.2568H7.57505L8.57259 47.007H8.26086H8.26865ZM7.45815 44.6812L6.94379 46.1348H7.96471L7.45815 44.6812Z" fill="#ffffff"/>
	<path d="M10.2871 47.007V46.7949C10.1546 46.952 9.96754 47.0306 9.75712 47.0306C9.5467 47.0306 9.38304 46.9678 9.27393 46.8499C9.14145 46.7163 9.0791 46.5356 9.0791 46.3156V45.1055H9.35187V46.2763C9.35187 46.6142 9.53111 46.7792 9.81167 46.7792C10.0922 46.7792 10.2793 46.6063 10.2793 46.2763V45.1055H10.552V47.007H10.2793H10.2871Z" fill="#ffffff"/>
	<path d="M11.9705 47.0306C11.651 47.0306 11.4016 46.9598 11.199 46.7555L11.386 46.567C11.5341 46.7241 11.7367 46.787 11.9705 46.787C12.2822 46.787 12.4693 46.677 12.4693 46.4491C12.4693 46.2841 12.3758 46.1898 12.1575 46.1741L11.8458 46.1505C11.4795 46.1191 11.2847 45.9541 11.2847 45.6397C11.2847 45.294 11.5731 45.0818 11.9783 45.0818C12.2433 45.0818 12.4849 45.1447 12.6563 45.2861L12.4771 45.4669C12.3446 45.3647 12.1731 45.3176 11.9783 45.3176C11.7055 45.3176 11.5575 45.4354 11.5575 45.6319C11.5575 45.7969 11.651 45.8912 11.8848 45.9069L12.1887 45.9305C12.516 45.9619 12.742 46.0876 12.742 46.4412C12.742 46.7948 12.4303 47.0227 11.9783 47.0227L11.9705 47.0306Z" fill="#ffffff"/>
	<path d="M13.903 47.007C13.5835 47.007 13.4198 46.7792 13.4198 46.4963V45.3333H13.186V45.1212H13.4198V44.524H13.6926V45.1212H14.0978V45.3333H13.6926V46.4884C13.6926 46.6613 13.7705 46.7634 13.9498 46.7634H14.0978V46.9992H13.903V47.007Z" fill="#ffffff"/>
	<path d="M15.8282 45.4669C15.7269 45.3648 15.649 45.3255 15.5009 45.3255C15.2281 45.3255 15.0489 45.5455 15.0489 45.8362V46.9992H14.7761V45.0976H15.0489V45.3255C15.1502 45.1683 15.3606 45.074 15.5788 45.074C15.7581 45.074 15.8984 45.1133 16.0308 45.2548L15.8282 45.4669Z" fill="#ffffff"/>
	<path d="M17.5427 47.007V46.8263C17.3868 46.9834 17.2543 47.0306 16.9971 47.0306C16.7399 47.0306 16.5841 46.9834 16.4672 46.8577C16.3737 46.7634 16.3269 46.622 16.3269 46.4727C16.3269 46.1427 16.5529 45.9226 16.9815 45.9226H17.5504V45.7419C17.5504 45.4669 17.4102 45.3255 17.0673 45.3255C16.8257 45.3255 16.701 45.3805 16.5919 45.5455L16.4048 45.3726C16.5763 45.1526 16.7633 45.0897 17.0673 45.0897C17.5738 45.0897 17.8232 45.3097 17.8232 45.7262V47.0149H17.5504L17.5427 47.007ZM17.5427 46.1269H17.0127C16.7322 46.1269 16.5919 46.2448 16.5919 46.4648C16.5919 46.6848 16.7244 46.787 17.0283 46.787C17.192 46.787 17.3322 46.7791 17.4491 46.6613C17.5115 46.5984 17.5427 46.4884 17.5427 46.3312V46.1269Z" fill="#ffffff"/>
	<path d="M19.0933 47.007C18.766 47.007 18.6179 46.787 18.6179 46.5041V44.2646H18.8907V46.4962C18.8907 46.6848 18.953 46.7713 19.1401 46.7713H19.2881V47.007H19.0855H19.0933Z" fill="#ffffff"/>
	<path d="M20.0288 44.579C19.9275 44.579 19.8418 44.4925 19.8418 44.3904C19.8418 44.2882 19.9275 44.2018 20.0288 44.2018C20.1301 44.2018 20.2237 44.2882 20.2237 44.3904C20.2237 44.4925 20.1379 44.579 20.0288 44.579ZM19.8886 47.007V45.1054H20.1613V47.007H19.8886Z" fill="#ffffff"/>
	<path d="M22.0549 47.007V46.8263C21.899 46.9834 21.7665 47.0306 21.5093 47.0306C21.2522 47.0306 21.0963 46.9834 20.9794 46.8577C20.8859 46.7634 20.8391 46.622 20.8391 46.4727C20.8391 46.1427 21.0651 45.9226 21.4937 45.9226H22.0627V45.7419C22.0627 45.4669 21.9224 45.3255 21.5795 45.3255C21.3379 45.3255 21.2132 45.3805 21.1041 45.5455L20.917 45.3726C21.0885 45.1526 21.2755 45.0897 21.5795 45.0897C22.086 45.0897 22.3354 45.3097 22.3354 45.7262V47.0149H22.0627L22.0549 47.007ZM22.0549 46.1269H21.5249C21.2444 46.1269 21.1041 46.2448 21.1041 46.4648C21.1041 46.6848 21.2366 46.787 21.5405 46.787C21.7042 46.787 21.8444 46.7791 21.9613 46.6613C22.0237 46.5984 22.0549 46.4884 22.0549 46.3312V46.1269Z" fill="#ffffff"/>
	<path d="M24.3383 47.007V45.8362C24.3383 45.4983 24.1591 45.3333 23.8785 45.3333C23.598 45.3333 23.4109 45.5062 23.4109 45.8362V47.007H23.1382V45.1054H23.4109V45.3176C23.5434 45.1604 23.7305 45.0897 23.9409 45.0897C24.1513 45.0897 24.3072 45.1526 24.4241 45.2704C24.5566 45.404 24.6189 45.5769 24.6189 45.7969V47.0149H24.3461L24.3383 47.007Z" fill="#ffffff"/>
	<path d="M28.118 46.7084C27.9309 46.9127 27.6815 47.0228 27.401 47.0228C27.136 47.0228 26.8866 46.9206 26.7074 46.7399C26.4502 46.4806 26.4502 46.2134 26.4502 45.6241C26.4502 45.0347 26.4502 44.7676 26.7074 44.5083C26.8944 44.3197 27.136 44.2254 27.401 44.2254C27.7595 44.2254 27.9777 44.359 28.2193 44.6026L28.0244 44.799C27.8296 44.6026 27.6815 44.4926 27.401 44.4926C27.2217 44.4926 27.0503 44.5633 26.9334 44.689C26.7619 44.8697 26.7385 45.0505 26.7385 45.6241C26.7385 46.1977 26.7541 46.3863 26.9334 46.567C27.0503 46.6927 27.2217 46.7635 27.401 46.7635C27.6036 46.7635 27.7906 46.6849 27.9153 46.5277C28.0244 46.3941 28.0634 46.237 28.0634 46.0248V45.8205H27.401V45.5612H28.3518V46.0012C28.3518 46.3156 28.2894 46.5277 28.118 46.7084Z" fill="#ffffff"/>
	<path d="M30.3081 46.8105C30.1756 46.9441 29.9963 47.0306 29.7703 47.0306C29.5443 47.0306 29.3573 46.9441 29.2326 46.8105C29.0378 46.6141 29.0066 46.3469 29.0066 46.0562C29.0066 45.7655 29.0456 45.4983 29.2326 45.3019C29.3651 45.1683 29.5443 45.0818 29.7703 45.0818C29.9963 45.0818 30.1834 45.1683 30.3081 45.3019C30.5029 45.4983 30.5341 45.7655 30.5341 46.0562C30.5341 46.3469 30.4951 46.6141 30.3081 46.8105ZM30.1132 45.4669C30.0275 45.3804 29.9028 45.3254 29.7703 45.3254C29.6378 45.3254 29.5209 45.3726 29.4274 45.4669C29.2871 45.6083 29.2716 45.844 29.2716 46.0562C29.2716 46.2684 29.2871 46.5041 29.4274 46.6455C29.5132 46.732 29.6378 46.787 29.7703 46.787C29.9028 46.787 30.0275 46.7398 30.1132 46.6455C30.2535 46.5041 30.2613 46.2684 30.2613 46.0562C30.2613 45.844 30.2535 45.6083 30.1132 45.4669Z" fill="#ffffff"/>
	<path d="M31.851 47.007H31.6094L30.9236 45.1055H31.2197L31.7341 46.6299L32.2484 45.1055H32.5446L31.851 47.007Z" fill="#ffffff"/>
	<path d="M33.1993 46.127C33.1993 46.5434 33.3941 46.787 33.7526 46.787C33.9708 46.787 34.0955 46.7242 34.2436 46.567L34.4306 46.732C34.2358 46.9285 34.0643 47.0228 33.7448 47.0228C33.246 47.0228 32.9187 46.7242 32.9187 46.0484C32.9187 45.4355 33.2148 45.074 33.6902 45.074C34.1656 45.074 34.4618 45.4276 34.4618 45.9934V46.1191H33.1915L33.1993 46.127ZM34.1345 45.6005C34.0643 45.4276 33.8929 45.3176 33.6902 45.3176C33.4876 45.3176 33.3239 45.4276 33.2538 45.6005C33.2148 45.7027 33.207 45.7655 33.1993 45.9148H34.1968C34.1968 45.7577 34.1812 45.7027 34.1422 45.6005H34.1345Z" fill="#ffffff"/>
	<path d="M36.2386 45.4669C36.1373 45.3648 36.0594 45.3255 35.9113 45.3255C35.6385 45.3255 35.4593 45.5455 35.4593 45.8362V46.9992H35.1865V45.0976H35.4593V45.3255C35.5606 45.1683 35.771 45.074 35.9892 45.074C36.1685 45.074 36.3088 45.1133 36.4412 45.2548L36.2386 45.4669Z" fill="#ffffff"/>
	<path d="M38.1325 47.007V45.8362C38.1325 45.4983 37.9533 45.3333 37.6727 45.3333C37.3922 45.3333 37.2051 45.5062 37.2051 45.8362V47.007H36.9324V45.1054H37.2051V45.3176C37.3376 45.1604 37.5247 45.0897 37.7351 45.0897C37.9455 45.0897 38.1014 45.1526 38.2183 45.2704C38.3508 45.404 38.4131 45.5769 38.4131 45.7969V47.0149H38.1403L38.1325 47.007Z" fill="#ffffff"/>
	<path d="M41.6318 47.007V45.8362C41.6318 45.4983 41.4525 45.3333 41.172 45.3333C40.8914 45.3333 40.7044 45.5062 40.7044 45.8048V47.007H40.4316V45.8362C40.4316 45.4983 40.2524 45.3333 39.9718 45.3333C39.6912 45.3333 39.5042 45.5062 39.5042 45.8362V47.007H39.2314V45.1054H39.5042V45.3176C39.6367 45.1604 39.8237 45.0897 40.0342 45.0897C40.2913 45.0897 40.494 45.1997 40.6109 45.404C40.7589 45.1919 40.9693 45.0897 41.2343 45.0897C41.4369 45.0897 41.6084 45.1526 41.7175 45.2704C41.85 45.404 41.9201 45.5769 41.9201 45.7969V47.0149H41.6474L41.6318 47.007Z" fill="#ffffff"/>
	<path d="M42.8787 46.127C42.8787 46.5434 43.0735 46.787 43.432 46.787C43.6502 46.787 43.7749 46.7242 43.923 46.567L44.11 46.732C43.9152 46.9285 43.7438 47.0228 43.4242 47.0228C42.9255 47.0228 42.5981 46.7242 42.5981 46.0484C42.5981 45.4355 42.8943 45.074 43.3697 45.074C43.8451 45.074 44.1412 45.4276 44.1412 45.9934V46.1191H42.8709L42.8787 46.127ZM43.8139 45.6005C43.7438 45.4276 43.5723 45.3176 43.3697 45.3176C43.1671 45.3176 43.0034 45.4276 42.9255 45.6005C42.8865 45.7027 42.8787 45.7655 42.8709 45.9148H43.8684C43.8684 45.7577 43.8529 45.7027 43.8139 45.6005Z" fill="#ffffff"/>
	<path d="M46.0739 47.007V45.8362C46.0739 45.4983 45.8947 45.3333 45.6141 45.3333C45.3336 45.3333 45.1465 45.5062 45.1465 45.8362V47.007H44.8738V45.1054H45.1465V45.3176C45.279 45.1604 45.4661 45.0897 45.6765 45.0897C45.8869 45.0897 46.0428 45.1526 46.1597 45.2704C46.2922 45.404 46.3545 45.5769 46.3545 45.7969V47.0149H46.0817L46.0739 47.007Z" fill="#ffffff"/>
	<path d="M47.6794 47.007C47.3599 47.007 47.1962 46.7792 47.1962 46.4963V45.3333H46.9624V45.1212H47.1962V44.524H47.469V45.1212H47.8742V45.3333H47.469V46.4884C47.469 46.6613 47.5469 46.7634 47.7261 46.7634H47.8742V46.9992H47.6794V47.007Z" fill="#ffffff"/>
	<path d="M49.6821 47.007V44.2568H49.9705V47.007H49.6821Z" fill="#ffffff"/>
	<path d="M52.0512 47.007V45.8362C52.0512 45.4983 51.872 45.3333 51.5914 45.3333C51.3109 45.3333 51.1238 45.5062 51.1238 45.8362V47.007H50.8511V45.1054H51.1238V45.3176C51.2563 45.1604 51.4434 45.0897 51.6538 45.0897C51.8642 45.0897 52.0201 45.1526 52.137 45.2704C52.2695 45.404 52.3318 45.5769 52.3318 45.7969V47.0149H52.059L52.0512 47.007Z" fill="#ffffff"/>
	<path d="M53.2595 44.579C53.1582 44.579 53.0725 44.4925 53.0725 44.3904C53.0725 44.2882 53.1582 44.2018 53.2595 44.2018C53.3609 44.2018 53.4544 44.2882 53.4544 44.3904C53.4544 44.4925 53.3687 44.579 53.2595 44.579ZM53.1193 47.007V45.1054H53.392V47.007H53.1193Z" fill="#ffffff"/>
	<path d="M54.7556 47.007C54.436 47.007 54.2724 46.7792 54.2724 46.4963V45.3333H54.0386V45.1212H54.2724V44.524H54.5451V45.1212H54.9504V45.3333H54.5451V46.4884C54.5451 46.6613 54.6231 46.7634 54.8023 46.7634H54.9504V46.9992H54.7556V47.007Z" fill="#ffffff"/>
	<path d="M55.761 44.579C55.6597 44.579 55.574 44.4925 55.574 44.3904C55.574 44.2882 55.6597 44.2018 55.761 44.2018C55.8623 44.2018 55.9558 44.2882 55.9558 44.3904C55.9558 44.4925 55.8701 44.579 55.761 44.579ZM55.6207 47.007V45.1054H55.8935V47.007H55.6207Z" fill="#ffffff"/>
	<path d="M57.7951 47.007V46.8263C57.6392 46.9834 57.5067 47.0306 57.2496 47.0306C56.9924 47.0306 56.8365 46.9834 56.7196 46.8577C56.6261 46.7634 56.5793 46.622 56.5793 46.4727C56.5793 46.1427 56.8054 45.9226 57.234 45.9226H57.8029V45.7419C57.8029 45.4669 57.6626 45.3255 57.3197 45.3255C57.0781 45.3255 56.9534 45.3805 56.8443 45.5455L56.6573 45.3726C56.8287 45.1526 57.0158 45.0897 57.3197 45.0897C57.8263 45.0897 58.0757 45.3097 58.0757 45.7262V47.0149H57.8029L57.7951 47.007ZM57.7951 46.1269H57.2652C56.9846 46.1269 56.8443 46.2448 56.8443 46.4648C56.8443 46.6848 56.9768 46.787 57.2729 46.787C57.4366 46.787 57.5769 46.7791 57.6938 46.6613C57.7561 46.5984 57.7873 46.4884 57.7873 46.3312V46.1269H57.7951Z" fill="#ffffff"/>
	<path d="M59.4006 47.007C59.081 47.007 58.9174 46.7792 58.9174 46.4963V45.3333H58.6836V45.1212H58.9174V44.524H59.1902V45.1212H59.5954V45.3333H59.1902V46.4884C59.1902 46.6613 59.2681 46.7634 59.4473 46.7634H59.5954V46.9992H59.4006V47.007Z" fill="#ffffff"/>
	<path d="M60.4055 44.579C60.3042 44.579 60.2185 44.4925 60.2185 44.3904C60.2185 44.2882 60.3042 44.2018 60.4055 44.2018C60.5069 44.2018 60.6004 44.2882 60.6004 44.3904C60.6004 44.4925 60.5147 44.579 60.4055 44.579ZM60.2653 47.007V45.1054H60.538V47.007H60.2653Z" fill="#ffffff"/>
	<path d="M62.0033 47.007H61.7617L61.0759 45.1055H61.3721L61.8864 46.6299L62.4008 45.1055H62.6969L62.0033 47.007Z" fill="#ffffff"/>
	<path d="M63.3435 46.127C63.3435 46.5434 63.5384 46.787 63.8969 46.787C64.1151 46.787 64.2398 46.7242 64.3878 46.567L64.5749 46.732C64.3801 46.9285 64.2086 47.0228 63.8891 47.0228C63.3903 47.0228 63.063 46.7242 63.063 46.0484C63.063 45.4355 63.3591 45.074 63.8345 45.074C64.3099 45.074 64.6061 45.4276 64.6061 45.9934V46.1191H63.3358L63.3435 46.127ZM64.2787 45.6005C64.2086 45.4276 64.0372 45.3176 63.8345 45.3176C63.6319 45.3176 63.4682 45.4276 63.3903 45.6005C63.3513 45.7027 63.3435 45.7655 63.3358 45.9148H64.3333C64.3333 45.7577 64.3177 45.7027 64.2787 45.6005Z" fill="#ffffff"/>
	<path d="M65.37 42.7874H0V42.8974H65.37V42.7874Z" fill="#ffffff"/>
	<path d="M65.37 48.39H0V48.5H65.37V48.39Z" fill="#ffffff"/>
	<path d="M64.4893 25.7911L57.1013 29.0521V19.9135L64.4893 16.6526V25.7911Z" fill="#0A4268" stroke="white" stroke-width="0.29" stroke-linejoin="round"/>
	<path d="M49.7131 25.7911L57.1012 29.0521V19.9135L49.7131 16.6526V25.7911Z" fill="#F9A51A" stroke="white" stroke-width="0.29" stroke-linejoin="round"/>
	<path d="M64.4892 16.6526L57.1012 19.9136L49.7131 16.6526L57.1012 13.3917L64.4892 16.6526Z" fill="white" stroke="white" stroke-width="0.29" stroke-linejoin="round"/>
	<path d="M57.1012 13.3917L49.7131 16.6526V7.52195L57.1012 4.26099V13.3917Z" fill="#0A4268" stroke="white" stroke-width="0.29" stroke-linejoin="round"/>
	<path d="M42.3333 13.3917L49.7135 16.6526V7.52195L42.3333 4.26099V13.3917Z" fill="#F9A51A" stroke="white" stroke-width="0.29" stroke-linejoin="round"/>
	<path d="M57.1015 4.26096L49.7135 7.52192L42.3333 4.26096L49.7135 1L57.1015 4.26096Z" fill="#F9A51A" stroke="white" stroke-width="0.29" stroke-linejoin="round"/>
</svg>
